<svg xmlns="http://www.w3.org/2000/svg" viewBox="0 0 612 792"><defs><style>.cls-1,.cls-2{fill:#59ba49;}.cls-2{font-size:68.37px;font-family:PoetsenOne-Regular, Poetsen One;}.cls-3{letter-spacing:-0.01em;}.cls-4{letter-spacing:-0.02em;}.cls-5{letter-spacing:0em;}</style></defs><g id="Layer_2" data-name="Layer 2"><path class="cls-1" d="M78.07,614c-9.4,2.24-31.53-1-41.74.33-2.42.55-.77,10.7-1.23,12.44C33.44,635,77,623.48,73.92,631.58c-1,2.15,1.7,6.74-1.19,7-9.16,1-31-2.86-37.51,1.26,0,4.29.66,17.82.61,22.1-.6,2.75-6.81.32-8.83.86-12,2-7.08-3.64-7.34-14.32,1.1-18.48.46-15.67-.71-41.62,17.63-2.48,34.65.27,55.5-1.64C78.64,604.53,77,612.15,78.07,614Z"/><path class="cls-1" d="M180.9,662.58c-4,1.2-10.82-.25-15.29.49-2.48.45-6.48-13.64-9.82-12.48-4.76-.12-28.6-.14-33.08,0-2.59-1.07-6.67,13-8.54,12.48H100.36c-2-.09-1.2-.85-.37-2.42,9.22-16.53,14.63-27.49,26.58-46.53,4.09-5.59,3.28-11.25,13.14-9,2.42.51,6.72-2,8.16,1.06q1.49,2.29,14.55,24.68Q180.9,662.29,180.9,662.58ZM152.29,640c.13-1.67-11.76-21.34-13.07-22.67-8.47,17.34-18.51,23.86-8.05,24.26C133.47,641.34,152.06,642.65,152.29,640Z"/><path class="cls-1" d="M283.91,606.55c-.29,13.39-1.38,27.68-.86,41.81-.83,6.51,2.2,12.66-1.41,14.71-4.55-1.05-10.25,1.54-14.18-1.35-8.39-7.35-28.39-25.6-45.06-39.53-1.8,7.5.6,31.41,0,39.53-.26,2.95-11.33.31-14.18,1.35-1,0-1.53-.28-1.53-.82.57-16,2-27.17.74-45-.1-12.69-4.39-10.89,10.31-11.74,10.09.25,31.32,27.35,50.7,41.25,2.49-9-3.24-32.91.49-41.09a98.21,98.21,0,0,0,10.19.13C281.14,605.94,283.4,604.84,283.91,606.55Z"/><path class="cls-1" d="M391.71,662.58c-4,1.2-10.81-.25-15.28.49-2.49.45-6.49-13.64-9.82-12.48-4.76-.12-28.6-.14-33.09,0-2.58-1.07-6.66,13-8.53,12.48H311.18c-2-.09-1.21-.85-.37-2.42,9.21-16.53,14.63-27.49,26.58-46.53,4.09-5.59,3.28-11.25,13.14-9,2.42.51,6.71-2,8.16,1.06q1.47,2.29,14.55,24.68Q391.71,662.29,391.71,662.58ZM363.11,640c.13-1.67-11.77-21.34-13.08-22.67-8.46,17.34-18.5,23.86-8,24.26C344.29,641.34,362.87,642.65,363.11,640Z"/><path class="cls-1" d="M485.46,661.14c1,3.8-14.41,1.21-15.9,1.93-2.31.38-16.37-17-17.68-19.36-2.32-7.47-15.31-6.68-18.54-4.46q0,3.76.4,11.25c-.48,7,3.61,14.06-4.63,12.44-3.68-.92-9.18,1.56-11.6-.81a404.29,404.29,0,0,0,0-55.58c.52-1.65,2.89-.64,4.91-.77,3.44.24,6.82,0,10.07-.13,4,2.9-1,19,1,23.74,23.74,4.66,25.54-10.2,37-23.74.37-.21,14.13-.56,13.26,1.11-2.75,10.69-12.8,20.92-22.16,27.45C466.34,644,477.05,652.21,485.46,661.14Z"/><path class="cls-1" d="M587.25,662.58c-4,1.2-10.82-.25-15.29.49-2.48.45-6.48-13.64-9.82-12.48-4.76-.12-28.6-.14-33.09,0-2.58-1.07-6.66,13-8.53,12.48H506.71c-2-.09-1.2-.85-.37-2.42,9.21-16.53,14.63-27.49,26.58-46.53,4.09-5.59,3.28-11.25,13.14-9,2.42.51,6.71-2,8.16,1.06q1.47,2.29,14.55,24.68Q587.25,662.29,587.25,662.58ZM558.64,640c.13-1.67-11.76-21.34-13.07-22.67-8.47,17.34-18.51,23.86-8.05,24.26C539.82,641.34,558.41,642.65,558.64,640Z"/><text class="cls-2" transform="translate(18.89 737.54)">Gr<tspan class="cls-3" x="76.51" y="0">o</tspan><tspan x="116.91" y="0">wing</tspan><tspan class="cls-4" x="277.31" y="0"> </tspan><tspan class="cls-5" x="290.57" y="0">with you</tspan></text><path class="cls-1" d="M391.13,298c82.55,71,53.7,202.17-43.84,247.15-109.87,53.38-245.37-24.5-243.08-144C104,356,128.78,309.52,167,285.41c2.54-1.63,5.6,1.53,3.75,3.82-68,85-22.17,212.22,93.05,220.58,76.86,5,141.33-58,140.76-131.31A139.78,139.78,0,0,0,393,322a163.94,163.94,0,0,0-9.1-18.43c-2.57-4.18,3.57-8.82,7.19-5.52Z"/><path class="cls-1" d="M259.52,227.46c-2.42.09-5.11-3.13-8.06-5.31-7.5-5.53-15.73-10.05-23.5-15.22l-39.57-26.35-59.23-39.43-.91-.61,47.11,38.2,66,53.53c2.59,2.11,7.65,4.39,3.36,6.88-2.66,1.54-7,1-10,1.26a135.79,135.79,0,0,1-22,.15c-18.56-1.16-52.16-3.24-89.16-25.41C74.43,185.7,57.41,143.67,40,100.51c-3.92-9.72-11.27-29.62-4.34-34.78,4.4-3.28,11.58,1.48,26.74,4.68,16.36,3.49,27.18,2,37.28,1.82,22.47-.26,55.09,6.3,80.33,18.92,53.12,26.49,70.79,78.14,76.36,94.41,3,8.84,7,17.53,8,26.9.37,3.65.37,7.53-1,11C262.13,226.33,260.87,227.41,259.52,227.46Z"/><path class="cls-1" d="M321.15,254.25c-1.54-4.61-1.38-11.74,18.31-36.45,22.8-28.63,42.29-53.09,80.25-72,11.76-5.84,33.14-16.22,63.18-19.34,12.91-1.34,30.29.73,65,4.87,22.15,2.64,27.74,4.2,30.18,8.69,4.89,9-6.67,22.83-26,46.47-53.8,65.85-50.1,63.91-55.29,67.47-39.46,27-84.29,23.71-113.62,21.55C362.83,274.06,326.88,271.41,321.15,254.25Z"/><path class="cls-1" d="M268.55,416l31,38.16-9.89,7.27a31.72,31.72,0,0,1-23.28,4.68,31,31,0,0,1-19.91-12.52l-6.63-9.34-3.14-4.42-7.26-10.23,0-.25-.06-.29a54.18,54.18,0,0,1-.78-14.16,57,57,0,0,1,26.07-43.82l57.51-37.75,3.11,4.36c15.2,21.47,9,38.67-11.31,55.36Z"/><path class="cls-1" d="M284.48,319.63l-49.69,43.26c-12.09,10.5-19.28,26.27-20.69,42.39l-5.9-10.61a52.45,52.45,0,0,1-3.63-8.1c-8.25-23.24-1.29-52.42,17.53-68.8l71.39-62.15,4.66,8.39C304,282.45,299.22,306.78,284.48,319.63Z"/><path class="cls-1" d="M215.61,412.94l-9.26-16.65a54.88,54.88,0,0,1-3.81-8.51c-8.82-24.83-1.09-55.17,18.38-72.12l73.25-63.76,6,11c6.51,20.64.26,45.95-14.55,58.86L236,365c-11.11,9.65-18.28,24.35-19.68,40.33Zm77.21-153.59-69.54,60.54c-17.68,15.39-24.69,42.92-16.68,65.46a48.43,48.43,0,0,0,3.46,7.71l2.83,5.1c2.79-14.83,10.13-28.19,20.72-37.39l49.7-43.26c13-11.38,18.55-33.74,12.86-52.12Z"/><path class="cls-1" d="M227.18,424.67c0,1.05-.91,2.8-1.74,2a55.92,55.92,0,0,1-7.77-10.2,140.38,140.38,0,0,1-8.21-15.58,99.27,99.27,0,0,1-5.8-15.77c1.32-.88,2.86,11.45,4.18,10.57l14,22.38"/></g></svg>