<svg id="Layer_1" data-name="Layer 1" xmlns="http://www.w3.org/2000/svg" xmlns:xlink="http://www.w3.org/1999/xlink" viewBox="0 0 976.85 790.96"><defs><style>.cls-1{fill:none;}.cls-2{fill:#59ba49;}.cls-3{clip-path:url(#clip-path);}.cls-4{clip-path:url(#clip-path-2);}.cls-5{clip-path:url(#clip-path-3);}</style><clipPath id="clip-path"><path class="cls-1" d="M692.2,249.23c-54.08,0-98.07,42.38-98.07,94.46s44,94.47,98.07,94.47,98.06-42.38,98.06-94.47S746.3,249.23,692.2,249.23ZM724,392.79q-8.65,9.45-23.32,12.47v20h-17V405.85q-19-1.68-32-11.37l7.79-13.32q12.66,9.7,30.24,9.71,11.49,0,18.41-5.13A16,16,0,0,0,715,372.28q0-13-23.32-22.47-36.57-15-36.57-35.22a28.76,28.76,0,0,1,8.2-20.52q8.24-8.6,22.61-11.37V262.17h16.7v20.25a79.66,79.66,0,0,1,27.65,9.15l-8.64,13.6q-9.78-8.06-26.77-8.06-9.54,0-15.85,4.3a13.52,13.52,0,0,0-6.34,11.79q0,10.56,25.35,21.37,19,8,26.77,16.36t7.79,20.8c.07,7.74-2.83,14.74-8.58,21.06Z"/></clipPath><clipPath id="clip-path-2"><path class="cls-1" d="M692.2,196C610.32,196,544,262.1,544,343.68s66.4,147.79,148.25,147.79,148.24-66.14,148.24-147.74S774.1,196,692.2,196Zm0,265.13c-65,0-117.83-52.66-117.83-117.42S627.24,226.29,692.2,226.29,810,279,810,343.68,757.2,461.1,692.2,461.1Z"/></clipPath><clipPath id="clip-path-3"><path class="cls-1" d="M692.2,184c-88.54,0-160.29,71.51-160.29,159.71S603.69,503.47,692.2,503.47,852.48,432,852.48,343.73,780.75,184,692.2,184Zm0,286.67c-70.24,0-127.4-56.94-127.4-127S622,216.71,692.2,216.71s127.39,56.94,127.39,126.93S762.48,470.64,692.2,470.64Z"/></clipPath></defs><path class="cls-2" d="M692.2,249.23c-54.08,0-98.07,42.38-98.07,94.46s44,94.47,98.07,94.47,98.06-42.38,98.06-94.47S746.3,249.23,692.2,249.23ZM724,392.79q-8.65,9.45-23.32,12.47v20h-17V405.85q-19-1.68-32-11.37l7.79-13.32q12.66,9.7,30.24,9.71,11.49,0,18.41-5.13A16,16,0,0,0,715,372.28q0-13-23.32-22.47-36.57-15-36.57-35.22a28.76,28.76,0,0,1,8.2-20.52q8.24-8.6,22.61-11.37V262.17h16.7v20.25a79.66,79.66,0,0,1,27.65,9.15l-8.64,13.6q-9.78-8.06-26.77-8.06-9.54,0-15.85,4.3a13.52,13.52,0,0,0-6.34,11.79q0,10.56,25.35,21.37,19,8,26.77,16.36t7.79,20.8c.07,7.74-2.83,14.74-8.58,21.06Z"/><g class="cls-3"><rect class="cls-2" x="651.76" y="262.15" width="0.08" height="163.09"/><rect class="cls-2" x="651.84" y="262.15" width="3.85" height="163.09"/><rect class="cls-2" x="655.69" y="262.15" width="3.85" height="163.09"/><rect class="cls-2" x="659.53" y="262.15" width="3.85" height="163.09"/><rect class="cls-2" x="663.38" y="262.15" width="3.85" height="163.09"/><rect class="cls-2" x="667.23" y="262.15" width="3.85" height="163.09"/><rect class="cls-2" x="671.07" y="262.15" width="3.85" height="163.09"/><rect class="cls-2" x="674.92" y="262.15" width="3.85" height="163.09"/><rect class="cls-2" x="678.76" y="262.15" width="3.85" height="163.09"/><rect class="cls-2" x="682.61" y="262.15" width="3.85" height="163.09"/><rect class="cls-2" x="686.45" y="262.15" width="3.85" height="163.09"/><rect class="cls-2" x="690.3" y="262.15" width="3.85" height="163.09"/><rect class="cls-2" x="694.15" y="262.15" width="3.85" height="163.09"/><rect class="cls-2" x="697.99" y="262.15" width="3.85" height="163.09"/><rect class="cls-2" x="701.84" y="262.15" width="3.85" height="163.09"/><rect class="cls-2" x="705.68" y="262.15" width="3.85" height="163.09"/><rect class="cls-2" x="709.53" y="262.15" width="3.85" height="163.09"/><rect class="cls-2" x="713.38" y="262.15" width="3.85" height="163.09"/><rect class="cls-2" x="717.22" y="262.15" width="3.85" height="163.09"/><rect class="cls-2" x="721.07" y="262.15" width="3.85" height="163.09"/><rect class="cls-2" x="724.91" y="262.15" width="3.85" height="163.09"/><rect class="cls-2" x="728.76" y="262.15" width="3.85" height="163.09"/><rect class="cls-2" x="732.6" y="262.15" width="0.08" height="163.09"/><rect class="cls-2" x="594.16" y="249.23" width="3.85" height="188.93"/><rect class="cls-2" x="598" y="249.23" width="3.85" height="188.93"/><rect class="cls-2" x="601.85" y="249.23" width="3.85" height="188.93"/><rect class="cls-2" x="605.69" y="249.23" width="3.85" height="188.93"/><rect class="cls-2" x="609.54" y="249.23" width="3.85" height="188.93"/><rect class="cls-2" x="613.38" y="249.23" width="3.85" height="188.93"/><rect class="cls-2" x="617.23" y="249.23" width="3.85" height="188.93"/><rect class="cls-2" x="621.08" y="249.23" width="3.85" height="188.93"/><rect class="cls-2" x="624.92" y="249.23" width="3.85" height="188.93"/><rect class="cls-2" x="628.77" y="249.23" width="3.85" height="188.93"/><rect class="cls-2" x="632.61" y="249.23" width="3.85" height="188.93"/><rect class="cls-2" x="636.46" y="249.23" width="3.85" height="188.93"/><rect class="cls-2" x="640.31" y="249.23" width="3.85" height="188.93"/><rect class="cls-2" x="644.15" y="249.23" width="3.85" height="188.93"/><rect class="cls-2" x="648" y="249.23" width="3.85" height="188.93"/><rect class="cls-2" x="651.84" y="249.23" width="3.85" height="188.93"/><rect class="cls-2" x="655.69" y="249.23" width="3.85" height="188.93"/><rect class="cls-2" x="659.53" y="249.23" width="3.85" height="188.93"/><rect class="cls-2" x="663.38" y="249.23" width="3.85" height="188.93"/><rect class="cls-2" x="667.23" y="249.23" width="3.85" height="188.93"/><rect class="cls-2" x="671.07" y="249.23" width="3.85" height="188.93"/><rect class="cls-2" x="674.92" y="249.23" width="3.85" height="188.93"/><rect class="cls-2" x="678.76" y="249.23" width="3.85" height="188.93"/><rect class="cls-2" x="682.61" y="249.23" width="3.85" height="188.93"/><rect class="cls-2" x="686.45" y="249.23" width="3.85" height="188.93"/><rect class="cls-2" x="690.3" y="249.23" width="3.85" height="188.93"/><rect class="cls-2" x="694.15" y="249.23" width="3.85" height="188.93"/><rect class="cls-2" x="697.99" y="249.23" width="3.85" height="188.93"/><rect class="cls-2" x="701.84" y="249.23" width="3.85" height="188.93"/><rect class="cls-2" x="705.68" y="249.23" width="3.85" height="188.93"/><rect class="cls-2" x="709.53" y="249.23" width="3.85" height="188.93"/><rect class="cls-2" x="713.38" y="249.23" width="3.85" height="188.93"/><rect class="cls-2" x="717.22" y="249.23" width="3.85" height="188.93"/><rect class="cls-2" x="721.07" y="249.23" width="3.85" height="188.93"/><rect class="cls-2" x="724.91" y="249.23" width="3.85" height="188.93"/><rect class="cls-2" x="728.76" y="249.23" width="3.85" height="188.93"/><rect class="cls-2" x="732.6" y="249.23" width="3.85" height="188.93"/><rect class="cls-2" x="736.45" y="249.23" width="3.85" height="188.93"/><rect class="cls-2" x="740.3" y="249.23" width="3.85" height="188.93"/><rect class="cls-2" x="744.14" y="249.23" width="3.85" height="188.93"/><rect class="cls-2" x="747.99" y="249.23" width="3.85" height="188.93"/><rect class="cls-2" x="751.83" y="249.23" width="3.85" height="188.93"/><rect class="cls-2" x="755.68" y="249.23" width="3.85" height="188.93"/><rect class="cls-2" x="759.52" y="249.23" width="3.85" height="188.93"/><rect class="cls-2" x="763.37" y="249.23" width="3.85" height="188.93"/><rect class="cls-2" x="767.22" y="249.23" width="3.85" height="188.93"/><rect class="cls-2" x="771.06" y="249.23" width="3.85" height="188.93"/><rect class="cls-2" x="774.91" y="249.23" width="3.85" height="188.93"/><rect class="cls-2" x="778.75" y="249.23" width="3.85" height="188.93"/><rect class="cls-2" x="782.6" y="249.23" width="3.85" height="188.93"/><rect class="cls-2" x="786.45" y="249.23" width="3.85" height="188.93"/></g><path class="cls-2" d="M692.2,440.91c-55.6,0-100.84-43.61-100.84-97.22s45.27-97.22,100.84-97.22S793,290.08,793,343.69,747.83,440.91,692.2,440.91Zm0-188.93c-52.55,0-95.31,41.14-95.31,91.71s42.76,91.71,95.31,91.71,95.29-41.14,95.29-91.71S744.78,252,692.2,252Zm11.25,176H680.93V408.31c-12.06-1.43-22.43-5.35-30.86-11.66l-2-1.47L658.68,377l2.49,1.91c7.92,6.06,17.53,9.13,28.56,9.13,7,0,12.67-1.54,16.76-4.58a13.28,13.28,0,0,0,5.8-11.25c0-7.41-7.27-14.11-21.6-19.91-25.41-10.4-38.29-23.11-38.29-37.78a31.46,31.46,0,0,1,9-22.42c5.44-5.68,12.78-9.62,21.85-11.71v-21h22.23v20.62a84.38,84.38,0,0,1,26.19,9.11l2.63,1.4L722.38,309.3l-2.42-2c-6-4.92-14.4-7.42-25-7.42-5.76,0-10.57,1.28-14.29,3.82a10.81,10.81,0,0,0-5.13,9.51c0,4,4.1,10.47,23.67,18.84,13.15,5.55,22.21,11.12,27.7,17,5.66,6,8.53,13.66,8.53,22.67,0,8.43-3.15,16.15-9.37,22.94h0c-5.68,6.21-13.28,10.51-22.6,12.81Zm-17-5.51h11.46V403l2.2-.45c9.17-1.91,16.52-5.82,21.85-11.64s7.92-12.2,7.92-19.22c0-7.68-2.3-13.86-7-18.92-4.89-5.24-13.58-10.53-25.83-15.7-18.2-7.78-27-15.6-27-23.91a16.18,16.18,0,0,1,7.55-14.06c4.65-3.17,10.5-4.78,17.4-4.78,10.57,0,19.31,2.29,26,6.82l5.43-8.54a75.36,75.36,0,0,0-24-7.48l-2.43-.3V264.89H688.8v20l-2.24.43c-9,1.72-16.07,5.27-21.14,10.57A25.82,25.82,0,0,0,658,314.51c0,12.22,11.72,23.21,34.85,32.67,16.61,6.73,25,15.15,25,25a18.7,18.7,0,0,1-8,15.67c-5.06,3.76-11.81,5.67-20.06,5.67-11.14,0-21-2.84-29.39-8.45l-5,8.52c7.83,5.27,17.42,8.43,28.55,9.42l2.52.22Z"/><path class="cls-2" d="M692.2,196C610.32,196,544,262.1,544,343.68s66.4,147.79,148.25,147.79,148.24-66.14,148.24-147.74S774.1,196,692.2,196Zm0,265.13c-65,0-117.83-52.66-117.83-117.42S627.24,226.29,692.2,226.29,810,279,810,343.68,757.2,461.1,692.2,461.1Z"/><g class="cls-4"><rect class="cls-2" x="571.64" y="223.53" width="1.41" height="240.32"/><rect class="cls-2" x="573.05" y="223.53" width="5.81" height="240.32"/><rect class="cls-2" x="578.86" y="223.53" width="5.81" height="240.32"/><rect class="cls-2" x="584.68" y="223.53" width="5.81" height="240.32"/><rect class="cls-2" x="590.49" y="223.53" width="5.81" height="240.32"/><rect class="cls-2" x="596.3" y="223.53" width="5.81" height="240.32"/><rect class="cls-2" x="602.12" y="223.53" width="5.81" height="240.32"/><rect class="cls-2" x="607.93" y="223.53" width="5.81" height="240.32"/><rect class="cls-2" x="613.74" y="223.53" width="5.81" height="240.32"/><rect class="cls-2" x="619.56" y="223.53" width="5.81" height="240.32"/><rect class="cls-2" x="625.37" y="223.53" width="5.81" height="240.32"/><rect class="cls-2" x="631.18" y="223.53" width="5.81" height="240.32"/><rect class="cls-2" x="637" y="223.53" width="5.81" height="240.32"/><rect class="cls-2" x="642.81" y="223.53" width="5.81" height="240.32"/><rect class="cls-2" x="648.62" y="223.53" width="5.81" height="240.32"/><rect class="cls-2" x="654.44" y="223.53" width="5.81" height="240.32"/><rect class="cls-2" x="660.25" y="223.53" width="5.81" height="240.32"/><rect class="cls-2" x="666.06" y="223.53" width="5.81" height="240.32"/><rect class="cls-2" x="671.88" y="223.53" width="5.81" height="240.32"/><rect class="cls-2" x="677.69" y="223.53" width="5.81" height="240.32"/><rect class="cls-2" x="683.5" y="223.53" width="5.81" height="240.32"/><rect class="cls-2" x="689.32" y="223.53" width="5.81" height="240.32"/><rect class="cls-2" x="695.13" y="223.53" width="5.81" height="240.32"/><rect class="cls-2" x="700.94" y="223.53" width="5.81" height="240.32"/><rect class="cls-2" x="706.76" y="223.53" width="5.81" height="240.32"/><rect class="cls-2" x="712.57" y="223.53" width="5.81" height="240.32"/><rect class="cls-2" x="718.38" y="223.53" width="5.81" height="240.32"/><rect class="cls-2" x="724.2" y="223.53" width="5.81" height="240.32"/><rect class="cls-2" x="730.01" y="223.53" width="5.81" height="240.32"/><rect class="cls-2" x="735.82" y="223.53" width="5.81" height="240.32"/><rect class="cls-2" x="741.64" y="223.53" width="5.81" height="240.32"/><rect class="cls-2" x="747.45" y="223.53" width="5.81" height="240.32"/><rect class="cls-2" x="753.26" y="223.53" width="5.81" height="240.32"/><rect class="cls-2" x="759.08" y="223.53" width="5.81" height="240.32"/><rect class="cls-2" x="764.89" y="223.53" width="5.81" height="240.32"/><rect class="cls-2" x="770.7" y="223.53" width="5.81" height="240.32"/><rect class="cls-2" x="776.52" y="223.53" width="5.81" height="240.32"/><rect class="cls-2" x="782.33" y="223.53" width="5.81" height="240.32"/><rect class="cls-2" x="788.14" y="223.53" width="5.81" height="240.32"/><rect class="cls-2" x="793.96" y="223.53" width="5.81" height="240.32"/><rect class="cls-2" x="799.77" y="223.53" width="5.81" height="240.32"/><rect class="cls-2" x="805.58" y="223.53" width="5.81" height="240.32"/><rect class="cls-2" x="811.4" y="223.53" width="1.41" height="240.32"/><rect class="cls-2" x="541.22" y="193.22" width="2.77" height="300.96"/><rect class="cls-2" x="543.98" y="193.22" width="5.81" height="300.96"/><rect class="cls-2" x="549.8" y="193.22" width="5.81" height="300.96"/><rect class="cls-2" x="555.61" y="193.22" width="5.81" height="300.96"/><rect class="cls-2" x="561.42" y="193.22" width="5.81" height="300.96"/><rect class="cls-2" x="567.24" y="193.22" width="5.81" height="300.96"/><rect class="cls-2" x="573.05" y="193.22" width="5.81" height="300.96"/><rect class="cls-2" x="578.86" y="193.22" width="5.81" height="300.96"/><rect class="cls-2" x="584.68" y="193.22" width="5.81" height="300.96"/><rect class="cls-2" x="590.49" y="193.22" width="5.81" height="300.96"/><rect class="cls-2" x="596.3" y="193.22" width="5.81" height="300.96"/><rect class="cls-2" x="602.12" y="193.22" width="5.81" height="300.96"/><rect class="cls-2" x="607.93" y="193.22" width="5.81" height="300.96"/><rect class="cls-2" x="613.74" y="193.22" width="5.81" height="300.96"/><rect class="cls-2" x="619.56" y="193.22" width="5.81" height="300.96"/><rect class="cls-2" x="625.37" y="193.22" width="5.81" height="300.96"/><rect class="cls-2" x="631.18" y="193.22" width="5.81" height="300.96"/><rect class="cls-2" x="637" y="193.22" width="5.81" height="300.96"/><rect class="cls-2" x="642.81" y="193.22" width="5.81" height="300.96"/><rect class="cls-2" x="648.62" y="193.22" width="5.81" height="300.96"/><rect class="cls-2" x="654.44" y="193.22" width="5.81" height="300.96"/><rect class="cls-2" x="660.25" y="193.22" width="5.81" height="300.96"/><rect class="cls-2" x="666.06" y="193.22" width="5.81" height="300.96"/><rect class="cls-2" x="671.88" y="193.22" width="5.81" height="300.96"/><rect class="cls-2" x="677.69" y="193.22" width="5.81" height="300.96"/><rect class="cls-2" x="683.5" y="193.22" width="5.81" height="300.96"/><rect class="cls-2" x="689.32" y="193.22" width="5.81" height="300.96"/><rect class="cls-2" x="695.13" y="193.22" width="5.81" height="300.96"/><rect class="cls-2" x="700.94" y="193.22" width="5.81" height="300.96"/><rect class="cls-2" x="706.76" y="193.22" width="5.81" height="300.96"/><rect class="cls-2" x="712.57" y="193.22" width="5.81" height="300.96"/><rect class="cls-2" x="718.38" y="193.22" width="5.81" height="300.96"/><rect class="cls-2" x="724.2" y="193.22" width="5.81" height="300.96"/><rect class="cls-2" x="730.01" y="193.22" width="5.81" height="300.96"/><rect class="cls-2" x="735.82" y="193.22" width="5.81" height="300.96"/><rect class="cls-2" x="741.64" y="193.22" width="5.81" height="300.96"/><rect class="cls-2" x="747.45" y="193.22" width="5.81" height="300.96"/><rect class="cls-2" x="753.26" y="193.22" width="5.81" height="300.96"/><rect class="cls-2" x="759.08" y="193.22" width="5.81" height="300.96"/><rect class="cls-2" x="764.89" y="193.22" width="5.81" height="300.96"/><rect class="cls-2" x="770.7" y="193.22" width="5.81" height="300.96"/><rect class="cls-2" x="776.52" y="193.22" width="5.81" height="300.96"/><rect class="cls-2" x="782.33" y="193.22" width="5.81" height="300.96"/><rect class="cls-2" x="788.14" y="193.22" width="5.81" height="300.96"/><rect class="cls-2" x="793.96" y="193.22" width="5.81" height="300.96"/><rect class="cls-2" x="799.77" y="193.22" width="5.81" height="300.96"/><rect class="cls-2" x="805.58" y="193.22" width="5.81" height="300.96"/><rect class="cls-2" x="811.4" y="193.22" width="5.81" height="300.96"/><rect class="cls-2" x="817.21" y="193.22" width="5.81" height="300.96"/><rect class="cls-2" x="823.03" y="193.22" width="5.81" height="300.96"/><rect class="cls-2" x="828.84" y="193.22" width="5.81" height="300.96"/><rect class="cls-2" x="834.65" y="193.22" width="5.81" height="300.96"/><rect class="cls-2" x="840.47" y="193.22" width="2.77" height="300.96"/></g><path class="cls-2" d="M692.2,463.86c-66.49,0-120.59-53.91-120.59-120.18s54.1-120.15,120.59-120.15,120.58,53.9,120.58,120.15S758.72,463.86,692.2,463.86Zm0-234.82c-63.44,0-115.06,51.43-115.06,114.64S628.76,458.35,692.2,458.35s115-51.44,115-114.67S755.67,229,692.2,229Z"/><path class="cls-2" d="M692.2,494.17c-83.27,0-151-67.51-151-150.49s67.74-150.46,151-150.46,151,67.5,151,150.46S775.49,494.17,692.2,494.17Zm0-295.44c-80.22,0-145.48,65-145.48,145s65.26,145,145.48,145,145.47-65,145.47-145S772.44,198.73,692.2,198.73Z"/><path class="cls-2" d="M692.2,184c-88.54,0-160.29,71.51-160.29,159.71S603.69,503.47,692.2,503.47,852.48,432,852.48,343.73,780.75,184,692.2,184Zm0,286.67c-70.24,0-127.4-56.94-127.4-127S622,216.71,692.2,216.71s127.39,56.94,127.39,126.93S762.48,470.64,692.2,470.64Z"/><g class="cls-5"><rect class="cls-2" x="561.84" y="213.77" width="1.52" height="259.85"/><rect class="cls-2" x="563.37" y="213.77" width="6.29" height="259.85"/><rect class="cls-2" x="569.65" y="213.77" width="6.29" height="259.85"/><rect class="cls-2" x="575.94" y="213.77" width="6.29" height="259.85"/><rect class="cls-2" x="582.22" y="213.77" width="6.29" height="259.85"/><rect class="cls-2" x="588.51" y="213.77" width="6.29" height="259.85"/><rect class="cls-2" x="594.8" y="213.77" width="6.29" height="259.85"/><rect class="cls-2" x="601.08" y="213.77" width="6.29" height="259.85"/><rect class="cls-2" x="607.37" y="213.77" width="6.29" height="259.85"/><rect class="cls-2" x="613.65" y="213.77" width="6.29" height="259.85"/><rect class="cls-2" x="619.94" y="213.77" width="6.29" height="259.85"/><rect class="cls-2" x="626.22" y="213.77" width="6.29" height="259.85"/><rect class="cls-2" x="632.51" y="213.77" width="6.29" height="259.85"/><rect class="cls-2" x="638.8" y="213.77" width="6.29" height="259.85"/><rect class="cls-2" x="645.08" y="213.77" width="6.29" height="259.85"/><rect class="cls-2" x="651.37" y="213.77" width="6.29" height="259.85"/><rect class="cls-2" x="657.65" y="213.77" width="6.29" height="259.85"/><rect class="cls-2" x="663.94" y="213.77" width="6.29" height="259.85"/><rect class="cls-2" x="670.22" y="213.77" width="6.29" height="259.85"/><rect class="cls-2" x="676.51" y="213.77" width="6.29" height="259.85"/><rect class="cls-2" x="682.8" y="213.77" width="6.29" height="259.85"/><rect class="cls-2" x="689.08" y="213.77" width="6.29" height="259.85"/><rect class="cls-2" x="695.37" y="213.77" width="6.29" height="259.85"/><rect class="cls-2" x="701.65" y="213.77" width="6.29" height="259.85"/><rect class="cls-2" x="707.94" y="213.77" width="6.29" height="259.85"/><rect class="cls-2" x="714.22" y="213.77" width="6.29" height="259.85"/><rect class="cls-2" x="720.51" y="213.77" width="6.29" height="259.85"/><rect class="cls-2" x="726.8" y="213.77" width="6.29" height="259.85"/><rect class="cls-2" x="733.08" y="213.77" width="6.29" height="259.85"/><rect class="cls-2" x="739.37" y="213.77" width="6.29" height="259.85"/><rect class="cls-2" x="745.65" y="213.77" width="6.29" height="259.85"/><rect class="cls-2" x="751.94" y="213.77" width="6.29" height="259.85"/><rect class="cls-2" x="758.22" y="213.77" width="6.29" height="259.85"/><rect class="cls-2" x="764.51" y="213.77" width="6.29" height="259.85"/><rect class="cls-2" x="770.8" y="213.77" width="6.29" height="259.85"/><rect class="cls-2" x="777.08" y="213.77" width="6.29" height="259.85"/><rect class="cls-2" x="783.37" y="213.77" width="6.29" height="259.85"/><rect class="cls-2" x="789.65" y="213.77" width="6.29" height="259.85"/><rect class="cls-2" x="795.94" y="213.77" width="6.29" height="259.85"/><rect class="cls-2" x="802.22" y="213.77" width="6.29" height="259.85"/><rect class="cls-2" x="808.51" y="213.77" width="6.29" height="259.85"/><rect class="cls-2" x="814.8" y="213.77" width="6.29" height="259.85"/><rect class="cls-2" x="821.08" y="213.77" width="1.52" height="259.85"/><rect class="cls-2" x="528.95" y="180.99" width="2.99" height="325.41"/><rect class="cls-2" x="531.94" y="180.99" width="6.29" height="325.41"/><rect class="cls-2" x="538.22" y="180.99" width="6.29" height="325.41"/><rect class="cls-2" x="544.51" y="180.99" width="6.29" height="325.41"/><rect class="cls-2" x="550.79" y="180.99" width="6.29" height="325.41"/><rect class="cls-2" x="557.08" y="180.99" width="6.29" height="325.41"/><rect class="cls-2" x="563.37" y="180.99" width="6.29" height="325.41"/><rect class="cls-2" x="569.65" y="180.99" width="6.29" height="325.41"/><rect class="cls-2" x="575.94" y="180.99" width="6.29" height="325.41"/><rect class="cls-2" x="582.22" y="180.99" width="6.29" height="325.41"/><rect class="cls-2" x="588.51" y="180.99" width="6.29" height="325.41"/><rect class="cls-2" x="594.8" y="180.99" width="6.29" height="325.41"/><rect class="cls-2" x="601.08" y="180.99" width="6.29" height="325.41"/><rect class="cls-2" x="607.37" y="180.99" width="6.29" height="325.41"/><rect class="cls-2" x="613.65" y="180.99" width="6.29" height="325.41"/><rect class="cls-2" x="619.94" y="180.99" width="6.29" height="325.41"/><rect class="cls-2" x="626.22" y="180.99" width="6.29" height="325.41"/><rect class="cls-2" x="632.51" y="180.99" width="6.29" height="325.41"/><rect class="cls-2" x="638.8" y="180.99" width="6.29" height="325.41"/><rect class="cls-2" x="645.08" y="180.99" width="6.29" height="325.41"/><rect class="cls-2" x="651.37" y="180.99" width="6.29" height="325.41"/><rect class="cls-2" x="657.65" y="180.99" width="6.29" height="325.41"/><rect class="cls-2" x="663.94" y="180.99" width="6.29" height="325.41"/><rect class="cls-2" x="670.22" y="180.99" width="6.29" height="325.41"/><rect class="cls-2" x="676.51" y="180.99" width="6.29" height="325.41"/><rect class="cls-2" x="682.8" y="180.99" width="6.29" height="325.41"/><rect class="cls-2" x="689.08" y="180.99" width="6.29" height="325.41"/><rect class="cls-2" x="695.37" y="180.99" width="6.29" height="325.41"/><rect class="cls-2" x="701.65" y="180.99" width="6.29" height="325.41"/><rect class="cls-2" x="707.94" y="180.99" width="6.29" height="325.41"/><rect class="cls-2" x="714.22" y="180.99" width="6.29" height="325.41"/><rect class="cls-2" x="720.51" y="180.99" width="6.29" height="325.41"/><rect class="cls-2" x="726.8" y="180.99" width="6.29" height="325.41"/><rect class="cls-2" x="733.08" y="180.99" width="6.29" height="325.41"/><rect class="cls-2" x="739.37" y="180.99" width="6.29" height="325.41"/><rect class="cls-2" x="745.65" y="180.99" width="6.29" height="325.41"/><rect class="cls-2" x="751.94" y="180.99" width="6.29" height="325.41"/><rect class="cls-2" x="758.22" y="180.99" width="6.29" height="325.41"/><rect class="cls-2" x="764.51" y="180.99" width="6.29" height="325.41"/><rect class="cls-2" x="770.8" y="180.99" width="6.29" height="325.41"/><rect class="cls-2" x="777.08" y="180.99" width="6.29" height="325.41"/><rect class="cls-2" x="783.37" y="180.99" width="6.29" height="325.41"/><rect class="cls-2" x="789.65" y="180.99" width="6.29" height="325.41"/><rect class="cls-2" x="795.94" y="180.99" width="6.29" height="325.41"/><rect class="cls-2" x="802.22" y="180.99" width="6.29" height="325.41"/><rect class="cls-2" x="808.51" y="180.99" width="6.29" height="325.41"/><rect class="cls-2" x="814.8" y="180.99" width="6.29" height="325.41"/><rect class="cls-2" x="821.08" y="180.99" width="6.29" height="325.41"/><rect class="cls-2" x="827.37" y="180.99" width="6.29" height="325.41"/><rect class="cls-2" x="833.65" y="180.99" width="6.29" height="325.41"/><rect class="cls-2" x="839.94" y="180.99" width="6.29" height="325.41"/><rect class="cls-2" x="846.22" y="180.99" width="6.29" height="325.41"/><rect class="cls-2" x="852.51" y="180.99" width="2.99" height="325.41"/></g><path class="cls-2" d="M692.2,473.62c-71.89,0-130.39-58.29-130.39-129.94s58.5-129.91,130.39-129.91,130.37,58.28,130.37,129.91S764.12,473.62,692.2,473.62Zm0-253.89c-68.6,0-124.41,55.6-124.41,124s55.81,124,124.41,124,124.4-55.62,124.4-124S760.82,219.73,692.2,219.73Z"/><path class="cls-2" d="M692.2,506.4c-90,0-163.28-73-163.28-162.72S602.2,181,692.2,181s163.27,73,163.27,162.69S782.26,506.4,692.2,506.4Zm0-319.45c-86.74,0-157.3,70.31-157.3,156.73s70.59,156.79,157.3,156.79,157.29-70.32,157.29-156.76S779,187,692.2,187Z"/><rect class="cls-2" x="509.44" y="509.68" width="325.05" height="39.45"/><rect class="cls-2" x="523.94" y="509.68" width="1.49" height="32.76"/><rect class="cls-2" x="532.73" y="516.37" width="1.49" height="32.76"/><rect class="cls-2" x="541.15" y="516.37" width="1.49" height="32.76"/><rect class="cls-2" x="549.7" y="516.37" width="1.49" height="32.76"/><rect class="cls-2" x="558.11" y="516.37" width="1.49" height="32.76"/><rect class="cls-2" x="515.47" y="516.37" width="1.49" height="32.76"/><rect class="cls-2" x="574.31" y="509.68" width="1.49" height="32.76"/><rect class="cls-2" x="583.11" y="516.37" width="1.49" height="32.76"/><rect class="cls-2" x="591.52" y="516.37" width="1.49" height="32.76"/><rect class="cls-2" x="600.07" y="516.37" width="1.49" height="32.76"/><rect class="cls-2" x="608.48" y="516.37" width="1.49" height="32.76"/><rect class="cls-2" x="565.85" y="516.37" width="1.49" height="32.76"/><rect class="cls-2" x="624.64" y="516.37" width="1.49" height="32.76"/><rect class="cls-2" x="633.43" y="509.68" width="1.49" height="32.76"/><rect class="cls-2" x="641.85" y="509.68" width="1.49" height="32.76"/><rect class="cls-2" x="650.4" y="509.68" width="1.49" height="32.76"/><rect class="cls-2" x="658.81" y="509.68" width="1.49" height="32.76"/><rect class="cls-2" x="616.17" y="509.68" width="1.49" height="32.76"/><rect class="cls-2" x="675.01" y="516.37" width="1.49" height="32.76"/><rect class="cls-2" x="683.81" y="509.68" width="1.49" height="32.76"/><rect class="cls-2" x="692.22" y="509.68" width="1.49" height="32.76"/><rect class="cls-2" x="700.77" y="509.68" width="1.49" height="32.76"/><rect class="cls-2" x="709.19" y="509.68" width="1.49" height="32.76"/><rect class="cls-2" x="666.55" y="509.68" width="1.49" height="32.76"/><rect class="cls-2" x="726.28" y="509.68" width="1.49" height="32.76"/><rect class="cls-2" x="735.08" y="516.37" width="1.49" height="32.76"/><rect class="cls-2" x="743.49" y="516.37" width="1.49" height="32.76"/><rect class="cls-2" x="752.04" y="516.37" width="1.49" height="32.76"/><rect class="cls-2" x="760.46" y="516.37" width="1.49" height="32.76"/><rect class="cls-2" x="717.82" y="516.37" width="1.49" height="32.76"/><rect class="cls-2" x="776.65" y="509.68" width="1.49" height="32.76"/><rect class="cls-2" x="785.45" y="516.37" width="1.49" height="32.76"/><rect class="cls-2" x="793.87" y="516.37" width="1.49" height="32.76"/><rect class="cls-2" x="802.41" y="516.37" width="1.49" height="32.76"/><rect class="cls-2" x="810.83" y="516.37" width="1.49" height="32.76"/><rect class="cls-2" x="768.19" y="516.37" width="1.49" height="32.76"/><rect class="cls-2" x="818.51" y="509.68" width="1.49" height="32.76"/><rect class="cls-2" x="825.82" y="509.68" width="1.49" height="32.76"/><rect class="cls-2" x="522.34" y="557.4" width="325.05" height="39.45"/><rect class="cls-2" x="536.85" y="557.4" width="1.49" height="32.76"/><rect class="cls-2" x="545.64" y="564.09" width="1.49" height="32.76"/><rect class="cls-2" x="554.06" y="564.09" width="1.49" height="32.76"/><rect class="cls-2" x="562.61" y="564.09" width="1.49" height="32.76"/><rect class="cls-2" x="571.02" y="564.09" width="1.49" height="32.76"/><rect class="cls-2" x="528.38" y="564.09" width="1.49" height="32.76"/><rect class="cls-2" x="587.22" y="557.4" width="1.49" height="32.76"/><rect class="cls-2" x="596.01" y="564.09" width="1.49" height="32.76"/><rect class="cls-2" x="604.43" y="564.09" width="1.49" height="32.76"/><rect class="cls-2" x="612.98" y="564.09" width="1.49" height="32.76"/><rect class="cls-2" x="621.39" y="564.09" width="1.49" height="32.76"/><rect class="cls-2" x="578.75" y="564.09" width="1.49" height="32.76"/><rect class="cls-2" x="637.55" y="564.09" width="1.49" height="32.76"/><rect class="cls-2" x="646.34" y="557.4" width="1.49" height="32.76"/><rect class="cls-2" x="654.76" y="557.4" width="1.49" height="32.76"/><rect class="cls-2" x="663.31" y="557.4" width="1.49" height="32.76"/><rect class="cls-2" x="671.72" y="557.4" width="1.49" height="32.76"/><rect class="cls-2" x="629.08" y="557.4" width="1.49" height="32.76"/><rect class="cls-2" x="687.92" y="564.09" width="1.49" height="32.76"/><rect class="cls-2" x="696.72" y="557.4" width="1.49" height="32.76"/><rect class="cls-2" x="705.13" y="557.4" width="1.49" height="32.76"/><rect class="cls-2" x="713.68" y="557.4" width="1.49" height="32.76"/><rect class="cls-2" x="722.09" y="557.4" width="1.49" height="32.76"/><rect class="cls-2" x="679.46" y="557.4" width="1.49" height="32.76"/><rect class="cls-2" x="739.19" y="557.4" width="1.49" height="32.76"/><rect class="cls-2" x="747.99" y="564.09" width="1.49" height="32.76"/><rect class="cls-2" x="756.4" y="564.09" width="1.49" height="32.76"/><rect class="cls-2" x="764.95" y="564.09" width="1.49" height="32.76"/><rect class="cls-2" x="773.37" y="564.09" width="1.49" height="32.76"/><rect class="cls-2" x="730.73" y="564.09" width="1.49" height="32.76"/><rect class="cls-2" x="789.56" y="557.4" width="1.49" height="32.76"/><rect class="cls-2" x="798.36" y="564.09" width="1.49" height="32.76"/><rect class="cls-2" x="806.77" y="564.09" width="1.49" height="32.76"/><rect class="cls-2" x="815.32" y="564.09" width="1.49" height="32.76"/><rect class="cls-2" x="823.74" y="564.09" width="1.49" height="32.76"/><rect class="cls-2" x="781.1" y="564.09" width="1.49" height="32.76"/><rect class="cls-2" x="831.42" y="557.4" width="1.49" height="32.76"/><rect class="cls-2" x="838.72" y="557.4" width="1.49" height="32.76"/><rect class="cls-2" x="545.27" y="605.12" width="325.05" height="39.45"/><rect class="cls-2" x="559.77" y="605.12" width="1.49" height="32.76"/><rect class="cls-2" x="568.57" y="611.81" width="1.49" height="32.76"/><rect class="cls-2" x="576.98" y="611.81" width="1.49" height="32.76"/><rect class="cls-2" x="585.53" y="611.81" width="1.49" height="32.76"/><rect class="cls-2" x="593.94" y="611.81" width="1.49" height="32.76"/><rect class="cls-2" x="551.31" y="611.81" width="1.49" height="32.76"/><rect class="cls-2" x="610.14" y="605.12" width="1.49" height="32.76"/><rect class="cls-2" x="618.94" y="611.81" width="1.49" height="32.76"/><rect class="cls-2" x="627.35" y="611.81" width="1.49" height="32.76"/><rect class="cls-2" x="635.9" y="611.81" width="1.49" height="32.76"/><rect class="cls-2" x="644.32" y="611.81" width="1.49" height="32.76"/><rect class="cls-2" x="601.68" y="611.81" width="1.49" height="32.76"/><rect class="cls-2" x="660.47" y="611.81" width="1.49" height="32.76"/><rect class="cls-2" x="669.27" y="605.12" width="1.49" height="32.76"/><rect class="cls-2" x="677.68" y="605.12" width="1.49" height="32.76"/><rect class="cls-2" x="686.23" y="605.12" width="1.49" height="32.76"/><rect class="cls-2" x="694.65" y="605.12" width="1.49" height="32.76"/><rect class="cls-2" x="652.01" y="605.12" width="1.49" height="32.76"/><rect class="cls-2" x="710.84" y="611.81" width="1.49" height="32.76"/><rect class="cls-2" x="719.64" y="605.12" width="1.49" height="32.76"/><rect class="cls-2" x="728.05" y="605.12" width="1.49" height="32.76"/><rect class="cls-2" x="736.6" y="605.12" width="1.49" height="32.76"/><rect class="cls-2" x="745.02" y="605.12" width="1.49" height="32.76"/><rect class="cls-2" x="702.38" y="605.12" width="1.49" height="32.76"/><rect class="cls-2" x="762.11" y="605.12" width="1.49" height="32.76"/><rect class="cls-2" x="770.91" y="611.81" width="1.49" height="32.76"/><rect class="cls-2" x="779.33" y="611.81" width="1.49" height="32.76"/><rect class="cls-2" x="787.87" y="611.81" width="1.49" height="32.76"/><rect class="cls-2" x="796.29" y="611.81" width="1.49" height="32.76"/><rect class="cls-2" x="753.65" y="611.81" width="1.49" height="32.76"/><rect class="cls-2" x="812.49" y="605.12" width="1.49" height="32.76"/><rect class="cls-2" x="821.28" y="611.81" width="1.49" height="32.76"/><rect class="cls-2" x="829.7" y="611.81" width="1.49" height="32.76"/><rect class="cls-2" x="838.24" y="611.81" width="1.49" height="32.76"/><rect class="cls-2" x="846.66" y="611.81" width="1.49" height="32.76"/><rect class="cls-2" x="804.02" y="611.81" width="1.49" height="32.76"/><rect class="cls-2" x="854.34" y="605.12" width="1.49" height="32.76"/><rect class="cls-2" x="861.65" y="605.12" width="1.49" height="32.76"/><polygon class="cls-2" points="945.83 782.01 821.35 482.79 857.92 467.68 982.4 766.9 945.83 782.01"/><polygon class="cls-2" points="833.68 494.95 833.11 493.58 863.48 481.03 864.05 482.41 833.68 494.95"/><polygon class="cls-2" points="830.85 505.61 830.27 504.24 860.64 491.69 861.22 493.07 830.85 505.61"/><polygon class="cls-2" points="834.07 513.36 833.5 511.98 863.87 499.44 864.44 500.81 834.07 513.36"/><polygon class="cls-2" points="837.34 521.23 836.77 519.85 867.14 507.3 867.71 508.68 837.34 521.23"/><polygon class="cls-2" points="840.57 528.97 839.99 527.6 870.36 515.05 870.94 516.43 840.57 528.97"/><polygon class="cls-2" points="824.24 489.72 823.67 488.35 854.04 475.8 854.61 477.18 824.24 489.72"/><polygon class="cls-2" points="852.97 541.32 852.4 539.95 882.77 527.4 883.34 528.78 852.97 541.32"/><polygon class="cls-2" points="850.14 551.98 849.56 550.6 879.93 538.06 880.51 539.43 850.14 551.98"/><polygon class="cls-2" points="853.36 559.73 852.79 558.35 883.16 545.81 883.73 547.18 853.36 559.73"/><polygon class="cls-2" points="856.63 567.59 856.06 566.22 886.43 553.67 887 555.05 856.63 567.59"/><polygon class="cls-2" points="859.86 575.34 859.28 573.97 889.65 561.42 890.22 562.8 859.86 575.34"/><polygon class="cls-2" points="843.53 536.09 842.95 534.71 873.32 522.17 873.9 523.55 843.53 536.09"/><polygon class="cls-2" points="896.41 577.67 895.84 576.29 865.47 588.84 866.04 590.21 896.41 577.67"/><polygon class="cls-2" points="905.98 583.2 905.41 581.83 875.04 594.37 875.61 595.75 905.98 583.2"/><polygon class="cls-2" points="909.2 590.95 908.63 589.58 878.26 602.12 878.83 603.5 909.2 590.95"/><polygon class="cls-2" points="912.48 598.82 911.9 597.44 881.53 609.99 882.11 611.36 912.48 598.82"/><polygon class="cls-2" points="915.7 606.57 915.13 605.19 884.76 617.74 885.33 619.11 915.7 606.57"/><polygon class="cls-2" points="899.37 567.31 898.8 565.94 868.43 578.48 869 579.86 899.37 567.31"/><polygon class="cls-2" points="915.7 624.04 915.13 622.66 884.76 635.21 885.33 636.58 915.7 624.04"/><polygon class="cls-2" points="925.27 629.57 924.7 628.2 894.33 640.74 894.9 642.12 925.27 629.57"/><polygon class="cls-2" points="928.49 637.32 927.92 635.94 897.55 648.49 898.12 649.86 928.49 637.32"/><polygon class="cls-2" points="931.76 645.19 931.19 643.81 900.82 656.35 901.4 657.73 931.76 645.19"/><polygon class="cls-2" points="934.99 652.93 934.42 651.56 904.05 664.1 904.62 665.48 934.99 652.93"/><polygon class="cls-2" points="918.66 613.68 918.09 612.31 887.72 624.85 888.29 626.23 918.66 613.68"/><polygon class="cls-2" points="911.17 681.22 910.59 679.84 940.96 667.3 941.54 668.67 911.17 681.22"/><polygon class="cls-2" points="908.33 691.87 907.76 690.5 938.13 677.95 938.7 679.33 908.33 691.87"/><polygon class="cls-2" points="911.56 699.62 910.98 698.25 941.35 685.7 941.92 687.08 911.56 699.62"/><polygon class="cls-2" points="914.83 707.49 914.25 706.11 944.63 693.57 945.2 694.94 914.83 707.49"/><polygon class="cls-2" points="918.05 715.24 917.48 713.86 947.85 701.32 948.42 702.69 918.05 715.24"/><polygon class="cls-2" points="901.72 675.99 901.15 674.61 931.52 662.07 932.09 663.44 901.72 675.99"/><polygon class="cls-2" points="930.45 727.59 929.88 726.21 960.25 713.67 960.82 715.04 930.45 727.59"/><polygon class="cls-2" points="927.62 738.24 927.05 736.87 957.42 724.32 957.99 725.7 927.62 738.24"/><polygon class="cls-2" points="930.84 745.99 930.27 744.62 960.64 732.07 961.21 733.45 930.84 745.99"/><polygon class="cls-2" points="934.12 753.86 933.54 752.48 963.91 739.94 964.49 741.31 934.12 753.86"/><polygon class="cls-2" points="937.34 761.61 936.77 760.23 967.14 747.68 967.71 749.06 937.34 761.61"/><polygon class="cls-2" points="921.01 722.35 920.44 720.98 950.81 708.43 951.38 709.81 921.01 722.35"/><polygon class="cls-2" points="946.48 766.12 945.91 764.74 976.28 752.2 976.85 753.57 946.48 766.12"/><polygon class="cls-2" points="949.28 772.84 948.71 771.47 979.08 758.92 979.65 760.3 949.28 772.84"/><rect class="cls-2" x="474.87" y="652.5" width="325.05" height="39.45"/><rect class="cls-2" x="489.37" y="652.5" width="1.49" height="32.76"/><rect class="cls-2" x="498.17" y="659.19" width="1.49" height="32.76"/><rect class="cls-2" x="506.58" y="659.19" width="1.49" height="32.76"/><rect class="cls-2" x="515.13" y="659.19" width="1.49" height="32.76"/><rect class="cls-2" x="523.55" y="659.19" width="1.49" height="32.76"/><rect class="cls-2" x="480.91" y="659.19" width="1.49" height="32.76"/><rect class="cls-2" x="539.74" y="652.5" width="1.49" height="32.76"/><rect class="cls-2" x="548.54" y="659.19" width="1.49" height="32.76"/><rect class="cls-2" x="556.96" y="659.19" width="1.49" height="32.76"/><rect class="cls-2" x="565.5" y="659.19" width="1.49" height="32.76"/><rect class="cls-2" x="573.92" y="659.19" width="1.49" height="32.76"/><rect class="cls-2" x="531.28" y="659.19" width="1.49" height="32.76"/><rect class="cls-2" x="590.07" y="659.19" width="1.49" height="32.76"/><rect class="cls-2" x="598.87" y="652.5" width="1.49" height="32.76"/><rect class="cls-2" x="607.29" y="652.5" width="1.49" height="32.76"/><rect class="cls-2" x="615.83" y="652.5" width="1.49" height="32.76"/><rect class="cls-2" x="624.25" y="652.5" width="1.49" height="32.76"/><rect class="cls-2" x="581.61" y="652.5" width="1.49" height="32.76"/><rect class="cls-2" x="640.45" y="659.19" width="1.49" height="32.76"/><rect class="cls-2" x="649.24" y="652.5" width="1.49" height="32.76"/><rect class="cls-2" x="657.66" y="652.5" width="1.49" height="32.76"/><rect class="cls-2" x="666.2" y="652.5" width="1.49" height="32.76"/><rect class="cls-2" x="674.62" y="652.5" width="1.49" height="32.76"/><rect class="cls-2" x="631.98" y="652.5" width="1.49" height="32.76"/><rect class="cls-2" x="691.72" y="652.5" width="1.49" height="32.76"/><rect class="cls-2" x="700.51" y="659.19" width="1.49" height="32.76"/><rect class="cls-2" x="708.93" y="659.19" width="1.49" height="32.76"/><rect class="cls-2" x="717.47" y="659.19" width="1.49" height="32.76"/><rect class="cls-2" x="725.89" y="659.19" width="1.49" height="32.76"/><rect class="cls-2" x="683.25" y="659.19" width="1.49" height="32.76"/><rect class="cls-2" x="742.09" y="652.5" width="1.49" height="32.76"/><rect class="cls-2" x="750.88" y="659.19" width="1.49" height="32.76"/><rect class="cls-2" x="759.3" y="659.19" width="1.49" height="32.76"/><rect class="cls-2" x="767.84" y="659.19" width="1.49" height="32.76"/><rect class="cls-2" x="776.26" y="659.19" width="1.49" height="32.76"/><rect class="cls-2" x="733.62" y="659.19" width="1.49" height="32.76"/><rect class="cls-2" x="783.94" y="652.5" width="1.49" height="32.76"/><rect class="cls-2" x="791.25" y="652.5" width="1.49" height="32.76"/><rect class="cls-2" x="570.21" y="699.88" width="325.05" height="39.45"/><rect class="cls-2" x="584.72" y="699.88" width="1.49" height="32.76"/><rect class="cls-2" x="593.51" y="706.56" width="1.49" height="32.76"/><rect class="cls-2" x="601.93" y="706.56" width="1.49" height="32.76"/><rect class="cls-2" x="610.47" y="706.56" width="1.49" height="32.76"/><rect class="cls-2" x="618.89" y="706.56" width="1.49" height="32.76"/><rect class="cls-2" x="576.25" y="706.56" width="1.49" height="32.76"/><rect class="cls-2" x="635.09" y="699.88" width="1.49" height="32.76"/><rect class="cls-2" x="643.88" y="706.56" width="1.49" height="32.76"/><rect class="cls-2" x="652.3" y="706.56" width="1.49" height="32.76"/><rect class="cls-2" x="660.84" y="706.56" width="1.49" height="32.76"/><rect class="cls-2" x="669.26" y="706.56" width="1.49" height="32.76"/><rect class="cls-2" x="626.62" y="706.56" width="1.49" height="32.76"/><rect class="cls-2" x="685.42" y="706.56" width="1.49" height="32.76"/><rect class="cls-2" x="694.21" y="699.88" width="1.49" height="32.76"/><rect class="cls-2" x="702.63" y="699.88" width="1.49" height="32.76"/><rect class="cls-2" x="711.17" y="699.88" width="1.49" height="32.76"/><rect class="cls-2" x="719.59" y="699.88" width="1.49" height="32.76"/><rect class="cls-2" x="676.95" y="699.88" width="1.49" height="32.76"/><rect class="cls-2" x="735.79" y="706.56" width="1.49" height="32.76"/><rect class="cls-2" x="744.58" y="699.88" width="1.49" height="32.76"/><rect class="cls-2" x="753" y="699.88" width="1.49" height="32.76"/><rect class="cls-2" x="761.55" y="699.88" width="1.49" height="32.76"/><rect class="cls-2" x="769.96" y="699.88" width="1.49" height="32.76"/><rect class="cls-2" x="727.32" y="699.88" width="1.49" height="32.76"/><rect class="cls-2" x="787.06" y="699.88" width="1.49" height="32.76"/><rect class="cls-2" x="795.85" y="706.56" width="1.49" height="32.76"/><rect class="cls-2" x="804.27" y="706.56" width="1.49" height="32.76"/><rect class="cls-2" x="812.82" y="706.56" width="1.49" height="32.76"/><rect class="cls-2" x="821.23" y="706.56" width="1.49" height="32.76"/><rect class="cls-2" x="778.59" y="706.56" width="1.49" height="32.76"/><rect class="cls-2" x="837.43" y="699.88" width="1.49" height="32.76"/><rect class="cls-2" x="846.23" y="706.56" width="1.49" height="32.76"/><rect class="cls-2" x="854.64" y="706.56" width="1.49" height="32.76"/><rect class="cls-2" x="863.19" y="706.56" width="1.49" height="32.76"/><rect class="cls-2" x="871.6" y="706.56" width="1.49" height="32.76"/><rect class="cls-2" x="828.97" y="706.56" width="1.49" height="32.76"/><rect class="cls-2" x="879.29" y="699.88" width="1.49" height="32.76"/><rect class="cls-2" x="886.59" y="699.88" width="1.49" height="32.76"/><rect class="cls-2" x="583.12" y="747.6" width="325.05" height="39.45"/><rect class="cls-2" x="597.63" y="747.6" width="1.49" height="32.76"/><rect class="cls-2" x="606.42" y="754.28" width="1.49" height="32.76"/><rect class="cls-2" x="614.84" y="754.28" width="1.49" height="32.76"/><rect class="cls-2" x="623.38" y="754.28" width="1.49" height="32.76"/><rect class="cls-2" x="631.8" y="754.28" width="1.49" height="32.76"/><rect class="cls-2" x="589.16" y="754.28" width="1.49" height="32.76"/><rect class="cls-2" x="648" y="747.6" width="1.49" height="32.76"/><rect class="cls-2" x="656.79" y="754.28" width="1.49" height="32.76"/><rect class="cls-2" x="665.21" y="754.28" width="1.49" height="32.76"/><rect class="cls-2" x="673.75" y="754.28" width="1.49" height="32.76"/><rect class="cls-2" x="682.17" y="754.28" width="1.49" height="32.76"/><rect class="cls-2" x="639.53" y="754.28" width="1.49" height="32.76"/><rect class="cls-2" x="698.33" y="754.28" width="1.49" height="32.76"/><rect class="cls-2" x="707.12" y="747.6" width="1.49" height="32.76"/><rect class="cls-2" x="715.54" y="747.6" width="1.49" height="32.76"/><rect class="cls-2" x="724.08" y="747.6" width="1.49" height="32.76"/><rect class="cls-2" x="732.5" y="747.6" width="1.49" height="32.76"/><rect class="cls-2" x="689.86" y="747.6" width="1.49" height="32.76"/><rect class="cls-2" x="748.7" y="754.28" width="1.49" height="32.76"/><rect class="cls-2" x="757.49" y="747.6" width="1.49" height="32.76"/><rect class="cls-2" x="765.91" y="747.6" width="1.49" height="32.76"/><rect class="cls-2" x="774.45" y="747.6" width="1.49" height="32.76"/><rect class="cls-2" x="782.87" y="747.6" width="1.49" height="32.76"/><rect class="cls-2" x="740.23" y="747.6" width="1.49" height="32.76"/><rect class="cls-2" x="799.97" y="747.6" width="1.49" height="32.76"/><rect class="cls-2" x="808.76" y="754.28" width="1.49" height="32.76"/><rect class="cls-2" x="817.18" y="754.28" width="1.49" height="32.76"/><rect class="cls-2" x="825.73" y="754.28" width="1.49" height="32.76"/><rect class="cls-2" x="834.14" y="754.28" width="1.49" height="32.76"/><rect class="cls-2" x="791.5" y="754.28" width="1.49" height="32.76"/><rect class="cls-2" x="850.34" y="747.6" width="1.49" height="32.76"/><rect class="cls-2" x="859.13" y="754.28" width="1.49" height="32.76"/><rect class="cls-2" x="867.55" y="754.28" width="1.49" height="32.76"/><rect class="cls-2" x="876.1" y="754.28" width="1.49" height="32.76"/><rect class="cls-2" x="884.51" y="754.28" width="1.49" height="32.76"/><rect class="cls-2" x="841.87" y="754.28" width="1.49" height="32.76"/><rect class="cls-2" x="892.2" y="747.6" width="1.49" height="32.76"/><rect class="cls-2" x="899.5" y="747.6" width="1.49" height="32.76"/><path class="cls-2" d="M472.14,488.2V787.47H274.93V488.2a102.56,102.56,0,0,1,71.9-71.9h53.43A102.56,102.56,0,0,1,472.14,488.2Z"/><path class="cls-2" d="M472.14,488.2a102.16,102.16,0,0,0-200.76,26.71v276H475.69v-276A101.7,101.7,0,0,0,472.14,488.2ZM278.48,514.91a95.06,95.06,0,1,1,190.12,0v269H278.48Z"/><path class="cls-2" d="M220.3,614.82V787.47H23.09V614.87A102.54,102.54,0,0,1,95,543h53.43A102.55,102.55,0,0,1,220.3,614.82Z"/><path class="cls-2" d="M220.3,614.82A102.16,102.16,0,0,0,19.54,641.53V791H223.85V641.53A101.7,101.7,0,0,0,220.3,614.82ZM26.64,641.53a95.06,95.06,0,0,1,190.12,0V783.87H26.64Z"/><path class="cls-2" d="M641.41,11.67l-8.85,133.85c-.62,9.31-9.79,14.62-15.86,9.18l-29.23-26.2c-41.06,60.13-95.55,116.18-162.19,166.77-56.41,42.83-121.71,82-194.09,116.29A1353,1353,0,0,1,34.45,486.83a25,25,0,0,1-7.09,1C14,487.83,2.44,476.68.5,460.33l-.22-1.87c-2.13-18,8.21-35.73,23.46-40.2a1309.68,1309.68,0,0,0,189.46-72.5C316.4,296.68,455.49,212.49,541.44,87.25L507.87,57.16c-6.35-5.68-3.77-18,4.29-20.48L629.84.37C636.2-1.53,641.92,4,641.41,11.67Z"/><path class="cls-2" d="M629.84.37,512.2,36.68c-8.06,2.49-10.64,14.8-4.29,20.48l33.57,30.09c-86,125.24-225,209.43-328.24,258.51A1309.82,1309.82,0,0,1,23.78,418.29C8.53,422.76-1.81,440.48.32,458.49l.22,1.87c1.94,16.35,13.45,27.5,26.86,27.5a25,25,0,0,0,7.09-1,1354,1354,0,0,0,196.71-75.3c72.38-34.33,137.68-73.46,194.09-116.29,66.64-50.59,121.13-106.64,162.19-166.77l29.23,26.2c6.07,5.44,15.24.13,15.86-9.18l8.85-133.85C641.92,4,636.2-1.53,629.84.37Zm8,11.07L629,145.29c-.28,4.3-2.81,6.81-4.89,7.66a4.56,4.56,0,0,1-5.06-.89l-32.25-28.9-2.28,3.34c-40.84,59.81-95.14,115.64-161.4,166-56.22,42.68-121.31,81.68-193.47,115.91-85.09,40.37-159.46,64.36-196.21,75.06a20.78,20.78,0,0,1-17.62-2.63C9.36,476.57,5.05,469,4,460l-.22-1.86c-1.93-16.4,7.26-32.38,20.94-36.39a1317.25,1317.25,0,0,0,190-72.73c102.53-48.76,242.94-133.39,329.64-259.7l1.76-2.57-35.9-32.17c-2.41-2.16-2.68-5.64-2.13-8.17s2.16-5.37,5.1-6.28L630.87,3.8a5.57,5.57,0,0,1,1.47-.23,4.7,4.7,0,0,1,2.9,1,8,8,0,0,1,2.63,6.9Z"/></svg>