<svg id="Layer_1" data-name="Layer 1" xmlns="http://www.w3.org/2000/svg" viewBox="0 0 1068.31 974.2"><defs><style>.cls-1{fill:#68bd4d;}.cls-2,.cls-3{fill:#4dab48;}.cls-3{stroke:#231f20;stroke-miterlimit:10;}</style></defs><path class="cls-1" d="M565.68,677.78a5.79,5.79,0,0,1,.78,1.27c1.19,1.27,2.36,2.56,3.48,3.92a76.8,76.8,0,0,1,17.12,56.12,76,76,0,0,1-3.66,17.13l20.17-16.54a10,10,0,0,1,14,1.38l10.22,12.46a10,10,0,0,1-1.39,14l-7.22,5.93,8.16,9.95,2.2-1.81a10,10,0,0,1,14,1.38l10.21,12.47a9.95,9.95,0,0,1-1.38,14L549.84,893.5a9.75,9.75,0,0,1-4.1,2,5.76,5.76,0,0,1-1.91,2.93l-35.06,28.75a5.78,5.78,0,0,1-7.85-.49l-34.37-36a125.89,125.89,0,0,1-16.74,6.39,128.66,128.66,0,0,1-17.51,4l-8.58,48.6a5.77,5.77,0,0,1-6.32,5.17l-45.12-4.47a5.8,5.8,0,0,1-5.2-5.88l1.13-49.77a126.13,126.13,0,0,1-31.56-16.87l-40.53,28.38a5.77,5.77,0,0,1-8-.9l-28.75-35.06a5.77,5.77,0,0,1,.5-7.85l36-34.37a124.78,124.78,0,0,1-6.38-16.74,127.15,127.15,0,0,1-4-17.51l-48.6-8.57a5.78,5.78,0,0,1-5.17-6.32l4.47-45.12a5.81,5.81,0,0,1,5.87-5.21l49.76,1.13a127.24,127.24,0,0,1,16.89-31.55l-28.37-40.52a5.77,5.77,0,0,1,.88-8l35.06-28.75a5.79,5.79,0,0,1,7.85.49l34.38,36A126.62,126.62,0,0,1,375.21,651a128.77,128.77,0,0,1,17.52-4l8.57-48.6a5.8,5.8,0,0,1,6.33-5.17l45.12,4.47a5.81,5.81,0,0,1,5.2,5.88l-1.13,49.77c3.3,1.2,6.54,2.53,9.69,4,3.47,1.61,6.91,3.39,10.28,5.34a75.67,75.67,0,0,1,33.57-7.85l18.54-13a5.8,5.8,0,0,1,8,.91Z"/><path class="cls-2" d="M519.64,689.58a5.77,5.77,0,0,0-6.29,5.18l-5.61,57-14.81-4a5.77,5.77,0,0,0-3,11.14l21.39,5.78a7.55,7.55,0,0,0,1,.16,5.77,5.77,0,0,0,6.29-5.19l6.27-63.79A5.77,5.77,0,0,0,519.64,689.58Zm17.29-46.86a5.8,5.8,0,0,0-8-.91l-18.54,13a75.67,75.67,0,0,0-33.57,7.85c-3.37-1.95-6.81-3.73-10.28-5.34-3.15-1.45-6.39-2.78-9.69-4L458,603.56a5.81,5.81,0,0,0-5.2-5.88l-45.12-4.47a5.8,5.8,0,0,0-6.33,5.17L392.73,647a128.77,128.77,0,0,0-17.52,4,126.62,126.62,0,0,0-16.73,6.39l-34.38-36a5.79,5.79,0,0,0-7.85-.49l-35.06,28.75a5.77,5.77,0,0,0-.88,8l28.37,40.52a127.24,127.24,0,0,0-16.89,31.55L242,728.59a5.81,5.81,0,0,0-5.87,5.21l-4.47,45.12a5.78,5.78,0,0,0,5.17,6.32l48.6,8.57a127.15,127.15,0,0,0,4,17.51,124.78,124.78,0,0,0,6.38,16.74l-36,34.37a5.77,5.77,0,0,0-.5,7.85l28.75,35.06a5.77,5.77,0,0,0,8,.9l40.53-28.38a126.13,126.13,0,0,0,31.56,16.87l-1.13,49.77a5.8,5.8,0,0,0,5.2,5.88l45.12,4.47a5.77,5.77,0,0,0,6.32-5.17l8.58-48.6a128.66,128.66,0,0,0,17.51-4,125.89,125.89,0,0,0,16.74-6.39l34.37,36a5.78,5.78,0,0,0,7.85.49l35.06-28.75a5.76,5.76,0,0,0,1.91-2.93,9.75,9.75,0,0,0,4.1-2l102.53-84.06a9.95,9.95,0,0,0,1.38-14L643.54,783a10,10,0,0,0-14-1.38l-2.2,1.81-8.16-9.95,7.22-5.93a10,10,0,0,0,1.39-14l-10.22-12.46a10,10,0,0,0-14-1.38L583.4,756.22a76,76,0,0,0,3.66-17.13A76.8,76.8,0,0,0,569.94,683c-1.12-1.36-2.29-2.65-3.48-3.92a5.79,5.79,0,0,0-.78-1.27ZM534.8,890.87l-29.23,24L472,879.73a5.77,5.77,0,0,0-6.79-1.17,115.35,115.35,0,0,1-18.74,7.49,116.68,116.68,0,0,1-19.52,4.14,5.78,5.78,0,0,0-5.29,4.75l-8.44,47.88-34.47-3.41,1.1-48.6a5.78,5.78,0,0,0-4-5.6,115.72,115.72,0,0,1-18.62-8,117.14,117.14,0,0,1-16.6-10.76,5.76,5.76,0,0,0-7.2-.47l-39.8,27.87L271.7,867.1l35.12-33.57a5.77,5.77,0,0,0,1.16-6.79,116.85,116.85,0,0,1-11.63-38.27,5.78,5.78,0,0,0-4.75-5.3l-47.87-8.44,3.41-34.47,48.2,1.09a5.79,5.79,0,0,0,6-4,116.53,116.53,0,0,1,18.73-35.22,5.76,5.76,0,0,0,.45-7.21l-27.87-39.8,26.8-22L353,668.32a5.75,5.75,0,0,0,6.79,1.17,117,117,0,0,1,38.26-11.62,5.79,5.79,0,0,0,5.3-4.75l8.44-47.88,34.47,3.41-1.1,48.6a5.76,5.76,0,0,0,4,5.6,119.71,119.71,0,0,1,12.49,4.92c1.25.59,2.49,1.19,3.71,1.81-1,.77-2,1.55-3,2.37a75.38,75.38,0,0,0-21.06,27.53A80.06,80.06,0,1,0,486.68,803.7a76.49,76.49,0,0,0,34.5,3.51L501,823.74a10,10,0,0,0-1.39,14L508.82,849l-7.22,5.92a10,10,0,0,0-1.38,14l10.21,12.46a10,10,0,0,0,14,1.39l2.2-1.81ZM407.5,733.44h0a23.56,23.56,0,0,0-16.83,4.83l-5.83-7.12a5.76,5.76,0,1,0-8.91,7.31l5.84,7.12a23.56,23.56,0,0,0-8.05,15.56v0A23.52,23.52,0,0,0,394.85,787h0a23.58,23.58,0,0,0,17.31-5.21l8-6.54a12.09,12.09,0,0,1,15.33,18.69l-8,6.54a12.1,12.1,0,0,1-17-1.69,5.79,5.79,0,0,0-8.95,7.34,23.52,23.52,0,0,0,15.95,8.5l0,0a23.65,23.65,0,0,0,16.82-4.85l5.84,7.12a5.76,5.76,0,0,0,8.91-7.3l-5.84-7.12a23.6,23.6,0,0,0,8.05-15.55v-.05a23.69,23.69,0,0,0-.92-9.3c.52.69,1,1.38,1.6,2.06a76.83,76.83,0,0,0,24.07,19.53,67.86,67.86,0,0,1-6.91,13.09,68.34,68.34,0,1,1-100-91.08,67.91,67.91,0,0,1,35-15,68.6,68.6,0,0,1,33.16,4.15,76,76,0,0,0-2.45,13.2,76.92,76.92,0,0,0,8.6,43.32,23.8,23.8,0,0,0-13.32-5.78h0a23.57,23.57,0,0,0-17.31,5.21l-8,6.54a12.09,12.09,0,0,1-15.33-18.7l8-6.53a12.09,12.09,0,0,1,17,1.68,5.79,5.79,0,1,0,8.95-7.34A23.6,23.6,0,0,0,407.5,733.44ZM518.36,872.75l-8.17-10,100-82,8.17,10Zm117.25-81.18,8.16,9.95-100,82-8.15-9.95L627,798.66h0Zm-26-41.92,8.15,10-100,82-8.16-10ZM575.57,738a64.37,64.37,0,0,1-70.72,58,65.58,65.58,0,0,1-58.47-71.3A64.34,64.34,0,0,1,513,666.37l1.91.1,1.15.09c.65.06,1.3.12,1.94.2l1.11.14c.66.09,1.31.18,2,.3.36.06.71.11,1.06.18l2,.4c.35.08.71.17,1.07.24l1.92.48c.37.09.74.19,1.1.3.62.18,1.24.36,1.85.56.39.12.78.24,1.17.38.59.19,1.17.4,1.74.61s.85.31,1.27.47l1.6.66c.46.19.93.39,1.39.61l1.37.63c.53.26,1.06.52,1.59.8.37.17.74.37,1.11.57.62.33,1.23.68,1.85,1l.79.45c.73.44,1.45.89,2.15,1.35l.44.29c.84.56,1.66,1.13,2.47,1.72a.15.15,0,0,0,.07,0A66.43,66.43,0,0,1,561,690.3,65.33,65.33,0,0,1,575.57,738Zm-40.35-79.06-.76-.23c-.85-.29-1.7-.55-2.54-.8-.42-.13-.85-.24-1.28-.35-.8-.22-1.6-.43-2.41-.62l-.52-.14,3.66-2.56Zm-21.87,35.87-5.61,57-14.81-4a5.77,5.77,0,0,0-3,11.14l21.39,5.78a7.55,7.55,0,0,0,1,.16,5.77,5.77,0,0,0,6.29-5.19l6.27-63.79a5.77,5.77,0,0,0-11.48-1.11Zm6.29-5.18a5.77,5.77,0,0,0-6.29,5.18l-5.61,57-14.81-4a5.77,5.77,0,0,0-3,11.14l21.39,5.78a7.55,7.55,0,0,0,1,.16,5.77,5.77,0,0,0,6.29-5.19l6.27-63.79A5.77,5.77,0,0,0,519.64,689.58Z"/><path class="cls-1" d="M1073.79,531.11a21,21,0,0,1-3.55,11.72,20.8,20.8,0,0,1-2.64,3.2L1002.71,611c.91.26,1.81.55,2.69.88s1.76.71,2.61,1.1,1.7.84,2.52,1.31,1.62,1,2.4,1.51,1.53,1.1,2.27,1.69,1.44,1.22,2.13,1.87,1.33,1.34,2,2,1.22,1.43,1.8,2.19,1.11,1.53,1.61,2.32,1,1.62,1.42,2.45.86,1.69,1.23,2.56.71,1.75,1,2.64.56,1.8.79,2.72.42,1.84.58,2.77.27,1.87.35,2.82.12,1.89.13,2.83V855.89q0,1.74-.18,3.45c-.12,1.15-.29,2.28-.52,3.42a32.81,32.81,0,0,1-.84,3.35c-.34,1.09-.73,2.18-1.17,3.24a34.27,34.27,0,0,1-1.48,3.12c-.55,1-1.13,2-1.77,3s-1.33,1.89-2.07,2.78-1.5,1.73-2.31,2.55-1.67,1.58-2.57,2.31a33.14,33.14,0,0,1-2.77,2.06c-1,.64-1.95,1.23-3,1.78s-2.06,1-3.12,1.47-2.15.82-3.25,1.16a31.51,31.51,0,0,1-3.35.83,32.6,32.6,0,0,1-3.41.51c-1.15.11-2.29.17-3.44.17H683.4c-1.15,0-2.3-.06-3.44-.17a32.79,32.79,0,0,1-3.42-.51,32.12,32.12,0,0,1-3.35-.83c-1.1-.34-2.19-.72-3.25-1.16s-2.11-.93-3.12-1.47-2-1.14-3-1.78-1.88-1.33-2.78-2.06-1.74-1.5-2.55-2.31-1.59-1.67-2.33-2.55-1.42-1.82-2.05-2.78a32.68,32.68,0,0,1-1.78-3,31.8,31.8,0,0,1-1.48-3.12c-.44-1.06-.83-2.15-1.17-3.24a32.81,32.81,0,0,1-.84-3.35,36.05,36.05,0,0,1-.69-6.87V644.66c0-1.16.06-2.31.17-3.46s.28-2.28.51-3.41.51-2.25.84-3.36.73-2.18,1.17-3.25.94-2.1,1.48-3.13,1.13-2,1.77-3,1.33-1.88,2.06-2.78a32.92,32.92,0,0,1,2.32-2.55,33.53,33.53,0,0,1,2.57-2.33,32.87,32.87,0,0,1,2.76-2,34.29,34.29,0,0,1,3-1.78,31.8,31.8,0,0,1,3.12-1.48,34,34,0,0,1,3.25-1.17c1.1-.33,2.22-.61,3.35-.84s2.27-.4,3.42-.51a32.94,32.94,0,0,1,3.45-.17h42.2V447.67c0-.69,0-1.38.11-2.07a20.71,20.71,0,0,1,.31-2.05,17.93,17.93,0,0,1,.51-2,19.64,19.64,0,0,1,.69-2c.27-.64.57-1.27.89-1.88a19.81,19.81,0,0,1,1.07-1.77,20.52,20.52,0,0,1,1.23-1.67c.44-.53.9-1,1.39-1.54s1-1,1.54-1.39,1.08-.85,1.66-1.24a19.88,19.88,0,0,1,1.78-1.06c.61-.32,1.24-.63,1.87-.89s1.3-.5,2-.7a17.36,17.36,0,0,1,2-.5,18,18,0,0,1,2-.31,20.7,20.7,0,0,1,2.08-.11H866.37a20.66,20.66,0,0,1,2.07.11,22.57,22.57,0,0,1,4.06.81,18.66,18.66,0,0,1,1.94.7,20.23,20.23,0,0,1,1.88.89c.61.32,1.2.68,1.78,1.06s1.13.81,1.66,1.24,1,.9,1.54,1.39,1,1,1.39,1.54a18.41,18.41,0,0,1,1.23,1.67,17.71,17.71,0,0,1,1.07,1.77c.33.61.61,1.24.89,1.88s.49,1.29.7,2a20.34,20.34,0,0,1,.5,2c.13.68.23,1.37.31,2.05a20.49,20.49,0,0,1,.1,2.07v49.5l65.64-65.68c8-8,21.93-8,29.89,0l84.58,84.7a21.2,21.2,0,0,1,2.64,3.19,21.1,21.1,0,0,1,3.15,7.61A21.15,21.15,0,0,1,1073.79,531.11Z"/><path class="cls-2" d="M788.66,460.38a7.71,7.71,0,0,0-.4-1.32,7.14,7.14,0,0,0-.65-1.22,7.14,7.14,0,0,0-2-1.95,6.83,6.83,0,0,0-1.22-.66,8.36,8.36,0,0,0-1.32-.39,6.31,6.31,0,0,0-1.37-.14h-13.9c-.46,0-.93,0-1.38.07a12.56,12.56,0,0,0-1.37.2c-.45.1-.9.21-1.34.33s-.87.3-1.3.48a11.86,11.86,0,0,0-1.25.59c-.41.22-.8.45-1.19.71s-.75.53-1.11.82-.69.61-1,.93-.63.67-.93,1a12.19,12.19,0,0,0-.82,1.11,11.9,11.9,0,0,0-.71,1.18c-.22.41-.42.82-.6,1.25s-.33.87-.46,1.31-.25.88-.34,1.34-.16.91-.21,1.36-.06.92-.06,1.39v14a7,7,0,0,0,.14,1.38,5.93,5.93,0,0,0,.4,1.32,6.21,6.21,0,0,0,.65,1.22,7.59,7.59,0,0,0,.88,1.07,7.32,7.32,0,0,0,1.06.87,6.24,6.24,0,0,0,1.22.65,6.83,6.83,0,0,0,1.33.41,6.82,6.82,0,0,0,2.75,0,7,7,0,0,0,1.32-.41,6,6,0,0,0,1.22-.65,7.4,7.4,0,0,0,1.07-.87,7,7,0,0,0,.88-1.07,7.48,7.48,0,0,0,.65-1.22,6.51,6.51,0,0,0,.4-1.32,6.34,6.34,0,0,0,.14-1.38l0-14h13.9a7,7,0,0,0,1.37-.14,6.09,6.09,0,0,0,1.32-.4,6.25,6.25,0,0,0,1.22-.66,6.9,6.9,0,0,0,2.6-3.17,7.21,7.21,0,0,0,.4-1.32,6.34,6.34,0,0,0,.14-1.38A6.44,6.44,0,0,0,788.66,460.38Z"/><path class="cls-2" d="M859.27,467.41a12.74,12.74,0,0,0-.2-1.36,11.94,11.94,0,0,0-.34-1.34c-.13-.44-.29-.88-.46-1.31s-.38-.84-.6-1.25-.45-.8-.71-1.18-.53-.75-.83-1.11a12.77,12.77,0,0,0-.92-1c-.33-.32-.66-.64-1-.93s-.74-.57-1.11-.82-.78-.49-1.19-.71a11.86,11.86,0,0,0-1.25-.59c-.42-.18-.86-.34-1.3-.48s-.89-.23-1.34-.33a12.56,12.56,0,0,0-1.37-.2,12.75,12.75,0,0,0-1.38-.07H830.83a6.25,6.25,0,0,0-1.37.14,6.59,6.59,0,0,0-2.55,1.05,6.93,6.93,0,0,0-1.94,1.95,7.19,7.19,0,0,0-.66,1.22,7.68,7.68,0,0,0-.39,1.32,7.16,7.16,0,0,0-.14,1.37,7,7,0,0,0,.14,1.38,7.19,7.19,0,0,0,.39,1.32,6.92,6.92,0,0,0,.66,1.23,8.13,8.13,0,0,0,.87,1.07,7.4,7.4,0,0,0,1.07.87,6.88,6.88,0,0,0,1.22.66,6.18,6.18,0,0,0,1.33.4,6.92,6.92,0,0,0,1.37.14l14.4,0v14a7.87,7.87,0,0,0,.13,1.38,6.53,6.53,0,0,0,.41,1.32,7.23,7.23,0,0,0,.65,1.23,6.44,6.44,0,0,0,.88,1.06,7.12,7.12,0,0,0,3.61,1.94,7.09,7.09,0,0,0,1.38.13,6.69,6.69,0,0,0,2.69-.54,5.94,5.94,0,0,0,1.22-.65,6.49,6.49,0,0,0,1.08-.88,7.62,7.62,0,0,0,.88-1.06,9,9,0,0,0,.65-1.23,6.49,6.49,0,0,0,.39-1.32,6.34,6.34,0,0,0,.14-1.38v-14C859.34,468.33,859.31,467.88,859.27,467.41Z"/><path class="cls-2" d="M1073.39,527a21.1,21.1,0,0,0-3.15-7.61,21.2,21.2,0,0,0-2.64-3.19L983,431.49c-8-8-21.9-8-29.89,0l-65.64,65.68v-49.5a20.49,20.49,0,0,0-.1-2.07c-.08-.68-.18-1.37-.31-2.05a20.34,20.34,0,0,0-.5-2c-.21-.66-.43-1.31-.7-2s-.56-1.27-.89-1.88a17.71,17.71,0,0,0-1.07-1.77,18.41,18.41,0,0,0-1.23-1.67c-.44-.53-.91-1-1.39-1.54s-1-1-1.54-1.39-1.09-.85-1.66-1.24-1.17-.74-1.78-1.06a20.23,20.23,0,0,0-1.88-.89,18.66,18.66,0,0,0-1.94-.7,22.57,22.57,0,0,0-4.06-.81,20.66,20.66,0,0,0-2.07-.11H746.74a20.7,20.7,0,0,0-2.08.11,18,18,0,0,0-2,.31,17.36,17.36,0,0,0-2,.5c-.66.2-1.31.43-2,.7s-1.26.57-1.87.89A19.88,19.88,0,0,0,735,430.1c-.58.39-1.13.81-1.66,1.24s-1.05.9-1.54,1.39-.95,1-1.39,1.54a20.52,20.52,0,0,0-1.23,1.67,19.81,19.81,0,0,0-1.07,1.77c-.32.61-.62,1.24-.89,1.88a19.64,19.64,0,0,0-.69,2,17.93,17.93,0,0,0-.51,2,20.71,20.71,0,0,0-.31,2.05c-.06.69-.11,1.38-.11,2.07V609.43H683.4a32.94,32.94,0,0,0-3.45.17c-1.15.11-2.29.29-3.42.51s-2.25.51-3.35.84a34,34,0,0,0-3.25,1.17,31.8,31.8,0,0,0-3.12,1.48,34.29,34.29,0,0,0-3,1.78,32.87,32.87,0,0,0-2.76,2,33.53,33.53,0,0,0-2.57,2.33,32.92,32.92,0,0,0-2.32,2.55c-.73.9-1.41,1.82-2.06,2.78s-1.23,1.95-1.77,3-1,2.07-1.48,3.13-.83,2.15-1.17,3.25-.62,2.22-.84,3.36-.39,2.26-.51,3.41-.17,2.3-.17,3.46V855.89a35.62,35.62,0,0,0,1.53,10.22c.34,1.09.73,2.18,1.17,3.24a31.8,31.8,0,0,0,1.48,3.12,32.68,32.68,0,0,0,1.78,3c.63,1,1.33,1.89,2.05,2.78s1.51,1.73,2.33,2.55,1.67,1.58,2.55,2.31,1.82,1.42,2.78,2.06,1.94,1.23,3,1.78,2.06,1,3.12,1.47,2.15.82,3.25,1.16a32.12,32.12,0,0,0,3.35.83,32.79,32.79,0,0,0,3.42.51c1.14.11,2.29.17,3.44.17H993c1.15,0,2.29-.06,3.44-.17a32.6,32.6,0,0,0,3.41-.51,31.51,31.51,0,0,0,3.35-.83c1.1-.34,2.18-.72,3.25-1.16s2.11-.93,3.12-1.47,2-1.14,3-1.78a33.14,33.14,0,0,0,2.77-2.06c.9-.73,1.75-1.5,2.57-2.31s1.59-1.67,2.31-2.55,1.42-1.82,2.07-2.78,1.22-1.94,1.77-3a34.27,34.27,0,0,0,1.48-3.12c.44-1.06.83-2.15,1.17-3.24a32.81,32.81,0,0,0,.84-3.35c.23-1.14.4-2.27.52-3.42s.17-2.29.18-3.45V644.66c0-.94,0-1.89-.13-2.83s-.2-1.89-.35-2.82-.35-1.85-.58-2.77-.5-1.83-.79-2.72-.65-1.78-1-2.64-.79-1.73-1.23-2.56-.91-1.65-1.42-2.45-1-1.57-1.61-2.32-1.18-1.49-1.8-2.19-1.3-1.39-2-2-1.4-1.28-2.13-1.87-1.49-1.16-2.27-1.69-1.58-1-2.4-1.51-1.66-.9-2.52-1.31-1.72-.77-2.61-1.1-1.78-.62-2.69-.88L1067.6,546a20.8,20.8,0,0,0,2.64-3.2,21.19,21.19,0,0,0,3.15-15.84Zm-185.9-9.86,75.62-75.65a7.26,7.26,0,0,1,1.07-.85,7,7,0,0,1,1.22-.62,7.22,7.22,0,0,1,1.3-.39,7.74,7.74,0,0,1,1.36-.13,6.72,6.72,0,0,1,1.35.13,7.07,7.07,0,0,1,1.31.38,7,7,0,0,1,1.22.61,8.1,8.1,0,0,1,1.09.84l5,5L887.49,537Zm0,39.86L988,456.46l9.93,10L887.49,576.87ZM739.72,447.67a7.16,7.16,0,0,1,1.18-3.89,8.13,8.13,0,0,1,.87-1.07,7.4,7.4,0,0,1,1.07-.87,7.48,7.48,0,0,1,1.22-.65,7.35,7.35,0,0,1,1.31-.4,6.92,6.92,0,0,1,1.37-.13H866.37a7,7,0,0,1,1.36.13,7.71,7.71,0,0,1,1.32.4,7.82,7.82,0,0,1,1.21.65,6.82,6.82,0,0,1,1.06.87,7.4,7.4,0,0,1,.87,1.07,6.42,6.42,0,0,1,.65,1.21,7.18,7.18,0,0,1,.54,2.68V609.43H739.72ZM1014.11,789H950.8c-2.86,0-7-5.18-7-13.29V724.83c0-8.12,4.16-13.3,7-13.3h63.31ZM1003,626.05a19.07,19.07,0,0,1,1.78,1.07c.57.38,1.13.79,1.66,1.22a20.31,20.31,0,0,1,1.53,1.4,20,20,0,0,1,1.39,1.53c.44.53.85,1.09,1.24,1.66s.74,1.17,1.06,1.78a18,18,0,0,1,.89,1.88c.26.63.5,1.28.7,1.94s.36,1.33.5,2a20.25,20.25,0,0,1,.3,2.05,17.94,17.94,0,0,1,.11,2.07v6.56h-13a8,8,0,0,0-1.38.13,6.83,6.83,0,0,0-1.33.41,6.42,6.42,0,0,0-1.21.65,6.51,6.51,0,0,0-1.07.88,6.42,6.42,0,0,0-.88,1.07,6.79,6.79,0,0,0-.65,1.22,7.33,7.33,0,0,0-.41,1.33,7.79,7.79,0,0,0-.12,1.38,7.93,7.93,0,0,0,.12,1.37,7.75,7.75,0,0,0,.41,1.32,6.79,6.79,0,0,0,.65,1.22,6.42,6.42,0,0,0,.88,1.07,6.51,6.51,0,0,0,1.07.88,7.1,7.1,0,0,0,1.21.66,6.77,6.77,0,0,0,1.33.39,6.41,6.41,0,0,0,1.38.15h13v32.06H950.8c-11.85,0-21.13,12-21.13,27.42v50.83c0,15.37,9.28,27.4,21.13,27.4h63.31v32.08h-13a7.09,7.09,0,0,0-1.38.13,8.51,8.51,0,0,0-1.33.4,7.82,7.82,0,0,0-1.21.65,6.57,6.57,0,0,0-1.07.89,6,6,0,0,0-.88,1.07,6.7,6.7,0,0,0-.65,1.21,6.55,6.55,0,0,0-.53,2.7,8.07,8.07,0,0,0,.12,1.39,7.75,7.75,0,0,0,.41,1.32,7.14,7.14,0,0,0,.65,1.22,6.86,6.86,0,0,0,.88,1.07,6.51,6.51,0,0,0,1.07.88,7.82,7.82,0,0,0,1.21.65,7.59,7.59,0,0,0,1.33.41,8,8,0,0,0,1.38.13h13v6.63A20.15,20.15,0,0,1,1014,858a17.16,17.16,0,0,1-.31,2,19.48,19.48,0,0,1-.5,2c-.21.66-.44,1.31-.7,2s-.57,1.26-.89,1.87a21.17,21.17,0,0,1-2.31,3.43,18,18,0,0,1-1.38,1.52c-.49.49-1,1-1.53,1.4s-1.09.84-1.66,1.22a17.91,17.91,0,0,1-1.79,1.06,19.87,19.87,0,0,1-1.86.89q-1,.39-2,.69a20,20,0,0,1-2,.5c-.69.14-1.37.23-2,.3a17.87,17.87,0,0,1-2.06.1H683.4a17.93,17.93,0,0,1-2.07-.1,20.48,20.48,0,0,1-2-.3,19.48,19.48,0,0,1-2-.5c-.66-.2-1.31-.43-2-.69s-1.25-.56-1.86-.89a16.56,16.56,0,0,1-1.77-1.06c-.58-.38-1.13-.79-1.67-1.22s-1-.91-1.53-1.4a18.14,18.14,0,0,1-1.39-1.52,22,22,0,0,1-2.3-3.43c-.33-.61-.62-1.24-.89-1.87s-.49-1.29-.7-2a19.48,19.48,0,0,1-.5-2,15.35,15.35,0,0,1-.31-2,20.15,20.15,0,0,1-.11-2.06v-6.63h21.77a6.69,6.69,0,0,0,2.7-.54,7.82,7.82,0,0,0,1.21-.65,7,7,0,0,0,1.08-.88,9.1,9.1,0,0,0,.88-1.07,7.92,7.92,0,0,0,.65-1.22,6.24,6.24,0,0,0,.39-1.32,6.49,6.49,0,0,0,.14-1.39,7.54,7.54,0,0,0-.53-2.7,7.39,7.39,0,0,0-.65-1.21,7.71,7.71,0,0,0-.88-1.07,7.1,7.1,0,0,0-1.08-.89,7.82,7.82,0,0,0-1.21-.65,9.09,9.09,0,0,0-1.32-.4,7.16,7.16,0,0,0-1.38-.13H662.3V665.35h21.77a6.48,6.48,0,0,0,1.38-.15,7.15,7.15,0,0,0,3.61-1.93,8.35,8.35,0,0,0,.88-1.07,7.48,7.48,0,0,0,.65-1.22,6.24,6.24,0,0,0,.39-1.32,6.37,6.37,0,0,0,.14-1.37,6.27,6.27,0,0,0-.14-1.38,6,6,0,0,0-.39-1.33,7.48,7.48,0,0,0-.65-1.22,8.35,8.35,0,0,0-.88-1.07,7,7,0,0,0-1.08-.88,6.42,6.42,0,0,0-1.21-.65,7.18,7.18,0,0,0-1.32-.41,8.06,8.06,0,0,0-1.38-.13H662.3v-6.56c0-.69,0-1.38.1-2.07a20.28,20.28,0,0,1,.31-2.05,19.67,19.67,0,0,1,.5-2c.21-.66.44-1.31.71-1.94a17.89,17.89,0,0,1,.88-1.88c.33-.61.68-1.2,1.06-1.78a19.89,19.89,0,0,1,1.24-1.66c.44-.53.89-1,1.38-1.53s1-1,1.54-1.4a20.25,20.25,0,0,1,1.66-1.22,17.85,17.85,0,0,1,1.78-1.07,20.12,20.12,0,0,1,1.87-.9c.64-.25,1.29-.49,1.95-.69s1.33-.36,2-.51,1.36-.23,2.05-.3a20.49,20.49,0,0,1,2.07-.1c68.71.37,287.28,0,309.62,0a20.43,20.43,0,0,1,2.06.1c.68.07,1.37.17,2,.3s1.34.31,2,.51a20.46,20.46,0,0,1,2,.7A18.8,18.8,0,0,1,1003,626.05Zm56.59-93.58a6,6,0,0,1-.4,1.31,6.42,6.42,0,0,1-.65,1.21,6.65,6.65,0,0,1-.87,1l-73.33,73.39h-96.8v-12.6l120.4-120.46,49.73,49.81a6.22,6.22,0,0,1,.87,1.05,6.13,6.13,0,0,1,.65,1.21,5.85,5.85,0,0,1,.4,1.31,6.68,6.68,0,0,1,0,2.72Z"/><path class="cls-2" d="M806.56,532.14c-26.1,0-45.77,12.12-45.77,28.19s19.67,28.18,45.77,28.18,45.74-12.11,45.74-28.18S832.63,532.14,806.56,532.14Zm0,42.25c-19.33,0-31.66-8.33-31.66-14.06s12.33-14.06,31.66-14.06,31.63,8.33,31.63,14.06S825.87,574.39,806.56,574.39Z"/><path class="cls-2" d="M1000,748.18a20,20,0,0,0-.3-2.06q-.21-1-.51-2a19,19,0,0,0-.7-2c-.26-.64-.56-1.26-.88-1.87a20,20,0,0,0-1.07-1.78c-.38-.57-.8-1.13-1.24-1.67a18.32,18.32,0,0,0-1.38-1.53c-.5-.49-1-1-1.54-1.4a23.24,23.24,0,0,0-3.45-2.31c-.6-.32-1.23-.61-1.87-.89s-1.29-.49-1.95-.69-1.33-.37-2-.51-1.36-.23-2.05-.3a20.21,20.21,0,0,0-2.07-.1,20.49,20.49,0,0,0-2.07.1c-.68.07-1.37.17-2,.3s-1.35.31-2,.51-1.32.43-2,.69-1.26.57-1.87.89a19.9,19.9,0,0,0-1.77,1.08,18.31,18.31,0,0,0-1.67,1.22c-.54.45-1,.92-1.54,1.4a20.33,20.33,0,0,0-1.39,1.54c-.44.54-.85,1.09-1.24,1.67s-.73,1.16-1.06,1.78a16.73,16.73,0,0,0-.88,1.87c-.27.64-.5,1.29-.71,2s-.37,1.34-.5,2-.24,1.37-.31,2.06a20.55,20.55,0,0,0-.1,2.08c0,.68,0,1.38.1,2.06s.18,1.38.31,2.06.31,1.34.5,2,.44,1.31.71,1.94a20.16,20.16,0,0,0,.88,1.88c.33.61.69,1.2,1.07,1.78a18.26,18.26,0,0,0,1.23,1.66,18.68,18.68,0,0,0,1.4,1.54c.49.49,1,1,1.53,1.4a22.75,22.75,0,0,0,3.44,2.3c.62.33,1.24.62,1.87.88s1.29.5,1.95.71a20.53,20.53,0,0,0,2,.5,20.09,20.09,0,0,0,2,.31c.7.07,1.39.1,2.07.1a20.55,20.55,0,0,0,2.08-.1,17.77,17.77,0,0,0,2.05-.3,17.4,17.4,0,0,0,2-.51c.66-.2,1.31-.43,2-.7s1.26-.56,1.87-.88,1.21-.68,1.78-1.07a20,20,0,0,0,1.67-1.24c.53-.44,1-.9,1.54-1.39s.94-1,1.38-1.53a18.51,18.51,0,0,0,1.24-1.67,20,20,0,0,0,1.07-1.78c.32-.61.62-1.24.88-1.88a18,18,0,0,0,.7-2q.3-1,.51-2c.13-.68.23-1.37.3-2.06a21.37,21.37,0,0,0,0-4.13Zm-14.14,3.43a7.45,7.45,0,0,1-.4,1.32,8.41,8.41,0,0,1-.65,1.22,6.74,6.74,0,0,1-.87,1.05,7,7,0,0,1-1.07.88,5.85,5.85,0,0,1-1.21.64,6.93,6.93,0,0,1-2.69.55,7.08,7.08,0,0,1-1.37-.14,6.85,6.85,0,0,1-1.31-.41,5.93,5.93,0,0,1-1.22-.64,8,8,0,0,1-1.06-.87,7.32,7.32,0,0,1-.87-1.06,6.5,6.5,0,0,1-.65-1.22,6.7,6.7,0,0,1-.4-1.32,7,7,0,0,1-.14-1.36,7.1,7.1,0,0,1,.14-1.38,7.35,7.35,0,0,1,.4-1.31,6.5,6.5,0,0,1,.65-1.22,6.82,6.82,0,0,1,.87-1.06,7.39,7.39,0,0,1,1.06-.88,8.3,8.3,0,0,1,1.21-.65,8,8,0,0,1,1.32-.39,6.28,6.28,0,0,1,1.36-.14,6.18,6.18,0,0,1,1.37.14,5.91,5.91,0,0,1,1.32.39,7.14,7.14,0,0,1,1.22.65,6.82,6.82,0,0,1,1.06.87,8,8,0,0,1,.88,1.06,8.35,8.35,0,0,1,.64,1.22,7.75,7.75,0,0,1,.41,1.32,7.28,7.28,0,0,1,0,2.74Z"/><path class="cls-2" d="M863.92,656.91a7.29,7.29,0,0,0-.39-1.33,6.83,6.83,0,0,0-.66-1.22,7,7,0,0,0-.88-1.07,7.12,7.12,0,0,0-3.61-1.94,7.85,7.85,0,0,0-1.37-.13H828.22a8.06,8.06,0,0,0-1.38.13,7,7,0,0,0-1.32.41,5.94,5.94,0,0,0-1.22.65,7,7,0,0,0-1.08.88,7.16,7.16,0,0,0-1.52,2.29,6.6,6.6,0,0,0-.4,1.33,6.27,6.27,0,0,0-.14,1.38,6.37,6.37,0,0,0,.14,1.37,6.91,6.91,0,0,0,.4,1.32,7.16,7.16,0,0,0,1.52,2.29,7,7,0,0,0,1.08.88,6.5,6.5,0,0,0,1.22.66,6.88,6.88,0,0,0,1.32.39,6.48,6.48,0,0,0,1.38.15H857a6.32,6.32,0,0,0,1.37-.15,6.77,6.77,0,0,0,1.33-.39,7.59,7.59,0,0,0,1.22-.66,6.88,6.88,0,0,0,1.06-.88,7,7,0,0,0,.88-1.07,6.83,6.83,0,0,0,.66-1.22,7.68,7.68,0,0,0,.39-1.32,6.37,6.37,0,0,0,.14-1.37A6.27,6.27,0,0,0,863.92,656.91Z"/><path class="cls-2" d="M921.58,656.91a7.33,7.33,0,0,0-.41-1.33,7.48,7.48,0,0,0-.65-1.22,7,7,0,0,0-.88-1.07,7.39,7.39,0,0,0-1.06-.88,7.51,7.51,0,0,0-2.55-1.06,8,8,0,0,0-1.38-.13H885.87a8,8,0,0,0-1.38.13,7.29,7.29,0,0,0-2.55,1.06,7.47,7.47,0,0,0-1.07.88,6.9,6.9,0,0,0-.87,1.07,6.21,6.21,0,0,0-.65,1.22,6.62,6.62,0,0,0-.41,1.33,7.78,7.78,0,0,0-.13,1.38,7.94,7.94,0,0,0,.13,1.37,7,7,0,0,0,.41,1.32,6.21,6.21,0,0,0,.65,1.22,6.9,6.9,0,0,0,.87,1.07,7.47,7.47,0,0,0,1.07.88,7.59,7.59,0,0,0,1.22.66,6.77,6.77,0,0,0,1.33.39,6.41,6.41,0,0,0,1.38.15h28.78a6.41,6.41,0,0,0,1.38-.15,6.49,6.49,0,0,0,1.32-.39,7.28,7.28,0,0,0,1.23-.66,7.39,7.39,0,0,0,1.06-.88,7,7,0,0,0,.88-1.07,7.48,7.48,0,0,0,.65-1.22,7.75,7.75,0,0,0,.41-1.32,7.94,7.94,0,0,0,.13-1.37A7.78,7.78,0,0,0,921.58,656.91Z"/><path class="cls-2" d="M748.63,656.91a7.31,7.31,0,0,0-.4-1.33,6.21,6.21,0,0,0-.65-1.22,7.14,7.14,0,0,0-2-2,6.21,6.21,0,0,0-1.22-.65,6.73,6.73,0,0,0-1.32-.41,7.87,7.87,0,0,0-1.38-.13H712.93a7.87,7.87,0,0,0-1.38.13,6.83,6.83,0,0,0-1.33.41,6.13,6.13,0,0,0-1.21.65,6.51,6.51,0,0,0-1.07.88,6.42,6.42,0,0,0-.88,1.07,7.53,7.53,0,0,0-.66,1.22,8.2,8.2,0,0,0-.4,1.33,7,7,0,0,0-.13,1.38,7.06,7.06,0,0,0,.13,1.37,8.73,8.73,0,0,0,.4,1.32,7.53,7.53,0,0,0,.66,1.22,6.42,6.42,0,0,0,.88,1.07,6.51,6.51,0,0,0,1.07.88,6.47,6.47,0,0,0,2.54,1.05,6.34,6.34,0,0,0,1.38.15h28.78a6.34,6.34,0,0,0,1.38-.15,6.68,6.68,0,0,0,1.32-.39,6.83,6.83,0,0,0,1.22-.66,7.14,7.14,0,0,0,2-1.95,6.21,6.21,0,0,0,.65-1.22,7.71,7.71,0,0,0,.4-1.32,7.08,7.08,0,0,0,.14-1.37A6.94,6.94,0,0,0,748.63,656.91Z"/><path class="cls-2" d="M806.28,656.91a6.6,6.6,0,0,0-.4-1.33,7.48,7.48,0,0,0-.65-1.22,7,7,0,0,0-.88-1.07,7.47,7.47,0,0,0-1.07-.88,6.5,6.5,0,0,0-1.22-.65,7,7,0,0,0-1.32-.41,8.06,8.06,0,0,0-1.38-.13H770.57a7.67,7.67,0,0,0-1.37.13,6.83,6.83,0,0,0-1.33.41,6.5,6.5,0,0,0-1.22.65,6.93,6.93,0,0,0-1.94,2,6.25,6.25,0,0,0-.66,1.22,6.6,6.6,0,0,0-.4,1.33,6.94,6.94,0,0,0-.14,1.38,7.08,7.08,0,0,0,.14,1.37,6.91,6.91,0,0,0,.4,1.32,6.25,6.25,0,0,0,.66,1.22,6.93,6.93,0,0,0,1.94,1.95,7.19,7.19,0,0,0,1.22.66,6.77,6.77,0,0,0,1.33.39,6.19,6.19,0,0,0,1.37.15h28.79a6.48,6.48,0,0,0,1.38-.15,6.88,6.88,0,0,0,1.32-.39,7.19,7.19,0,0,0,1.22-.66,7.47,7.47,0,0,0,1.07-.88,7,7,0,0,0,.88-1.07,7.48,7.48,0,0,0,.65-1.22,6.91,6.91,0,0,0,.4-1.32,7.08,7.08,0,0,0,.14-1.37A6.94,6.94,0,0,0,806.28,656.91Z"/><path class="cls-2" d="M979.22,656.91a6.6,6.6,0,0,0-.4-1.33,6.79,6.79,0,0,0-.65-1.22,7.59,7.59,0,0,0-.88-1.07,7.47,7.47,0,0,0-1.07-.88,6.5,6.5,0,0,0-1.22-.65,7,7,0,0,0-1.32-.41,8.06,8.06,0,0,0-1.38-.13H943.51a8.06,8.06,0,0,0-1.38.13,6.64,6.64,0,0,0-1.31.41,6.29,6.29,0,0,0-1.23.65,7.47,7.47,0,0,0-1.07.88,7,7,0,0,0-.88,1.07,6.79,6.79,0,0,0-.65,1.22,7.31,7.31,0,0,0-.4,1.33,6.94,6.94,0,0,0-.14,1.38,7.08,7.08,0,0,0,.14,1.37A7.71,7.71,0,0,0,937,661a6.79,6.79,0,0,0,.65,1.22,7,7,0,0,0,.88,1.07,7.47,7.47,0,0,0,1.07.88,6.92,6.92,0,0,0,1.23.66,6.59,6.59,0,0,0,1.31.39,6.48,6.48,0,0,0,1.38.15H972.3a6.48,6.48,0,0,0,1.38-.15,6.88,6.88,0,0,0,1.32-.39,7.19,7.19,0,0,0,1.22-.66,7.47,7.47,0,0,0,1.07-.88,7.59,7.59,0,0,0,.88-1.07,6.79,6.79,0,0,0,.65-1.22,6.91,6.91,0,0,0,.4-1.32,7.06,7.06,0,0,0,.13-1.37A7,7,0,0,0,979.22,656.91Z"/><path class="cls-2" d="M921.58,840.82a7.86,7.86,0,0,0-.41-1.33,7.39,7.39,0,0,0-.65-1.21,6.51,6.51,0,0,0-.88-1.07,7.46,7.46,0,0,0-1.06-.89,7.23,7.23,0,0,0-2.55-1.05,7.09,7.09,0,0,0-1.38-.13H885.87a7.09,7.09,0,0,0-1.38.13,8.51,8.51,0,0,0-1.33.4,8.41,8.41,0,0,0-1.22.65,7.54,7.54,0,0,0-1.07.89,6.46,6.46,0,0,0-.87,1.07,6.13,6.13,0,0,0-.65,1.21,7,7,0,0,0-.41,1.33,7.94,7.94,0,0,0-.13,1.37,8.08,8.08,0,0,0,.13,1.39,7,7,0,0,0,.41,1.32,6.5,6.5,0,0,0,.65,1.22,6.93,6.93,0,0,0,1.94,2,8.41,8.41,0,0,0,1.22.65,7.59,7.59,0,0,0,1.33.41,8,8,0,0,0,1.38.13h28.78a8,8,0,0,0,1.38-.13,7.23,7.23,0,0,0,1.32-.41,8,8,0,0,0,1.23-.65,7.39,7.39,0,0,0,1.06-.88,7.47,7.47,0,0,0,.88-1.07,7.92,7.92,0,0,0,.65-1.22,7.75,7.75,0,0,0,.41-1.32,8.08,8.08,0,0,0,.13-1.39A7.94,7.94,0,0,0,921.58,840.82Z"/><path class="cls-2" d="M863.92,840.82a7.79,7.79,0,0,0-.39-1.33,6.74,6.74,0,0,0-.66-1.21,6.51,6.51,0,0,0-.88-1.07,6.94,6.94,0,0,0-1.06-.89,8.41,8.41,0,0,0-1.22-.65,8.51,8.51,0,0,0-1.33-.4,7,7,0,0,0-1.37-.13H828.22a7.16,7.16,0,0,0-1.38.13,8.73,8.73,0,0,0-1.32.4,7,7,0,0,0-2.3,1.54,7,7,0,0,0-.87,1.07,7.39,7.39,0,0,0-.65,1.21,7,7,0,0,0-.4,1.33,6.37,6.37,0,0,0-.14,1.37,6.49,6.49,0,0,0,.14,1.39,6.91,6.91,0,0,0,.4,1.32,7.92,7.92,0,0,0,.65,1.22,8.13,8.13,0,0,0,.87,1.07,7.16,7.16,0,0,0,2.3,1.53,7.75,7.75,0,0,0,1.32.41,8.06,8.06,0,0,0,1.38.13H857a7.85,7.85,0,0,0,1.37-.13,7.59,7.59,0,0,0,1.33-.41,8.41,8.41,0,0,0,1.22-.65,6.88,6.88,0,0,0,1.06-.88,7.47,7.47,0,0,0,.88-1.07,7.19,7.19,0,0,0,.66-1.22,7.68,7.68,0,0,0,.39-1.32,6.49,6.49,0,0,0,.14-1.39A6.37,6.37,0,0,0,863.92,840.82Z"/><path class="cls-2" d="M979.22,840.82a7,7,0,0,0-.4-1.33,6.7,6.7,0,0,0-.65-1.21,7.06,7.06,0,0,0-.88-1.07,7.54,7.54,0,0,0-1.07-.89,7.92,7.92,0,0,0-1.22-.65,8.73,8.73,0,0,0-1.32-.4,7.16,7.16,0,0,0-1.38-.13H943.51a7.16,7.16,0,0,0-1.38.13,8.27,8.27,0,0,0-1.31.4,6.71,6.71,0,0,0-2.3,1.54,6.51,6.51,0,0,0-.88,1.07,6.7,6.7,0,0,0-.65,1.21,7.82,7.82,0,0,0-.4,1.33,7.08,7.08,0,0,0-.14,1.37,7.2,7.2,0,0,0,.14,1.39,7.71,7.71,0,0,0,.4,1.32,7.14,7.14,0,0,0,.65,1.22,7.14,7.14,0,0,0,2,2,7.58,7.58,0,0,0,1.23.65,7.38,7.38,0,0,0,1.31.41,8.06,8.06,0,0,0,1.38.13H972.3a8.06,8.06,0,0,0,1.38-.13,7.75,7.75,0,0,0,1.32-.41,7.92,7.92,0,0,0,1.22-.65,7.47,7.47,0,0,0,1.07-.88,8.21,8.21,0,0,0,.88-1.07,7.14,7.14,0,0,0,.65-1.22,6.91,6.91,0,0,0,.4-1.32,7.19,7.19,0,0,0,.13-1.39A7.06,7.06,0,0,0,979.22,840.82Z"/><path class="cls-2" d="M748.63,840.82a7.82,7.82,0,0,0-.4-1.33,6.13,6.13,0,0,0-.65-1.21,6.51,6.51,0,0,0-.88-1.07,7,7,0,0,0-1.07-.89,7.48,7.48,0,0,0-1.22-.65,8.39,8.39,0,0,0-1.32-.4,7,7,0,0,0-1.38-.13H712.93a7,7,0,0,0-1.38.13,8.51,8.51,0,0,0-1.33.4,7.39,7.39,0,0,0-1.21.65,6.57,6.57,0,0,0-1.07.89,6,6,0,0,0-.88,1.07,7.43,7.43,0,0,0-.66,1.21,8.85,8.85,0,0,0-.4,1.33,7.06,7.06,0,0,0-.13,1.37,7.19,7.19,0,0,0,.13,1.39,8.73,8.73,0,0,0,.4,1.32,8,8,0,0,0,.66,1.22,6.86,6.86,0,0,0,.88,1.07,6.51,6.51,0,0,0,1.07.88,7.39,7.39,0,0,0,1.21.65,7.59,7.59,0,0,0,1.33.41,7.87,7.87,0,0,0,1.38.13h28.78a7.87,7.87,0,0,0,1.38-.13,7.35,7.35,0,0,0,2.54-1.06,7,7,0,0,0,1.07-.88,7.47,7.47,0,0,0,.88-1.07,6.5,6.5,0,0,0,.65-1.22,7.71,7.71,0,0,0,.4-1.32,7.2,7.2,0,0,0,.14-1.39A7.08,7.08,0,0,0,748.63,840.82Z"/><path class="cls-2" d="M806.28,840.82a7,7,0,0,0-.4-1.33,7.39,7.39,0,0,0-.65-1.21,6.51,6.51,0,0,0-.88-1.07,7.54,7.54,0,0,0-1.07-.89,7.92,7.92,0,0,0-1.22-.65,8.73,8.73,0,0,0-1.32-.4,7.16,7.16,0,0,0-1.38-.13H770.57a6.85,6.85,0,0,0-1.37.13,8.51,8.51,0,0,0-1.33.4,7.92,7.92,0,0,0-1.22.65,7,7,0,0,0-1.07.89,6.46,6.46,0,0,0-.87,1.07,6.17,6.17,0,0,0-.66,1.21,7.28,7.28,0,0,0-.54,2.7,7.2,7.2,0,0,0,.14,1.39,6.91,6.91,0,0,0,.4,1.32,6.55,6.55,0,0,0,.66,1.22,7.4,7.4,0,0,0,.87,1.07,7,7,0,0,0,1.07.88,7.92,7.92,0,0,0,1.22.65,7.59,7.59,0,0,0,1.33.41,7.67,7.67,0,0,0,1.37.13h28.79a8.06,8.06,0,0,0,1.38-.13,7.75,7.75,0,0,0,1.32-.41,7.92,7.92,0,0,0,1.22-.65,7.14,7.14,0,0,0,2-2,7.92,7.92,0,0,0,.65-1.22,6.91,6.91,0,0,0,.4-1.32,7.2,7.2,0,0,0,.14-1.39A7.08,7.08,0,0,0,806.28,840.82Z"/><path class="cls-1" d="M827,696.18v61.89c0,14.4-6.72,27.92-18.67,39.81a5.7,5.7,0,0,1-.89.88,102.09,102.09,0,0,1-7.93,6.89v33.62c0,25.13-20.43,47.53-53.45,63.41C714.3,918,670.57,927.39,622.41,927.39S530.54,918,498.78,902.68c-33-15.89-53.44-38.28-53.44-63.41V777.38a49.93,49.93,0,0,1,7.7-26.1,76.72,76.72,0,0,1,14.85-17.37A116.58,116.58,0,0,1,446,717.56a5.45,5.45,0,0,1-.87-.86c-12-11.89-18.67-25.4-18.67-39.81V615c0-25.13,20.43-47.52,53.44-63.41,31.76-15.25,75.49-24.71,123.65-24.71s91.87,9.46,123.63,24.73c33,15.87,53.45,38.27,53.45,63.4v21.41c13.89,7.5,25.16,16.25,33.08,25.88C822.28,672.69,827,684.12,827,696.18Z"/><path class="cls-2" d="M707.77,567.68c-26.78-11-63.64-17.86-104.21-17.86s-77.44,6.83-104.22,17.86C471,579.33,453.52,596,453.52,615s17.51,35.66,45.82,47.32c26.78,11,63.64,17.86,104.22,17.86s77.43-6.83,104.21-17.86c28.3-11.66,45.82-28.36,45.82-47.32S736.07,579.33,707.77,567.68Zm-4.34,84.08c-25.44,10.48-60.75,17-99.87,17s-74.44-6.48-99.89-17C479.75,641.91,465,628.88,465,615s14.8-26.91,38.72-36.76c25.45-10.47,60.75-17,99.89-17s74.43,6.48,99.87,17c23.93,9.85,38.72,22.89,38.72,36.76S727.36,641.91,703.43,651.76Zm110.29,10.53c-7.92-9.63-19.19-18.38-33.08-25.88V615c0-25.13-20.43-47.53-53.45-63.4-31.76-15.27-75.48-24.73-123.63-24.73s-91.89,9.46-123.65,24.71c-33,15.89-53.44,38.28-53.44,63.41v61.9c0,14.41,6.71,27.92,18.67,39.81a5.45,5.45,0,0,0,.87.86,116.58,116.58,0,0,0,21.88,16.35A76.72,76.72,0,0,0,453,751.28a49.93,49.93,0,0,0-7.7,26.1v61.89c0,25.13,20.43,47.52,53.44,63.41,31.76,15.27,75.48,24.71,123.63,24.71S714.3,918,746.05,902.68c33-15.88,53.45-38.28,53.45-63.41V805.65a102.09,102.09,0,0,0,7.93-6.89,5.7,5.7,0,0,0,.89-.88C820.27,786,827,772.47,827,758.07V696.18C827,684.12,822.28,672.69,813.72,662.29Zm-42.54,43.45c.22-.31.41-.62.6-.91.34-.51.66-1,1-1.54.12-.21.26-.43.38-.65.38-.64.76-1.28,1.11-1.92.07-.12.14-.24.2-.36a52,52,0,0,0,4.88-12.63,1.47,1.47,0,0,0,.06-.27c.17-.74.32-1.47.47-2.21,0-.18.07-.36.09-.54.11-.65.22-1.3.3-2l.09-.68.06-.65c0-.21,0-.42.06-.64s0-.42,0-.63,0-.45,0-.68,0-.28,0-.42,0-.11,0-.16a36.15,36.15,0,0,1,3.94,5,22.49,22.49,0,0,1,4,12.3c0,13.56-14.16,26.33-37.18,36.12a185.4,185.4,0,0,1-25,8.42c.7-.33,1.37-.67,2-1l.6-.3c1.08-.53,2.14-1.07,3.2-1.62l.06-.05h0a143.68,143.68,0,0,0,16.05-9.69,104.59,104.59,0,0,0,13-10.7,4.89,4.89,0,0,0,.4-.39,75.85,75.85,0,0,0,8.72-10.21C770.68,706.45,770.94,706.09,771.18,705.74ZM735.24,723V674.26l1.4-.77,1.22-.71,1.77-1,1.2-.72,1.72-1.06,1.15-.74c.58-.36,1.13-.73,1.7-1.1.35-.25.71-.48,1.07-.71.59-.39,1.16-.81,1.73-1.2.31-.22.63-.44.92-.66.67-.45,1.3-.94,1.94-1.41l.64-.46.11-.09v47a97.1,97.1,0,0,1-10.06,8.1C739.69,720.17,737.51,721.59,735.24,723Zm28-26V653.51l.59-.62c.44-.47.87-.93,1.27-1.4.23-.24.44-.49.65-.73.43-.47.85-1,1.25-1.43l.59-.72c.42-.51.82-1,1.21-1.53l.38-.48v30.3c0,.09,0,.15,0,.24,0,.57,0,1.16,0,1.74,0,.32,0,.64-.08.94s0,.68-.09,1-.1.78-.16,1.17-.07.49-.11.75c-.08.45-.17.88-.25,1.32l-.12.56q-.17.72-.36,1.44l-.11.41c-.14.51-.29,1-.46,1.53,0,.11-.07.22-.1.31-.17.54-.36,1.06-.56,1.58,0,.09-.07.18-.1.26-.22.53-.43,1.06-.66,1.57l-.13.31c-.21.49-.45,1-.69,1.46-.11.24-.23.47-.35.71s-.38.75-.58,1.11C763.92,695.89,763.59,696.45,763.25,697Zm-319.41,0a38.74,38.74,0,0,1-5.94-20.1V646.58l.36.47c.41.52.81,1,1.23,1.55l.57.68c.41.5.83,1,1.26,1.48l.62.7c.43.48.89,1,1.34,1.44.18.21.36.39.56.6Zm9.25-50.3a59.2,59.2,0,0,1-10.37-13.57A37.94,37.94,0,0,1,437.9,615c0-20.37,17.94-39.18,46.93-53.11,30.26-14.55,72.23-23.56,118.72-23.56s88.45,9,118.71,23.56c29,14,46.93,32.76,46.93,53.14a36.8,36.8,0,0,1-3.06,14.48A55.79,55.79,0,0,1,754,646.73a4.89,4.89,0,0,0-.92.9c-6.75,6.52-15.43,12.55-25.71,18a5,5,0,0,0-.86.44c-1.39.72-2.8,1.43-4.24,2.11a194.3,194.3,0,0,1-22.13,9,5.12,5.12,0,0,0-.86.29,251.29,251.29,0,0,1-26.63,7.23l-.56.13c-8.65,1.85-17.69,3.37-27,4.49l-.27,0a350.53,350.53,0,0,1-82.49,0l-.25,0c-9.33-1.14-18.36-2.63-27-4.5-.2,0-.4-.09-.61-.12a252.16,252.16,0,0,1-26.62-7.24,5.77,5.77,0,0,0-.86-.28,194.87,194.87,0,0,1-22.12-9c-1.45-.68-2.85-1.39-4.24-2.12a5.34,5.34,0,0,0-.89-.46A112,112,0,0,1,454,647.61,6.73,6.73,0,0,0,453.09,646.69ZM723.8,680v49.27q-4.69,2.32-9.82,4.47c-2.23.94-4.47,1.83-6.73,2.69V686.67C713.06,684.61,718.58,682.37,723.8,680Zm-28,10.42v50l-2.22.7-.7.21c-1.91.58-3.83,1.13-5.78,1.67l-.38.11-.33.06c-2.37.65-4.75,1.26-7.15,1.85V694.81C685,693.49,690.47,692,695.81,690.41Zm-28,6.82v50.24c-2.81.57-5.63,1.09-8.49,1.57-.41.06-.8.13-1.2.21l-1.53.24c-.74.13-1.49.24-2.25.36-.49.06-1,.14-1.48.22l-1.6.22V699.94C656.9,699.17,662.41,698.25,667.81,697.23Zm-28,4.07v50.4l-1.21.12c-.24,0-.48.06-.71.07-2,.21-4,.39-6,.55l-2.16.17-.88.07c-1.85.13-3.72.24-5.58.35V702.59C628.87,702.3,634.39,701.85,639.82,701.3Zm-28,1.73v50.44c-2.75.08-5.5.11-8.28.11s-5.54,0-8.29-.11V703q4.13.11,8.29.1C606.33,703.13,609.08,703.09,611.83,703Zm-42.54,48.9c-.35,0-.68-.09-1-.11l-1-.11v-50.4c5.42.55,11,1,16.55,1.29V753c-1.94-.12-3.87-.23-5.78-.37a1.93,1.93,0,0,0-.34,0l-2.63-.21Q572.16,752.21,569.29,751.93Zm1.06,23.16,3.84.91v49.88q-8.51-2-16.57-4.57V771.6c.7.22,1.41.41,2.12.62s1.35.41,2,.59l2.26.63,2,.54,2.53.64Zm-28.83-27.16-.24,0-2-.41V697.23c5.4,1,10.92,1.94,16.56,2.71v50.35l-1.75-.23-1.2-.19-2.55-.4-1.23-.19c-.49-.09-1-.18-1.46-.25C545.59,748.69,543.54,748.32,541.52,747.93Zm4.67,19.93v49.53q-8.67-3.24-16.57-7.07V761.17l.9.41,1.86.82,1.75.76,1.91.8,1.79.74c.64.24,1.29.5,1.94.76l1.84.71c.66.26,1.33.5,2,.75s1.25.46,1.89.68C545.72,767.7,546,767.77,546.19,767.86Zm-28.08-25.44-.11,0-5.42-1.61-1.31-.41v-50c5.35,1.6,10.87,3.08,16.56,4.4h0V745l-1.31-.31-2.48-.62-1.72-.46-.35-.08-3-.81Zm.07,13v48.73s-.09,0-.12-.09l-2.47-1.53c-1.22-.78-2.36-1.54-3.41-2.28l-2.83-2a3.23,3.23,0,0,0-.66-.49c-.65-.49-1.27-1-1.91-1.49-2-1.64-3.67-3.12-5.16-4.59V749.19l.36.11c.22.07.43.16.64.22s.47.17.71.24a5.27,5.27,0,0,0,.7.25c1.76.57,3.49,1.14,5.19,1.66l5,1.51,1.2.69c.53.31,1.06.62,1.6.92Zm-33.65-25.57-.77-.37-.49-.24V680c5.23,2.39,10.77,4.62,16.57,6.68v49.75c-2.1-.8-4.18-1.61-6.21-2.46Q488.85,732,484.53,729.87Zm5.66,15v33.25l-.12-.19c-.07-.14-.16-.28-.23-.43-.53-.91-1-1.77-1.41-2.61-.08-.18-.17-.34-.25-.51,0,0,0,0,0,0-.18-.39-.38-.79-.56-1.2-.47-1-.87-2-1.25-3.12-.19-.58-.37-1.16-.55-1.72q-.37-1.26-.72-2.67c-.1-.43-.17-.86-.25-1.29s-.1-.59-.15-.89-.07-.47-.1-.71-.08-.6-.12-.9a33.89,33.89,0,0,1-.21-3.77V742.32c.43.2.88.39,1.31.57l1.44.63c.75.33,1.49.67,2.25,1ZM455.28,710.7V663.6l.14.1.52.38c.67.51,1.35,1,2.05,1.52.27.18.55.39.83.57l1.83,1.28,1,.66c.59.39,1.18.78,1.78,1.16l1.09.69,1.78,1.09,1.15.7,1.81,1,1.2.69,1.39.77V723A104,104,0,0,1,455.28,710.7Zm7.43,148.67a38.76,38.76,0,0,1-5.94-20.1h0V809c.13.16.28.33.4.5.39.5.78,1,1.19,1.49.19.25.4.5.6.74.4.48.81.95,1.22,1.43l.67.74c.42.47.85.94,1.29,1.39.19.22.38.43.58.63Zm28,26a103.87,103.87,0,0,1-16.55-12.29V826l.12.07.65.49c.62.46,1.25.93,1.91,1.4l.94.66c.56.4,1.14.8,1.72,1.19l1.09.72c.55.36,1.1.74,1.66,1.09l1.19.75c.55.35,1.1.7,1.67,1l1.25.76c.56.34,1.12.66,1.69,1l1.3.75c.45.24.9.5,1.36.74Zm28,13.42q-7.92-3-15-6.4c-.53-.25-1-.5-1.56-.77V842.36c5.23,2.38,10.77,4.61,16.57,6.67Zm28,8.55q-8.58-2.08-16.56-4.61v-50q8,2.41,16.56,4.41Zm28,5.32c-5.65-.8-11.18-1.73-16.55-2.81V859.6c5.39,1,10.92,1.94,16.55,2.71Zm28,2.74q-8.41-.48-16.56-1.33v-50.4q8.16.83,16.56,1.3Zm28,.46c-2.75.06-5.5.09-8.29.08s-5.53,0-8.28-.1V865.4c2.75.08,5.52.11,8.28.11s5.54,0,8.29-.11Zm28-1.8c-5.41.57-10.94,1-16.55,1.33V865c5.6-.3,11.13-.73,16.55-1.28Zm28-4.21q-8.09,1.62-16.56,2.81V862.31q8.48-1.15,16.56-2.71Zm28-7.12c-5.3,1.69-10.83,3.22-16.55,4.61V857.19q8.4-2,16.3-4.31l.25-.08Zm3.19-62.93-2.22.73-2.38.74-2.1.65c-25.72,7.69-56.12,12.15-88.76,12.15-46.48,0-88.45-9-118.7-23.56-24.16-11.63-40.64-26.62-45.47-43.09a35.84,35.84,0,0,1-1.47-10,38.54,38.54,0,0,1,6-20.19,61.64,61.64,0,0,1,10.05-12.33v13.26a46,46,0,0,0,.31,5.11v0s0,.07,0,.11a40.92,40.92,0,0,0,.75,4.54,30.06,30.06,0,0,0-1,3.79v0a30.75,30.75,0,0,0-.54,5.65c0,16.32,12.89,30.91,34.46,42.08,20.57,10.64,49.44,18.39,82.46,21.53,5.78,1,11.72,1.92,17.78,2.66l.36,0a353.24,353.24,0,0,0,42.45,2.52c1.48,0,3,0,4.43,0h0a352.65,352.65,0,0,0,38-2.5l.33,0q7.26-.89,14.26-2c4.13-.66,8.34-1.45,12.68-2.38ZM585.62,828.42v-50q8.1,1.55,16.56,2.71v50.13Q593.78,830,585.62,828.42Zm28,4.28V782.49c5.44.55,11,1,16.56,1.3v50.32C624.62,833.77,619.09,833.3,613.62,832.7Zm28,1.94V784.22c2.74.06,5.5.1,8.28.1s5.54,0,8.27-.09v50.44c-2.73.08-5.5.1-8.27.1h-1.64C646,834.74,643.82,834.7,641.62,834.64Zm28-.42V783.79c5.6-.3,11.12-.74,16.55-1.29v50.39Q678,833.75,669.62,834.22Zm28-2.74V781.13c5.64-.77,11.17-1.69,16.56-2.72v50.26C708.79,829.75,703.25,830.68,697.61,831.48Zm45.07,60.16-1.55.76q-7.1,3.42-15,6.4V849.05c2.8-1,5.54-2,8.21-3.11l.14-.05c1.51-.62,3-1.23,4.49-1.88l.6-.27c1-.44,2.08-.9,3.11-1.37Zm-17.07-65.48V776q8.55-2,16.55-4.4v49.95C736.86,823.24,731.33,824.79,725.61,826.16Zm45.07,46.93a105,105,0,0,1-16.56,12.29V836.62l1.92-1,1.39-.82c.84-.49,1.68-1,2.5-1.48.49-.3,1-.61,1.45-.91l2.28-1.44,1.51-1c.68-.47,1.36-.92,2-1.4.53-.36,1-.74,1.56-1.12l1.83-1.34.08-.06ZM753.6,817.62V767.86c5.8-2.07,11.33-4.3,16.55-6.68v49.29c-.51.24-1,.51-1.54.75Q761.53,814.64,753.6,817.62Zm34.46,21.65a38.74,38.74,0,0,1-5.94,20.1V817.08c2-1.1,4.09-2.28,5.94-3.47Zm10.11-47.37a96.73,96.73,0,0,1-7.58,6.26.72.72,0,0,0-.19.13,93.45,93.45,0,0,1-8.79,5.76V755.49l1.41-.79,1.16-.67L786,753l1.14-.7,1.78-1.09c.37-.23.73-.46,1.08-.7l1.78-1.16,1-.66c.62-.42,1.23-.85,1.83-1.27l.84-.59c.7-.49,1.39-1,2.06-1.5.17-.14.35-.26.52-.39a.41.41,0,0,1,.13-.1Zm2.16-64a6,6,0,0,0-.91.9,112.63,112.63,0,0,1-25.69,17.94,5.34,5.34,0,0,0-.89.46c-1.39.71-2.79,1.42-4.23,2.11a197.93,197.93,0,0,1-22.08,8.93,4.62,4.62,0,0,0-.93.31Q738.09,761,730,763.16c-3.57.92-7.21,1.8-10.93,2.59l0,0a5,5,0,0,0-.67.13Q713.15,767,707.72,768c-5.29.93-10.73,1.73-16.27,2.41a2.34,2.34,0,0,0-.38,0,348.23,348.23,0,0,1-82.47,0h-.17c-9.36-1.15-18.41-2.66-27.06-4.51l-.47-.11c-1.2-.25-2.41-.53-3.6-.8h0c-1.75-.39-3.47-.82-5.19-1.25l-.56-.14.75.06,1.15.1,1.55.13,1,.09,1.91.13,1.22.08q12,.81,24.42.83t24.59-.84c.32,0,.64,0,1-.06l2.07-.14.94-.08.6,0c2.09-.17,4.17-.34,6.25-.56.3,0,.6,0,.9-.09,1.83-.19,3.63-.39,5.43-.6l.79-.09h.13l.45-.06q3.06-.37,6.06-.8l1.44-.21.78-.11c39.44-.55,75-7.53,100.84-18.48,27.32-11.62,44.15-28,44.15-46.63a33.61,33.61,0,0,0-5.83-18.5,57.41,57.41,0,0,0-13.46-14.07V649.5c10.09,6,18.33,12.79,24.27,20,6.85,8.33,10.63,17.35,10.63,26.66C815.54,707.4,810.07,718.16,800.33,727.89Zm15.22,30.19a38.75,38.75,0,0,1-5.95,20.1V734.69c.18-.18.37-.39.56-.57.45-.5.9-1,1.34-1.48.21-.21.41-.45.6-.67.45-.5.88-1,1.3-1.51l.54-.66c.43-.52.86-1.07,1.27-1.6l.34-.42Zm-212-77.91c40.57,0,77.43-6.83,104.21-17.86,28.3-11.66,45.82-28.36,45.82-47.32s-17.52-35.66-45.82-47.31c-26.78-11-63.64-17.86-104.21-17.86s-77.44,6.83-104.22,17.86C471,579.33,453.52,596,453.52,615s17.51,35.66,45.82,47.32C526.12,673.34,563,680.17,603.56,680.17ZM465,615c0-13.87,14.8-26.91,38.72-36.76,25.45-10.47,60.75-17,99.89-17s74.43,6.48,99.87,17c23.93,9.85,38.72,22.89,38.72,36.76s-14.79,26.92-38.72,36.77c-25.44,10.48-60.75,17-99.87,17s-74.44-6.48-99.89-17C479.75,641.91,465,628.88,465,615Zm242.82-47.31c-26.78-11-63.64-17.86-104.21-17.86s-77.44,6.83-104.22,17.86C471,579.33,453.52,596,453.52,615s17.51,35.66,45.82,47.32c26.78,11,63.64,17.86,104.22,17.86s77.43-6.83,104.21-17.86c28.3-11.66,45.82-28.36,45.82-47.32S736.07,579.33,707.77,567.68Zm-4.34,84.08c-25.44,10.48-60.75,17-99.87,17s-74.44-6.48-99.89-17C479.75,641.91,465,628.88,465,615s14.8-26.91,38.72-36.76c25.45-10.47,60.75-17,99.89-17s74.43,6.48,99.87,17c23.93,9.85,38.72,22.89,38.72,36.76S727.36,641.91,703.43,651.76Z"/><path class="cls-3" d="M948.32,291.94c-.55.36-1.12.69-1.69,1a20.83,20.83,0,0,1-2.33,1,23.53,23.53,0,0,1-2.48,1.63,22.78,22.78,0,0,1-26.07-3c-39.84-35.73-105.43-40.09-159.5-10.62s-85.74,86.85-77.3,139.7a22.47,22.47,0,0,1-3.27,15.64,22.69,22.69,0,0,1-32.85,17.57,22.49,22.49,0,0,1-14.53-5.6C587.89,413,523.86,408.72,469,438.64s-86,86.05-77.45,139.65a22.64,22.64,0,0,1-3.22,15.57A22.59,22.59,0,0,1,356.8,612a22.47,22.47,0,0,1-16.57-5c-40.49-34-103.53-37.33-156.85-8.26S98.81,682.54,105.46,735a22.78,22.78,0,0,1-14.95,24.28,23.88,23.88,0,0,1-4.6,2.76,22.76,22.76,0,0,1-30-11.69c-103-234.82-12.81-513.73,205.16-645.53L234.53,56.09a22.76,22.76,0,0,1,40-21.78L301,83C530-28.74,813.22,46.57,954.75,260.41A22.75,22.75,0,0,1,948.32,291.94Z"/><path class="cls-2" d="M954.75,260.41C813.22,46.57,530-28.74,301,83L274.49,34.31a22.76,22.76,0,0,0-40,21.78l26.56,48.72c-218,131.8-308.2,410.71-205.16,645.53a22.76,22.76,0,0,0,30,11.69,23.88,23.88,0,0,0,4.6-2.76A22.78,22.78,0,0,0,105.46,735c-6.65-52.45,24.67-107.2,77.92-136.22S299.74,573,340.23,607a22.47,22.47,0,0,0,16.57,5,22.59,22.59,0,0,0,31.49-18.18,22.64,22.64,0,0,0,3.22-15.57C383,524.69,414.06,468.56,469,438.64S587.89,413,628.3,449.23a22.49,22.49,0,0,0,14.53,5.6,22.69,22.69,0,0,0,32.85-17.57A22.47,22.47,0,0,0,679,421.62c-8.44-52.85,23.35-110.29,77.3-139.7s119.66-25.11,159.5,10.62a22.78,22.78,0,0,0,26.07,3A23.53,23.53,0,0,0,944.3,294a20.83,20.83,0,0,0,2.33-1c.57-.31,1.14-.64,1.69-1A22.75,22.75,0,0,0,954.75,260.41ZM315.28,542.53C267.19,526.91,211,532,161.62,558.84c-41.7,22.73-72.9,58.12-89.39,98.07C28.2,477.42,95.8,284.7,243.2,172,216,251.62,241.49,388.44,315.28,542.53ZM447.19,398.71c-47.7,26-81.44,67.92-95.38,114.41C265.54,327.67,259,180.51,312.4,151.39S486,207.54,595.05,380.54C548.43,367.06,494.92,372.69,447.19,398.71ZM734.48,242c-49.7,27.09-84.28,71.47-97,120.37-89-143.62-189.21-237.85-270.23-258,172.81-62.16,369.22-16.17,496.35,115C821.7,212.17,775.91,219.4,734.48,242Z"/></svg>