<svg xmlns="http://www.w3.org/2000/svg" viewBox="0 0 387.51 335.1"><defs><style>.cls-1{fill:#c5fcb9;}.cls-2{fill:#545fac;}.cls-3{fill:#59ba49;}.cls-4{fill:#3e7c32;}.cls-14,.cls-15,.cls-5,.cls-8,.cls-9{fill:none;stroke-linecap:round;}.cls-5,.cls-9{stroke:#000;}.cls-14,.cls-5,.cls-8{stroke-miterlimit:10;}.cls-6{fill:#ba6f4c;}.cls-7{fill:#9ec68a;}.cls-8{stroke:#fff;}.cls-15,.cls-9{stroke-linejoin:round;}.cls-10{fill:#93e283;}.cls-11{fill:#fff;}.cls-12{fill:#6fa562;}.cls-13{fill:#7e9e6e;}.cls-14,.cls-15{stroke:#fcfcfc;}</style></defs><g id="BACKGROUND"><ellipse class="cls-1" cx="214.61" cy="161.68" rx="150.61" ry="134.67"/></g><g id="OBJECTS"><rect class="cls-2" x="210.79" y="159.99" width="121.32" height="158.2" rx="57.08"/><rect class="cls-3" x="210.79" y="159.99" width="121.32" height="158.2" rx="57.08"/><rect class="cls-4" x="195.87" y="159.99" width="123.73" height="158.2" rx="53.96"/><path class="cls-5" d="M209.61,116s-17.15,52.38-22.38,74.2"/><path class="cls-6" d="M282.14,96.79s-10.06-8.8-10.54-9-6.27-5.32-13.11-4.55l14,31.73s-5.26,4.43-4.24,7.12,4.76-1.72,6.68-2.53,5.1-4.55,6-6.16S282.14,96.79,282.14,96.79Z"/><path class="cls-5" d="M266.24,94s3.64,8.25,8.54,10.21"/><path d="M260.55,91.58s36.51,48.29,37.69,77.74c0,0-32.09,53.39-106.3,13.05l13.25-65.17Z"/><path class="cls-5" d="M265.36,98.06S287,128.68,302.27,159.3"/><path class="cls-7" d="M265.85,159.6s45.94-8.83,67.43-6.48c0,0,13.25,15,18.26,24.74L312.87,202.2s4.51,59.87-11.09,98.45H156s8.47-82.51,15.6-96.29c4.42-8.54,8.35-18,29.15-25.62S225.22,164,225.22,164Z"/><path class="cls-5" d="M264.36,160.47s5.18-.64,6.5,7.4"/><path class="cls-5" d="M225,171s-5.93,5.29-1.09,13.47"/><line class="cls-5" x1="186.05" y1="210.25" x2="195.47" y2="222.91"/><path class="cls-6" d="M239.94,182.27h0c-10.19,0-13-14.25-13-24.44l.3-22h36.9v27.58C264.18,173.63,250.13,182.27,239.94,182.27Z"/><path d="M260.74,135.85H227.28l-.3,22c0,6.23,1,14,4.17,19.06C249.74,173.82,257.9,155.48,260.74,135.85Z"/><path class="cls-6" d="M281,113.39l64.54,68.44s13.3-4.76,21.16-15-8.74-27.87-30.73-42S280.82,95.7,280.82,95.7,280.18,100.43,281,113.39Z"/><path class="cls-5" d="M297.55,226.54s-3.53,36-35.72,34"/><path class="cls-8" d="M212.93,152.62a9,9,0,0,1,1.23,6.48c-.62,4.1-3.31,7.09-6,6.68s-4.41-4.06-3.79-8.16a9.18,9.18,0,0,1,2.89-5.67"/><path class="cls-6" d="M196.63,109.42s-.89,59,32.32,63c28.87,3.55,33.4-44.91,31.33-63.29S250,81.1,227.44,81.45C194,82,196.63,109.42,196.63,109.42Z"/><path d="M256.72,120.73l.86,4.58s18.79,2.52,23.58-.46c0,0-10.65-28.72-18-37.39s-17.7-16.79-40.64-13.55S194.1,99.14,194.1,99.14s-5.5,15.14,4.71,32.61c0,0,.11-20,4.52-25.84,0,0,21.13,23.75,53.39,14.82"/><ellipse class="cls-6" cx="257.49" cy="136.29" rx="12.39" ry="8.48" transform="translate(70.26 359.5) rotate(-77.9)"/><path class="cls-9" d="M261.08,132.28s-4.38-3.76-6.32,3.68c0,0,2.59,2.75,1.15,5.1a3.25,3.25,0,0,0,3.52-2"/><path class="cls-9" d="M259.4,135.18a7.39,7.39,0,0,0-2-3.37"/><path d="M231.48,139.86c.06,1.66-.7,3-1.7,3.07s-1.85-1.28-1.91-2.94.71-3,1.71-3.07S231.43,138.2,231.48,139.86Z"/><path d="M209.89,142.79c.05,1.66-.71,3-1.71,3.07s-1.85-1.28-1.9-2.94.7-3,1.7-3.07S209.83,141.13,209.89,142.79Z"/><path class="cls-5" d="M207.07,134.29s-.77,3.37-3.84,2.44"/><path class="cls-5" d="M231.36,131.87s-4.48,1.47-7.08-1.49"/><path class="cls-5" d="M213.8,148s-.76,2.88.72,3.31,3.46,1,5.32-.2,3.74-.62,2-3.11"/><path class="cls-5" d="M259.08,119.11c-37.69,17.67-56.15-12.71-56.15-12.71s-1.27,1.86,7.27,13.35"/><path class="cls-8" d="M263.75,143.67a8.47,8.47,0,0,1,3.17,5.35c.77,3.83-.67,7.35-3.2,7.86s-5.21-2.19-6-6a8.67,8.67,0,0,1,.74-5.95"/><path class="cls-5" d="M234.34,163.08s.67-3.78,4-3.78"/><path class="cls-6" d="M318.36,152.73s-2.94,33.17,27.14,29.1Z"/><path class="cls-5" d="M318.36,152.73s9,12.46,18.46,14.23"/><path class="cls-5" d="M298.83,300.94s12.85-42.38,11.48-98.94c0,0-.64-.33-2.47-1.35a39.7,39.7,0,0,1-10.78-9"/><path class="cls-5" d="M338.19,182.47S315.91,199.06,310.31,202"/><path class="cls-5" d="M270.54,161.56s5.63,24.24-24.43,29.87c-25.86,4.85-26-18.7-26-18.7"/><path class="cls-5" d="M254.46,177.77s3.5,1.68,3.36,9.58"/><path class="cls-5" d="M260.37,172.68s3.63,2.32,3.49,10.63"/><path class="cls-5" d="M264.36,166s4.06,2.35,3.91,11.44"/><path class="cls-5" d="M229.2,173.84s-4.45,5.81-.82,14.8"/><path class="cls-5" d="M233,179.17s-2.27,5,1.94,12.29"/><path class="cls-5" d="M240,182.74s-.26,5.79,1.21,9.12"/><path class="cls-5" d="M247.93,181.38s2,3.18,1.57,9.12"/><path class="cls-5" d="M262.43,184.58s-10.51,13.94-29,13.94"/><polygon class="cls-1" points="343.64 327.98 0 327.98 43.87 300.6 387.51 300.6 343.64 327.98"/><path class="cls-6" d="M92.71,288.9a24.83,24.83,0,0,0-14-4c-6.81-.07-16.1,1.32-19.16,1.67-1.89.22-1.92-2.67-7.65,4.89-2.26,3-2.86,3.74-3.16,4.77s.53,12.78,3.43,13.69c.09,0,.16,0,.25,0a9,9,0,0,0,1.63,3.39c.45.59,3.11,1.79,3.95-2.63,0,0,.65,3.59,2.65,4.86s3-1.13,3.26-3.1c.27,1.71,1.56,4.56,3.34,3.92C70.78,315,69,304.79,69,304.79l4.09-7.39L79,298.76s12.13,5.36,16.82-1.68C97.91,293.85,95.72,291,92.71,288.9Z"/><polyline class="cls-5" points="57.37 289.24 51.62 297.5 52.92 309.36"/><polyline class="cls-5" points="61.75 290.95 57.2 300.24 58.04 310.61"/><polyline class="cls-5" points="67.97 292.69 63.64 301.47 63.94 310.89"/><path class="cls-6" d="M84.93,298.62s-6.52,6.82-4.69,9.68S97.85,298,94.66,296.43C90,294.11,84.93,298.62,84.93,298.62Z"/><path class="cls-5" d="M81.61,295.86a3.92,3.92,0,0,1,1.57,4.74"/><path class="cls-10" d="M232,303.15l31.16.7a1.71,1.71,0,0,1,1.67,1.71v2.52a1.73,1.73,0,0,1-1,1.56l-23.87,10.74-6.89.29Z"/><path class="cls-4" d="M263.81,305.42l-23.87,10.74-6.89.29v4.22l6.89-.29,23.87-10.74a1.71,1.71,0,0,0,1-1.56v-2.52a1.71,1.71,0,0,0-.24-.86A1.63,1.63,0,0,1,263.81,305.42Z"/><path class="cls-11" d="M236,320.67H92.82a4.78,4.78,0,0,1-4.66-4l-19-89.81c-.54-3,4.21-6.92,7.18-6.92H219.5a4.79,4.79,0,0,1,4.67,4l16.49,90.95A4.84,4.84,0,0,1,236,320.67Z"/><path class="cls-10" d="M212.85,226.29l7.22-6.27a3.55,3.55,0,0,0-.57-.06H76.33c-3,0-7.72,3.93-7.18,6.92l2.51,11.86,56.19,1.64Z"/><path class="cls-4" d="M240.66,314.9,224.5,225.79a8.54,8.54,0,0,0-4.29,5.07c-1.13,3.49-.36,62.39.07,89.81H236A4.84,4.84,0,0,0,240.66,314.9Z"/><path class="cls-3" d="M233.05,320.67H89.88a4.75,4.75,0,0,1-4.67-3.88L68.72,228.23a4.75,4.75,0,0,1,4.67-5.62H216.56a4.75,4.75,0,0,1,4.67,3.88l16.48,88.56A4.74,4.74,0,0,1,233.05,320.67Z"/><ellipse class="cls-10" cx="146.36" cy="276.9" rx="11.64" ry="15.61" transform="translate(-104.9 89.91) rotate(-25.48)"/><rect class="cls-10" y="327.98" width="343.64" height="7.12"/><polygon class="cls-12" points="343.64 335.1 387.51 307.71 387.51 300.6 343.64 327.98 343.64 335.1"/><path class="cls-5" d="M214.69,180.17s8.17,31.33,25.61,31.88"/><path class="cls-13" d="M359.23,255.78s-3-1.14.82-8.56c3.62-7.05,7.56-13.67,16.33-19.07,0,0-.83,14.55-6.25,20.15A30.94,30.94,0,0,1,359.23,255.78Z"/><path class="cls-13" d="M382.49,256.75s-9.09,6.09-25.85,6.73c0,0,.73-2.22,7.77-5.73S384.13,254.49,382.49,256.75Z"/><path class="cls-5" d="M382.49,256.75s-12.21-2-25.85,6.73a9,9,0,0,0-2.56,3.76"/><path class="cls-13" d="M376,269.31a36.29,36.29,0,0,1-25.8,12s2.23-7.45,9.27-11S377.66,267.05,376,269.31Z"/><path class="cls-5" d="M376,269.31s-11.62-1.15-25.8,12a14.26,14.26,0,0,0-2.83,4.37"/><path class="cls-13" d="M351.54,267s-2.09,1.85-6.65-.57-7.33-10.81-11-10.77C333.85,255.65,343.11,255.19,351.54,267Z"/><path class="cls-5" d="M344.47,295.91a218.21,218.21,0,0,1,14.76-40.13s1.66-3.87,7.83-14.66,9.32-13,9.32-13"/><path class="cls-5" d="M335,255.7s9,.62,16.58,11.29c1.84,2.59.52,5.77-.59,8.23"/><path class="cls-3" d="M333.15,289.74l4.36,24c0,1.47,4.64,2.66,10.37,2.66s10.37-1.19,10.37-2.66l4.36-24Z"/><path d="M362.61,289.74c0,1.47-6.6,2.66-14.73,2.66s-14.73-1.19-14.73-2.66,6.6-2.66,14.73-2.66S362.61,288.27,362.61,289.74Z"/><path class="cls-3" d="M305.9,0a34.19,34.19,0,0,0-23,58.55,4.26,4.26,0,0,1,1.23,3.75l-2.53,15,15.57-9.08a4.21,4.21,0,0,1,2.94-.51A34.2,34.2,0,1,0,305.9,0Z"/><path class="cls-11" d="M305.92,49.47a1.35,1.35,0,0,1-1.09-.45,1.91,1.91,0,0,1-.38-1.26,1.84,1.84,0,0,1,.41-1.23,1.51,1.51,0,0,1,2.17,0A2.23,2.23,0,0,1,307,49,1.31,1.31,0,0,1,305.92,49.47Zm-.29-11.78c0-1-.07-2-.11-3s-.06-2-.08-3.08,0-2.07,0-3.14V16h1.18l.06,12.49c0,1.07,0,2.12,0,3.14s-.05,2-.08,3.08-.07,2-.11,3Z"/><path class="cls-3" d="M52.44,113.86a7.3,7.3,0,0,1-4.65-1.67l-3.62-3a6.93,6.93,0,0,0-4.43-1.66l-17.94,0a3,3,0,0,0-2.94,3v3.41l.1,61.54a5.08,5.08,0,0,0,5.09,5.08l89.44-.14a4,4,0,0,0,4-4l-.09-58.71a4,4,0,0,0-4-4Z"/><path class="cls-8" d="M106.88,128.73H88.74a2.51,2.51,0,0,1-2.51-2.52h0a2.51,2.51,0,0,1,2.51-2.51h18.14a2.51,2.51,0,0,1,2.51,2.51h0A2.51,2.51,0,0,1,106.88,128.73Z"/><line class="cls-14" x1="46.78" y1="116.1" x2="113.87" y2="116.1"/><line class="cls-15" x1="79.54" y1="139.62" x2="57.73" y2="161.42"/><line class="cls-15" x1="79.54" y1="161.42" x2="57.73" y2="139.62"/><path class="cls-5" d="M264.18,163.43c0,10.2-14.05,18.84-24.24,18.84h0"/></g></svg>