<svg id="Layer_1" data-name="Layer 1" xmlns="http://www.w3.org/2000/svg" viewBox="0 0 1172.67 939.86"><defs><style>.cls-1,.cls-2{fill:#050505;}.cls-2{font-size:528.91px;font-family:Montserrat-Bold, Montserrat;font-weight:700;}</style></defs><path class="cls-1" d="M1172.34,517.84a185,185,0,0,0-17.42-68.26,187,187,0,0,0-151.84-106.34,153.09,153.09,0,0,0,14-35.13,150.17,150.17,0,0,0,4.63-28.91,158.45,158.45,0,0,0-1-29.14,152.94,152.94,0,0,0-18.47-54.65,163.35,163.35,0,0,0-36.53-43.84,180.1,180.1,0,0,0-75.29-37.64,183.67,183.67,0,0,0-27.73-4.37c-36.19-3-73.12,4.44-104.7,21.74a188.2,188.2,0,0,0-54.87-84.45c-26.28-23.51-59.78-39-95-44.47A189.58,189.58,0,0,0,502.82,15.77c-29.76,12.8-56,33.64-76,59.49a235.61,235.61,0,0,0-48.3-21.73,221.91,221.91,0,0,0-63.11-10.24,202.86,202.86,0,0,0-166.37,81.25,195.08,195.08,0,0,0-17.19,27.17,201.73,201.73,0,0,0-12.79,29.58,208.66,208.66,0,0,0-4.94,116.42,104,104,0,0,0-15,6.32c-4.32,1.94-8.28,4.58-12.34,7-2,1.22-3.86,2.71-5.79,4.05a68.34,68.34,0,0,0-5.6,4.27l-5.35,4.58c-1.8,1.5-3.34,3.29-5,4.91a122.91,122.91,0,0,0-9.29,10.48c-1.54,1.74-2.74,3.77-4.12,5.64s-2.78,3.73-3.89,5.78a120.31,120.31,0,0,0-6.64,12.22A126,126,0,0,0,32,389l-1.27,6.77c-.21,1.13-.44,2.25-.61,3.38l-.34,3.42-.66,6.82c-.1,2.28-.07,4.57-.11,6.84a120.06,120.06,0,0,0,10.65,50.58,213.07,213.07,0,0,0-27.44,55l-2.47,7.6-2.09,7.71-1,3.86-.85,3.9L4,552.62A263.52,263.52,0,0,0,0,584.3a274.2,274.2,0,0,0,3.16,63.78A285,285,0,0,0,20.6,709.71,266.34,266.34,0,0,0,52,765.93c12.89,17.32,27.89,33.28,45.28,46.53s36.86,24.11,58.08,30.79a162.23,162.23,0,0,0,61,7.32,127.33,127.33,0,0,0,74,29.91c2.38.07,4.76.22,7.13.23s4.75,0,7.11-.17l7.08-.51,7-1a122.87,122.87,0,0,0,85.16-57,179.35,179.35,0,0,0,33.87,46.35,225.36,225.36,0,0,0,50.78,37.65,268.41,268.41,0,0,0,58.79,23.59A304.5,304.5,0,0,0,610,939.42c42.3,2.26,85.44-4.06,125.3-20.14a245.29,245.29,0,0,0,56.27-31.69,205.55,205.55,0,0,0,38.74-38.17,128.47,128.47,0,0,0,64.23,15.52,140.58,140.58,0,0,0,38-6.73,133.87,133.87,0,0,0,33.9-17.76l7.51-5.91c2.38-2.12,4.63-4.36,6.94-6.54a77.74,77.74,0,0,0,6.45-7l3.1-3.59c1-1.21,1.87-2.56,2.82-3.83,1.78-2.61,3.77-5.08,5.37-7.81l4.72-8.21c1.48-2.78,2.66-5.72,4-8.57.61-1.45,1.38-2.83,1.85-4.34l1.52-4.47c2.26-5.88,3.41-12.08,4.82-18.17.77-6.22,1.82-12.4,1.72-18.65a103.52,103.52,0,0,0-.81-18.63c-.39-3.08-.9-6.15-1.52-9.19-.32-1.51-.65-3-1-4.53l-.15-.6a9.51,9.51,0,0,0,3.91.33l8.53-1.52c2.82-.65,5.66-1.24,8.46-1.94s5.6-1.48,8.36-2.34A180.74,180.74,0,0,0,1075,691.65a183.89,183.89,0,0,0,97.31-173.81Zm-22.49,65.23a170.19,170.19,0,0,1-30.2,57.27,172.6,172.6,0,0,1-79.6,55.55c-2.6.89-5.24,1.62-7.86,2.44s-5.32,1.36-8,2l-8.08,1.67a51.48,51.48,0,0,0-11.19,3.12,10.16,10.16,0,0,0-.49,3.15,9.69,9.69,0,0,0,.18,1.65l.17.81.42,2.12c.28,1.41.51,2.83.74,4.25.43,2.83.75,5.69,1,8.55a93.56,93.56,0,0,1-.15,17.15c-.18,5.73-1.46,11.31-2.42,16.91-1.59,5.46-2.88,11-5.21,16.18l-1.56,3.95a39.25,39.25,0,0,1-1.86,3.8c-1.34,2.5-2.5,5.07-4,7.48l-4.59,7.11c-1.53,2.35-3.44,4.45-5.13,6.69-.9,1.08-1.69,2.24-2.66,3.26l-2.92,3a65.16,65.16,0,0,1-6,5.88c-2.14,1.81-4.22,3.69-6.39,5.44l-6.83,4.82a116.94,116.94,0,0,1-30.11,13.87,121.83,121.83,0,0,1-32.64,4.09,106.82,106.82,0,0,1-60.69-20.87h0l-.06,0-.49-.32a11.49,11.49,0,0,0-15.85,3.59A180.46,180.46,0,0,1,778.55,871,225.51,225.51,0,0,1,727.9,901.8c-36.49,16.23-77,23.71-117.4,22.93a290.81,290.81,0,0,1-60.12-7.27,257.26,257.26,0,0,1-57-20.63,216.24,216.24,0,0,1-49.88-34.39,170,170,0,0,1-36.58-48.19v0a3.11,3.11,0,0,0-5.41-.24h0a115.89,115.89,0,0,1-36.93,35.25,111.27,111.27,0,0,1-47.67,15.24l-6.24.36-6.24-.06c-2.07,0-4.14-.24-6.21-.34s-4.11-.48-6.16-.7a109.74,109.74,0,0,1-23.77-6.29,107.64,107.64,0,0,1-39.82-27.09h0a11.3,11.3,0,0,0-9.58-3.27h0a139.05,139.05,0,0,1-57.29-4.25c-18.76-5.26-36.56-14.36-52.64-25.94S78.43,771.07,66,755.35a250.35,250.35,0,0,1-31-51.78A269,269,0,0,1,11.77,584.92a254.2,254.2,0,0,1,2.92-30.41L16.08,547l.7-3.76.89-3.71,1.77-7.44,2.14-7.34a204.57,204.57,0,0,1,25.8-55.23l0,0,0,0a4.31,4.31,0,0,0,.37-3.81,110.35,110.35,0,0,1-7.07-49c.19-2.06.31-4.11.54-6.16l1.06-6.08.51-3c.23-1,.52-2,.78-3l1.57-5.93c2.59-7.74,5.54-15.37,9.74-22.33a103.41,103.41,0,0,1,6.55-10.2,59.3,59.3,0,0,1,3.74-4.76c1.32-1.52,2.45-3.2,3.91-4.6a104.85,104.85,0,0,1,8.62-8.38c1.54-1.28,2.94-2.72,4.58-3.87l4.82-3.55a52.8,52.8,0,0,1,5-3.25c1.72-1,3.34-2.16,5.12-3,3.57-1.73,7-3.72,10.73-5,7.23-3.2,15-5,22.59-6.53h0l.57-.13a10.4,10.4,0,0,0,1.57-.47,11.24,11.24,0,0,0,6.49-14.51,178.6,178.6,0,0,1-3.72-115.17,182.74,182.74,0,0,1,67.79-94.83,179,179,0,0,1,25.39-15.51,195.54,195.54,0,0,1,27.6-11.12,185.92,185.92,0,0,1,58.81-8.26c39.74.84,79.18,16.14,107.57,42.94l.06,0a11.22,11.22,0,0,0,1.59,1.2,10.83,10.83,0,0,0,14.93-3.46l.36-.58c17-27.24,41.66-50.11,71-64.28A175.24,175.24,0,0,1,696.86,54.21,180.85,180.85,0,0,1,754,135.71l0,.06,0,.11.12.26a2.58,2.58,0,0,0,3.48,1.11c32-16.54,68.78-22.53,104-18.11a172.6,172.6,0,0,1,26,5.21,166.22,166.22,0,0,1,24.87,9,163.77,163.77,0,0,1,43.71,28.82,147.93,147.93,0,0,1,31.46,41,135.41,135.41,0,0,1,14.34,48.94,139.45,139.45,0,0,1-.15,25.44,129.84,129.84,0,0,1-5,24.81,136.4,136.4,0,0,1-23.46,44.47l-.06.08-.08.1A11.56,11.56,0,0,0,983,365.59a165.94,165.94,0,0,1,117,41.41,168.06,168.06,0,0,1,56.54,112A170.55,170.55,0,0,1,1149.85,583.07Z"/><text class="cls-2" transform="translate(447.46 628.47)">?</text></svg>