<svg xmlns="http://www.w3.org/2000/svg" xmlns:xlink="http://www.w3.org/1999/xlink" viewBox="0 0 2936.39 3035.03"><defs><style>.cls-1,.cls-2{isolation:isolate;}.cls-2{fill:#87dc75;}.cls-3{fill:url(#linear-gradient);}.cls-4{fill:url(#linear-gradient-2);}.cls-5{fill:url(#linear-gradient-3);}.cls-6{fill:url(#linear-gradient-4);}.cls-7{fill:url(#linear-gradient-5);}.cls-8{fill:url(#linear-gradient-6);}.cls-15,.cls-73,.cls-9{fill:#fff;}.cls-10,.cls-15,.cls-9{mix-blend-mode:soft-light;}.cls-9{opacity:0.26;}.cls-11{fill:url(#linear-gradient-7);}.cls-12{fill:url(#linear-gradient-8);}.cls-13{fill:url(#linear-gradient-9);}.cls-14{fill:url(#linear-gradient-10);}.cls-15,.cls-72{opacity:0.8;}.cls-16{fill:url(#linear-gradient-11);}.cls-17{fill:url(#linear-gradient-12);}.cls-18{fill:url(#linear-gradient-13);}.cls-19{fill:url(#linear-gradient-14);}.cls-20{fill:url(#linear-gradient-15);}.cls-21{fill:url(#linear-gradient-16);}.cls-22{fill:url(#linear-gradient-17);}.cls-23{fill:url(#linear-gradient-18);}.cls-24{fill:url(#linear-gradient-19);}.cls-25{fill:url(#linear-gradient-20);}.cls-26{fill:url(#linear-gradient-21);}.cls-27{fill:url(#linear-gradient-22);}.cls-28{fill:url(#linear-gradient-23);}.cls-29{fill:url(#linear-gradient-24);}.cls-30{fill:url(#linear-gradient-25);}.cls-31{fill:url(#linear-gradient-26);}.cls-32{fill:url(#linear-gradient-27);}.cls-33,.cls-36,.cls-38,.cls-40,.cls-52,.cls-61,.cls-67,.cls-78,.cls-86,.cls-97{mix-blend-mode:multiply;}.cls-33,.cls-36,.cls-38,.cls-52,.cls-61,.cls-86,.cls-97{opacity:0.3;}.cls-33{fill:url(#linear-gradient-28);}.cls-34{fill:url(#linear-gradient-29);}.cls-35{fill:url(#linear-gradient-30);}.cls-36{fill:url(#linear-gradient-31);}.cls-37{fill:url(#linear-gradient-32);}.cls-38{fill:url(#linear-gradient-33);}.cls-39{fill:url(#linear-gradient-34);}.cls-40{opacity:0.69;fill:url(#linear-gradient-35);}.cls-41{fill:url(#linear-gradient-36);}.cls-42{fill:url(#linear-gradient-37);}.cls-43{fill:url(#linear-gradient-38);}.cls-44{fill:url(#linear-gradient-39);}.cls-45{fill:url(#linear-gradient-40);}.cls-46{fill:url(#linear-gradient-41);}.cls-47{fill:url(#linear-gradient-42);}.cls-48{fill:url(#linear-gradient-43);}.cls-49{fill:url(#linear-gradient-44);}.cls-50{fill:url(#linear-gradient-45);}.cls-51{fill:url(#linear-gradient-46);}.cls-52{fill:url(#linear-gradient-47);}.cls-53{fill:url(#linear-gradient-48);}.cls-54{fill:url(#linear-gradient-49);}.cls-55{fill:url(#linear-gradient-50);}.cls-56{fill:url(#linear-gradient-51);}.cls-57{fill:url(#linear-gradient-52);}.cls-58{fill:url(#linear-gradient-53);}.cls-59{fill:url(#linear-gradient-54);}.cls-60{fill:url(#linear-gradient-55);}.cls-61{fill:url(#linear-gradient-56);}.cls-62{fill:#c5fcb9;}.cls-63{fill:url(#linear-gradient-57);}.cls-64{fill:url(#linear-gradient-58);}.cls-65{fill:url(#linear-gradient-59);}.cls-66{fill:url(#linear-gradient-60);}.cls-67{fill:#d8dee8;opacity:0.57;}.cls-68{fill:url(#linear-gradient-61);}.cls-69{fill:url(#linear-gradient-62);}.cls-70{fill:url(#linear-gradient-63);}.cls-71{fill:url(#linear-gradient-64);}.cls-74{fill:#f4f7fa;}.cls-75{fill:url(#linear-gradient-65);}.cls-76{fill:#99a0aa;}.cls-77,.cls-78{fill:#b7c0ce;}.cls-78{opacity:0.2;}.cls-79{fill:url(#linear-gradient-66);}.cls-80{fill:url(#linear-gradient-67);}.cls-81{fill:url(#linear-gradient-68);}.cls-82{fill:url(#linear-gradient-69);}.cls-83{fill:url(#linear-gradient-70);}.cls-84{fill:url(#linear-gradient-71);}.cls-85{fill:url(#linear-gradient-72);}.cls-86{fill:url(#linear-gradient-73);}.cls-87{fill:url(#linear-gradient-74);}.cls-88{fill:url(#linear-gradient-75);}.cls-89{fill:url(#linear-gradient-76);}.cls-90{fill:url(#linear-gradient-77);}.cls-91{fill:url(#linear-gradient-78);}.cls-92{fill:url(#linear-gradient-79);}.cls-93{fill:url(#linear-gradient-80);}.cls-94{fill:url(#linear-gradient-81);}.cls-95{fill:url(#linear-gradient-82);}.cls-96{fill:url(#linear-gradient-83);}.cls-97{fill:url(#linear-gradient-84);}</style><linearGradient id="linear-gradient" x1="1854.95" y1="1848.56" x2="2166.51" y2="1953.29" gradientTransform="matrix(-1, 0, 0, 1, 2290.55, 0)" gradientUnits="userSpaceOnUse"><stop offset="0" stop-color="#ab316d"/><stop offset="1" stop-color="#792d3d"/></linearGradient><linearGradient id="linear-gradient-2" x1="1995.42" y1="1604.74" x2="1870.18" y2="1866.61" gradientTransform="matrix(-1, 0, 0, 1, 2290.55, 0)" gradientUnits="userSpaceOnUse"><stop offset="0" stop-color="#ffc444"/><stop offset="1" stop-color="#f36f56"/></linearGradient><linearGradient id="linear-gradient-3" x1="2220.11" y1="494.2" x2="1992.4" y2="1260.83" gradientTransform="matrix(-1, 0, 0, 1, 2290.55, 0)" gradientUnits="userSpaceOnUse"><stop offset="0" stop-color="#59ba49"/><stop offset="1" stop-color="#3e7c32"/></linearGradient><linearGradient id="linear-gradient-4" x1="1924.8" y1="429.42" x2="1814.75" y2="1750.14" gradientTransform="matrix(-1, 0, 0, 1, 2290.55, 0)" gradientUnits="userSpaceOnUse"><stop offset="0" stop-color="#59ba49"/><stop offset="1" stop-color="#3e7c32"/></linearGradient><linearGradient id="linear-gradient-5" x1="1601.9" y1="1219.51" x2="1933.61" y2="1219.51" xlink:href="#linear-gradient-3"/><linearGradient id="linear-gradient-6" x1="3822.1" y1="3019.58" x2="5141.87" y2="3019.58" gradientTransform="matrix(-0.81, -0.58, -0.58, 0.81, 6420.27, 874.25)" xlink:href="#linear-gradient-3"/><linearGradient id="linear-gradient-7" x1="-1544.18" y1="574.38" x2="-1370.54" y2="1626.73" gradientTransform="matrix(0.91, -0.41, 0.41, 0.92, 1892.58, -96.4)" xlink:href="#linear-gradient-2"/><linearGradient id="linear-gradient-8" x1="-1538.51" y1="573.4" x2="-1364.86" y2="1625.81" gradientTransform="matrix(0.91, -0.41, 0.41, 0.92, 1892.58, -96.4)" xlink:href="#linear-gradient-2"/><linearGradient id="linear-gradient-9" x1="-1570.99" y1="578.69" x2="-1397.32" y2="1631.18" gradientTransform="matrix(0.91, -0.41, 0.41, 0.92, 1892.58, -96.4)" xlink:href="#linear-gradient-2"/><linearGradient id="linear-gradient-10" x1="-1547.97" y1="574.99" x2="-1374.33" y2="1627.36" gradientTransform="matrix(0.91, -0.41, 0.41, 0.92, 1892.58, -96.4)" xlink:href="#linear-gradient-2"/><linearGradient id="linear-gradient-11" x1="-1551.1" y1="575.42" x2="-1377.45" y2="1627.89" gradientTransform="matrix(0.91, -0.41, 0.41, 0.92, 1892.58, -96.4)" xlink:href="#linear-gradient-2"/><linearGradient id="linear-gradient-12" x1="-1549.08" y1="575.15" x2="-1375.43" y2="1627.55" gradientTransform="matrix(0.91, -0.41, 0.41, 0.92, 1892.58, -96.4)" xlink:href="#linear-gradient-2"/><linearGradient id="linear-gradient-13" x1="-1550.42" y1="575.31" x2="-1376.77" y2="1627.78" gradientTransform="matrix(0.91, -0.41, 0.41, 0.92, 1892.58, -96.4)" xlink:href="#linear-gradient-2"/><linearGradient id="linear-gradient-14" x1="-1553.21" y1="575.76" x2="-1379.55" y2="1628.24" gradientTransform="matrix(0.91, -0.41, 0.41, 0.92, 1892.58, -96.4)" xlink:href="#linear-gradient-2"/><linearGradient id="linear-gradient-15" x1="-1546" y1="574.69" x2="-1372.36" y2="1627.03" gradientTransform="matrix(0.91, -0.41, 0.41, 0.92, 1892.58, -96.4)" xlink:href="#linear-gradient-2"/><linearGradient id="linear-gradient-16" x1="-1545.98" y1="574.6" x2="-1392.82" y2="1502.84" gradientTransform="matrix(0.91, -0.41, 0.41, 0.92, 1892.58, -96.4)" xlink:href="#linear-gradient-2"/><linearGradient id="linear-gradient-17" x1="-1547.86" y1="574.98" x2="-1374.22" y2="1627.34" gradientTransform="matrix(0.91, -0.41, 0.41, 0.92, 1892.58, -96.4)" xlink:href="#linear-gradient-2"/><linearGradient id="linear-gradient-18" x1="-1547.23" y1="574.85" x2="-1373.58" y2="1627.24" gradientTransform="matrix(0.91, -0.41, 0.41, 0.92, 1892.58, -96.4)" xlink:href="#linear-gradient-2"/><linearGradient id="linear-gradient-19" x1="621.66" y1="1979.51" x2="959.13" y2="2092.94" xlink:href="#linear-gradient"/><linearGradient id="linear-gradient-20" x1="773.8" y1="1715.41" x2="638.15" y2="1999.05" xlink:href="#linear-gradient-2"/><linearGradient id="linear-gradient-21" x1="1017.19" y1="512.5" x2="770.54" y2="1342.89" gradientTransform="matrix(-1, 0, 0, 1, 2290.55, 0)" gradientUnits="userSpaceOnUse"><stop offset="0" stop-color="#59ba49"/><stop offset="0.56" stop-color="#3e7c32"/></linearGradient><linearGradient id="linear-gradient-22" x1="697.32" y1="442.33" x2="578.11" y2="1872.9" xlink:href="#linear-gradient-4"/><linearGradient id="linear-gradient-23" x1="347.55" y1="1298.13" x2="706.85" y2="1298.13" xlink:href="#linear-gradient-3"/><linearGradient id="linear-gradient-24" x1="-1076.67" y1="-277.13" x2="744.26" y2="2071.46" gradientTransform="matrix(-0.88, 0.47, 0.47, 0.88, 606.83, 400.21)" gradientUnits="userSpaceOnUse"><stop offset="0" stop-color="#fcb148"/><stop offset="0.05" stop-color="#fdba46"/><stop offset="0.14" stop-color="#ffc244"/><stop offset="0.32" stop-color="#ffc444"/><stop offset="0.48" stop-color="#fdb946"/><stop offset="0.78" stop-color="#f99c4d"/><stop offset="0.87" stop-color="#f8924f"/><stop offset="1" stop-color="#f8924f"/></linearGradient><linearGradient id="linear-gradient-25" x1="-1799.75" y1="283.52" x2="21.83" y2="2632.94" xlink:href="#linear-gradient-24"/><linearGradient id="linear-gradient-26" x1="-895.85" y1="157.56" x2="864.55" y2="2428.06" gradientTransform="matrix(-1, 0, 0, 1, 2290.55, 0)" xlink:href="#linear-gradient-24"/><linearGradient id="linear-gradient-27" x1="-558.57" y1="-21.49" x2="14.03" y2="910.82" gradientTransform="matrix(-0.88, 0.47, 0.47, 0.88, 606.83, 400.21)" gradientUnits="userSpaceOnUse"><stop offset="0" stop-color="#311944"/><stop offset="1" stop-color="#6b3976"/></linearGradient><linearGradient id="linear-gradient-28" x1="-1076.68" y1="-277.14" x2="744.26" y2="2071.46" xlink:href="#linear-gradient-24"/><linearGradient id="linear-gradient-29" x1="-148.89" y1="546.22" x2="-123.01" y2="698.89" xlink:href="#linear-gradient-24"/><linearGradient id="linear-gradient-30" x1="-277.04" y1="-194.41" x2="295.57" y2="737.91" xlink:href="#linear-gradient-27"/><linearGradient id="linear-gradient-31" x1="-735.84" y1="369.36" x2="30.49" y2="1357.75" gradientTransform="matrix(-1, 0, 0, 1, 2290.55, 0)" xlink:href="#linear-gradient-24"/><linearGradient id="linear-gradient-32" x1="760.5" y1="2624.95" x2="749.95" y2="2783.18" gradientTransform="matrix(-1, 0, 0, 1, 2290.55, 0)" gradientUnits="userSpaceOnUse"><stop offset="0" stop-color="#ff9085"/><stop offset="1" stop-color="#fb6fbb"/></linearGradient><linearGradient id="linear-gradient-33" x1="737.72" y1="2623.44" x2="727.17" y2="2781.66" xlink:href="#linear-gradient-32"/><linearGradient id="linear-gradient-34" x1="618.6" y1="2528.03" x2="915.32" y2="2528.03" xlink:href="#linear-gradient-32"/><linearGradient id="linear-gradient-35" x1="761.71" y1="2597.87" x2="765.36" y2="2548.64" xlink:href="#linear-gradient-32"/><linearGradient id="linear-gradient-36" x1="788.72" y1="2485.09" x2="741.32" y2="2590.84" gradientTransform="matrix(-1, 0, 0, 1, 2290.55, 0)" xlink:href="#linear-gradient-24"/><linearGradient id="linear-gradient-37" x1="737.06" y1="2387.13" x2="769.12" y2="2387.13" gradientTransform="matrix(-1, 0, 0, 1, 2290.55, 0)" xlink:href="#linear-gradient-27"/><linearGradient id="linear-gradient-38" x1="744.54" y1="2430.85" x2="846.84" y2="2430.85" gradientTransform="matrix(-1, 0, 0, 1, 2290.55, 0)" xlink:href="#linear-gradient-27"/><linearGradient id="linear-gradient-39" x1="945.17" y1="2180.11" x2="834.37" y2="2356.48" gradientTransform="matrix(-1, 0, 0, 1, 2290.55, 0)" gradientUnits="userSpaceOnUse"><stop offset="0" stop-color="#59ba49"/><stop offset="0.63" stop-color="#3e7c32"/></linearGradient><linearGradient id="linear-gradient-40" x1="818.06" y1="2262.9" x2="1010.55" y2="2262.9" xlink:href="#linear-gradient-3"/><linearGradient id="linear-gradient-41" x1="-3586.91" y1="2304.6" x2="-3455.96" y2="2304.6" gradientTransform="translate(5121.3)" xlink:href="#linear-gradient-39"/><linearGradient id="linear-gradient-42" x1="-3577.72" y1="2305.41" x2="-3456.71" y2="2305.41" gradientTransform="translate(5121.3)" xlink:href="#linear-gradient-3"/><linearGradient id="linear-gradient-43" x1="-157.31" y1="3569.52" x2="-147.33" y2="3749.12" gradientTransform="translate(2886.22 246.64) rotate(43.91)" gradientUnits="userSpaceOnUse"><stop offset="0" stop-color="#444b8c"/><stop offset="1" stop-color="#26264f"/></linearGradient><linearGradient id="linear-gradient-44" x1="1697.24" y1="2677.32" x2="1712.72" y2="2955.85" gradientTransform="matrix(-1, 0, 0, 1, 2290.55, 0)" xlink:href="#linear-gradient-43"/><linearGradient id="linear-gradient-45" x1="1726.47" y1="2814.58" x2="1718.25" y2="2438.52" xlink:href="#linear-gradient-2"/><linearGradient id="linear-gradient-46" x1="1607.07" y1="2570.16" x2="1763.25" y2="2360.55" gradientTransform="matrix(-1, 0, 0, 1, 2290.55, 0)" xlink:href="#linear-gradient-27"/><linearGradient id="linear-gradient-47" x1="1626.99" y1="2585" x2="1783.17" y2="2375.39" gradientTransform="matrix(-1, 0, 0, 1, 2290.55, 0)" xlink:href="#linear-gradient-27"/><linearGradient id="linear-gradient-48" x1="2051.6" y1="2790.27" x2="2040.1" y2="2264.31" xlink:href="#linear-gradient-2"/><linearGradient id="linear-gradient-49" x1="1943.77" y1="2662.48" x2="1910.66" y2="2427.23" gradientTransform="matrix(-1, 0, 0, 1, 2290.55, 0)" xlink:href="#linear-gradient-27"/><linearGradient id="linear-gradient-50" x1="1769.92" y1="1487.9" x2="2097.89" y2="2021.91" gradientTransform="matrix(-1, 0, 0, 1, 2290.55, 0)" xlink:href="#linear-gradient-43"/><linearGradient id="linear-gradient-51" x1="1223.01" y1="1873.23" x2="1173.66" y2="2023.07" xlink:href="#linear-gradient-2"/><linearGradient id="linear-gradient-52" x1="1060.69" y1="1978.34" x2="1265.08" y2="2241.97" gradientTransform="matrix(-1, 0, 0, 1, 2290.55, 0)" gradientUnits="userSpaceOnUse"><stop offset="0" stop-color="#87dc75"/><stop offset="1" stop-color="#3e7c32"/></linearGradient><linearGradient id="linear-gradient-53" x1="979.53" y1="2041.27" x2="1184" y2="2304.99" xlink:href="#linear-gradient-52"/><linearGradient id="linear-gradient-54" x1="937.89" y1="2083.28" x2="1129.98" y2="2331.03" xlink:href="#linear-gradient-3"/><linearGradient id="linear-gradient-55" x1="1118.85" y1="2007.04" x2="1183.12" y2="2111.69" gradientTransform="matrix(-1, 0, 0, 1, 2290.55, 0)" xlink:href="#linear-gradient-27"/><linearGradient id="linear-gradient-56" x1="1060.69" y1="1978.35" x2="1265.08" y2="2241.97" gradientTransform="matrix(-1, 0, 0, 1, 2290.55, 0)" gradientUnits="userSpaceOnUse"><stop offset="0" stop-color="#3e7c32"/><stop offset="1" stop-color="#cdffc2"/></linearGradient><linearGradient id="linear-gradient-57" x1="1150.45" y1="1987.63" x2="1214.72" y2="2092.28" gradientTransform="matrix(-1, 0, 0, 1, 2290.55, 0)" xlink:href="#linear-gradient-27"/><linearGradient id="linear-gradient-58" x1="1214.43" y1="1870.4" x2="1165.08" y2="2020.24" xlink:href="#linear-gradient-2"/><linearGradient id="linear-gradient-59" x1="1610.99" y1="1767.66" x2="1267.2" y2="2065.77" gradientTransform="matrix(-1, 0, 0, 1, 2290.55, 0)" gradientUnits="userSpaceOnUse"><stop offset="0.49" stop-color="#ebeff2"/><stop offset="1" stop-color="#fff"/></linearGradient><linearGradient id="linear-gradient-60" x1="1879.49" y1="2200.59" x2="1473.18" y2="1760.63" xlink:href="#linear-gradient-59"/><linearGradient id="linear-gradient-61" x1="1667.55" y1="1870.95" x2="1757.29" y2="1965.92" xlink:href="#linear-gradient-2"/><linearGradient id="linear-gradient-62" x1="2013" y1="2077.29" x2="1606.7" y2="1637.33" xlink:href="#linear-gradient-59"/><linearGradient id="linear-gradient-63" x1="1801.17" y1="1936.65" x2="1896.73" y2="1797.94" gradientTransform="matrix(-0.98, -0.21, -0.21, 0.98, 2831.06, 212.69)" xlink:href="#linear-gradient-2"/><linearGradient id="linear-gradient-64" x1="1792.51" y1="1866.3" x2="1943.55" y2="1775.36" gradientTransform="matrix(-0.98, -0.21, -0.21, 0.98, 2831.06, 212.69)" xlink:href="#linear-gradient-2"/><linearGradient id="linear-gradient-65" x1="1753.43" y1="2487.2" x2="2900" y2="2487.2" gradientTransform="matrix(1, 0, 0, 1, 0, 0)" xlink:href="#linear-gradient-3"/><linearGradient id="linear-gradient-66" x1="812.56" y1="1255.89" x2="854.47" y2="1383.82" gradientTransform="matrix(-1, 0, 0, 1, 3080.91, 0)" xlink:href="#linear-gradient-2"/><linearGradient id="linear-gradient-67" x1="513.24" y1="2331.49" x2="846.5" y2="1561.46" gradientTransform="matrix(-1, 0, 0, 1, 3080.91, 0)" gradientUnits="userSpaceOnUse"><stop offset="0" stop-color="#aa80f9"/><stop offset="1" stop-color="#6165d7"/></linearGradient><linearGradient id="linear-gradient-68" x1="689.3" y1="2804.82" x2="755.92" y2="2804.82" gradientTransform="translate(2042.49 -96.71) rotate(5.15)" xlink:href="#linear-gradient-43"/><linearGradient id="linear-gradient-69" x1="239.33" y1="2762.49" x2="268.56" y2="2701.99" gradientTransform="translate(2468.46 -11.05) rotate(3.98)" xlink:href="#linear-gradient-2"/><linearGradient id="linear-gradient-70" x1="389.56" y1="2793.49" x2="460.34" y2="2793.49" gradientTransform="translate(2463.03 -64.98) rotate(12.32)" xlink:href="#linear-gradient-43"/><linearGradient id="linear-gradient-71" x1="201.84" y1="2783.38" x2="231.69" y2="2721.6" gradientTransform="matrix(0.99, 0.15, -0.15, 0.99, 2495.31, -27.22)" xlink:href="#linear-gradient-2"/><linearGradient id="linear-gradient-72" x1="1215.64" y1="2550.83" x2="1026.85" y2="2125.24" gradientTransform="matrix(-1, 0.05, 0.05, 1, 3342.83, 19)" gradientUnits="userSpaceOnUse"><stop offset="0" stop-color="#311944"/><stop offset="1" stop-color="#893976"/></linearGradient><linearGradient id="linear-gradient-73" x1="1186.37" y1="2563.81" x2="997.57" y2="2138.23" xlink:href="#linear-gradient-72"/><linearGradient id="linear-gradient-74" x1="658.67" y1="2665.48" x2="469.88" y2="2239.89" gradientTransform="matrix(-1, -0.07, -0.07, 1, 3213.19, 41.26)" xlink:href="#linear-gradient-72"/><linearGradient id="linear-gradient-75" x1="565.1" y1="2353.93" x2="898.36" y2="1583.91" xlink:href="#linear-gradient-67"/><linearGradient id="linear-gradient-76" x1="470.77" y1="2170.42" x2="759.43" y2="1503.43" xlink:href="#linear-gradient-67"/><linearGradient id="linear-gradient-77" x1="1324.08" y1="1180.15" x2="1331.51" y2="982.21" gradientTransform="matrix(-0.89, 0.45, 0.45, 0.89, 3182.59, 97.25)" xlink:href="#linear-gradient-2"/><linearGradient id="linear-gradient-78" x1="-329.27" y1="1461.22" x2="-379.65" y2="1333.25" gradientTransform="translate(2772.43 215.74) rotate(-2.84)" xlink:href="#linear-gradient-27"/><linearGradient id="linear-gradient-79" x1="311.18" y1="1385.72" x2="308.87" y2="1572.4" gradientTransform="matrix(-1, -0.01, -0.01, 1, 2794.55, 219.55)" xlink:href="#linear-gradient-2"/><linearGradient id="linear-gradient-80" x1="-344.66" y1="1467.35" x2="-395.1" y2="1339.25" gradientTransform="translate(2772.43 215.74) rotate(-2.84)" xlink:href="#linear-gradient-27"/><linearGradient id="linear-gradient-81" x1="-394.02" y1="1390.16" x2="-391.4" y2="1413.55" gradientTransform="translate(2772.43 215.74) rotate(-2.84)" gradientUnits="userSpaceOnUse"><stop offset="0" stop-color="#ffc444"/><stop offset="1" stop-color="#f36f56"/></linearGradient><linearGradient id="linear-gradient-82" x1="27.94" y1="3192.35" x2="41.34" y2="3233.25" gradientTransform="translate(5197.45 4205.91) rotate(128.1)" xlink:href="#linear-gradient-2"/><linearGradient id="linear-gradient-83" x1="282.61" y1="2193.22" x2="651.08" y2="1341.83" xlink:href="#linear-gradient-67"/><linearGradient id="linear-gradient-84" x1="509.16" y1="2187.04" x2="797.83" y2="1520.04" xlink:href="#linear-gradient-67"/></defs><g class="cls-1"><g id="Illustration"><path class="cls-2" d="M175,1146.19C248.1,667.44,548,79.26,1140.44,17.71c0,0,449.81-54.72,893.24,28.21,263.17,49.21,493.93,195.72,640,406.28s194.79,467.31,135.6,712.09c-38.45,159-64.43,323.54-57.3,486.9,12.41,284.33,5.27,549.73-270.66,719.3-246.38,151.4-556.45,284.93-852.26,308.32-201,15.89-426.47-9.83-620.23-62.16C21.36,2349.91,101.81,1625,175,1146.19Z"/><path class="cls-3" d="M262.13,2046.13c1.25,10.79,6.49,19.49,13.4,22.21,17.26,6.79,39.59,9.35,65.69,9.38,26.51,0,49.13-2.66,66.53-9.55,6.69-2.65,11.83-10.92,13.26-21.31l46.28-337.31h-244Z"/><ellipse class="cls-4" cx="345.27" cy="1709.55" rx="122.02" ry="18.76"/><path class="cls-5" d="M335.18,1708.26H308.55C125.63,1578,92.23,1484.9,99.88,1421.72c6.77-55.85,44.09-75.76,99.63-214.43,33.12-82.66,49.68-124,48.39-168.88-2.82-98.11-65-110.9-98.68-239.1-13.43-51.1-35.7-135.76,3.8-218.22,42.36-88.47,135.82-149.77,159.27-132.81,15.54,11.24.18,57-15.06,102.45C256.87,671,204.81,698.62,199.51,769c-3.27,43.45,14.47,61.26,54.08,144.22,80.21,168,123.57,258.79,106.26,347.26-23.67,121-140.48,133.75-148,239.09C205.72,1585.21,277.06,1660.06,335.18,1708.26Z"/><path class="cls-6" d="M466.12,412.2c25.39-3.36,80.72,104.37,79.7,220.12-1,112.45-54.25,128.88-70.21,244.79-20.28,147.22,60,161.57,47.44,305.51-11.5,131.68-81.62,153.42-121.45,334a823.18,823.18,0,0,0-19,193.55H356.06c-54.24-112.58-67.93-206.11-70.21-271.35-5.83-166.67,60.73-207,37.95-370C308.66,960.43,273,933.39,287.74,843c9.11-55.75,32.12-103.35,70.22-182.17,36.38-75.27,53.74-91.5,75.9-157.5C454.49,441.85,453.57,413.87,466.12,412.2Z"/><path class="cls-7" d="M411.09,1706.36c-3.3-40.62-1.45-98.32,28.46-153.71,50.36-93.23,127.18-81.66,189.76-165.09,65.82-87.74,76.42-228,34.16-328.28-40.62-96.43-113.53-117.83-113.86-204.94-.26-70.45,48.31-121.19,41.75-125.24-6.75-4.17-61.74,47.36-83.74,123.33-8.6,29.69-12.14,63.06,0,153.72,18.33,136.86,39,154.68,38.2,204.94-1.62,105.75-105.75,118.74-159.4,237.2-24.34,53.73-43.93,137-15.18,261.86Z"/><path class="cls-8" d="M1259.58,1516.33c69.62-102,160.57-268.82,188.07-487.76,13.55-107.84,15.51-258.6-43.87-414.65-13.42-35.25-68.7-180.52-127.32-175.53-24.47,2.09-45,30-53.32,52.45C1196.29,563.49,1279.81,626,1249.41,685c-9.55,18.53-29.21,34.61-42.39,31-6-1.66-24.51-11.23-23.64-122.67,1.16-150.32,36.27-178,28.49-278.88-3.18-41.12-12.46-161.47-83.69-189.89-22.46-9-58.22-11.63-80,7.57-36.77,32.37-6.71,102.79,12.9,234,19.85,132.78,20.12,268.72,6,271.09-11.18,1.87-35.38-79.29-48.7-140-23.9-109-9.7-138.19-25.09-212.4C967.36,159.91,884.61,37.63,841.5,47.18,799.19,56.55,797.06,192.44,797,202c-.63,68.07,15.79,99.54,59.88,259.39C896,603.5,896.51,627.37,888.7,631c-10.56,5-36.64-26.93-51.75-50-41-62.73-40.56-120.87-47.6-173.58-14.69-110-70-255.93-133.94-261.38C621,143.11,588.69,181.21,575,208.48c-15,29.86-20.11,71.56,11.71,157.27,61.67,166.11,150.18,196.1,176.95,337.65,8.1,42.83,11,98.4-2.56,102.65-15.53,4.86-49.43-58.35-82.05-119.85-68-128.27-76.27-180.07-102.28-181.26-33.47-1.53-73.84,81.7-85.13,159.62-8.59,59.32-10.53,186,150,392.92C828.5,1298.29,1071.93,1437.16,1259.58,1516.33Z"/><path class="cls-9" d="M754.29,492.6c74.31,143.82,51.59,179.29,114.85,328.8C923,948.76,967.2,988.44,1053,1121.78c59.27,92.1,133.64,221.52,204.72,390.87-319.22-162.17-399.39-289.79-403.88-382.1C852,1093.3,859,989.8,793,932.28c-38.83-33.8-62.69-16.71-116.22-55.12-90.26-64.77-107.3-174.26-109.31-188.59-7.38-52.51,5.76-72.73,6.68-112,.47-19.91-2.27-42.6-10.91-68a25.59,25.59,0,0,1,13.56-3.67c26,1.19,34.25,53,102.28,181.26,32.62,61.5,66.52,124.71,82.05,119.85,13.59-4.25,10.66-59.82,2.56-102.65C736.89,561.85,648.38,531.86,586.71,365.75,554.89,280,560,238.34,575,208.48c12.51-24.93,40.59-58.79,71.59-62.22-6.55,37.21-8.51,78.57-1.15,122.4C659.8,354.22,698.68,385,754.29,492.6Z"/><path class="cls-9" d="M1149.34,359.24c5.14,75.68-11.48,93.49-20.48,188.62-11.52,121.79-17.29,182.69,12.77,244.87C1184,880.42,1255,886.09,1270.15,975.61c6.61,38.89-5.38,46.08,2.13,96.68,11.23,75.7,47,120.12,60.92,147.44,24.39,48,26,131.75-70.59,289.32,44.87-270.19-11.2-407-81-482.25-63.06-67.95-118.33-65.21-174.35-155.15C932.71,752,992.76,686.36,937.67,458.5c-33.4-138.17-64.28-155.71-78.54-276.84a709.67,709.67,0,0,1-3-133.24C901.24,63.2,970.05,172.91,993.25,284.83c15.39,74.21,1.19,103.44,25.09,212.4,13.32,60.71,37.52,141.87,48.7,140,14.13-2.37,13.86-138.31-6-271.09-19.61-131.21-49.67-201.63-12.9-234,17.52-15.43,44-16.72,65.44-12a669,669,0,0,0,6.72,86.37C1130.64,278.34,1144.91,294.12,1149.34,359.24Z"/><path class="cls-2" d="M1214.81,1814.18c-43.16,21.91-167.53,77.53-317.09,41.08C794,1830,661.64,1756.38,623.39,1640c-11.12-33.81-23.77-100.06-1.47-112.87,15.56-8.94,42.81,11.21,48.1,15.13,45.3,33.49,33,79.38,78.66,117.52,17.73,14.83,43.23,27.67,48.62,22,12.21-12.9-98.22-100-160.85-245.22-51.24-118.84-72.08-280.33-10.7-323,2.31-1.61,26.6-18.06,44.53-9.1,37.72,18.83-6.73,123.1,52.07,211.23,13.81,20.7,34.34,42,41.48,38.24,15.22-8.09-47-120.71-73.58-288.9C667,918,699.91,856.29,723.58,826.82c6.36-7.93,36.52-44,55.62-36.46,18,7.08,17.59,49.52,17.25,83.28-.82,80.09-22.27,103.8-12.37,153.24,8.59,42.92,31.7,79.18,39.1,77,9.15-2.66-10.76-62.67-12.14-148.74-.69-43.24-3.23-201.41,80.42-248.37,18-10.13,46.47-18.67,58.61-7.23,12.54,11.82,1.2,38.85-23.25,112.25-15.15,45.49-33.5,103.24-43.21,170.65-7.58,52.6-4.35,72.5,5.74,77.63,8.46,4.32,21.38-1.95,29.27-8.83,39.11-34.15-15.94-109.62,19.07-196,10.58-26.12,34.07-64.78,55.71-62.13,37.58,4.6,50.7,131.48,52.14,146.22,5.88,60.37,14.26,146.38-26.93,236.15-21,45.78-52.7,87.77-35.44,114.26,4.61,7.08,14.15,15.26,23.76,14.17,22.49-2.56,23-53.33,60.64-119.09,15.67-27.35,32.65-57,51-55,20.71,2.2,35.86,44.09,40.28,76.3,12.48,91-52,168.46-33.85,182,1.64,1.23,8.24.71,21.45-.34,29.71-2.37,36.78-6.9,46.62-4.85,22.69,4.74,33.82,39,34.94,42.63,18.45,59.12-56.48,98.87-94.19,224-19.46,64.53-10.53,90.49-4.84,102.55C1149,1794.66,1197.51,1809.68,1214.81,1814.18Z"/><g class="cls-10"><path class="cls-11" d="M1218.34,1813c-2,.19-3.91.37-5.82.53l1.69.45Z"/><path class="cls-12" d="M1214.81,1814.18l-.62.31q7.85-1.18,16-2.74c-4,.5-8,.92-11.82,1.29l-4.13,1Z"/><path class="cls-13" d="M1143.36,1773.8c14.61,16.5,33.55,26.77,49.07,33A239.11,239.11,0,0,1,1143.36,1773.8Z"/><path class="cls-14" d="M1209.91,1815.12c1.32-.18,2.67-.39,4-.59l-1-.21-3.17.71Z"/><path class="cls-15" d="M638.63,1250.9c3.75,68.95,47.64,87.17,102.33,195,33,65.08,22.53,69.3,47.91,120.29,14,28.09,105.4,204,291.26,244.59,25.78,5.62,70.67,12.4,128.26,4.58l1.32-.3-2.47-1.07c-75.2,5.1-114.15-14.94-136-36.1-29.08-28.13-21.7-55.9-65.09-102.92-44.87-48.62-67.47-43.5-90.42-78-43.3-65.18,16.51-114.5-16.5-200.28-29.29-76.1-88.21-68-109.71-147-14.17-52.07,10.15-60.26-2.73-130.74-13.82-75.61-43.9-77.68-48.74-139.33-4.43-56.33,19.49-69.9,22-139.82a316.41,316.41,0,0,0-1.66-45.32c-15.28,8.91-30.45,27.1-34.75,32.46C699.91,856.29,667,918,690.25,1065c26.59,168.19,88.8,280.81,73.58,288.9-7.14,3.8-27.67-17.54-41.48-38.24-58.8-88.13-14.35-192.4-52.07-211.23-8.77-4.38-19.06-2.68-27.55.38a289.25,289.25,0,0,1,5,33.34C653,1196,636.24,1207,638.63,1250.9Z"/><path class="cls-16" d="M1210.05,1813.75c-2.06-.43-4.15-.88-6.29-1.38l3.48,1.59Z"/><path class="cls-17" d="M1209.71,1815l3.17-.71-2.83-.57-2.81.21Z"/><path class="cls-18" d="M1208.39,1815.33l1.52-.21-.2-.09Z"/><path class="cls-15" d="M1208.39,1815.33a724.45,724.45,0,0,1-177.83,17.53C952.41,1830.75,868,1827.27,817,1771c-15.1-16.67-17.71-27.39-41.26-49.51-48.91-45.92-81.52-40.85-107.69-78.09-17.88-25.43-9.25-37.14-23.47-82.67a291.86,291.86,0,0,0-13.87-35.81,18.12,18.12,0,0,0-8.77,2.24c-22.3,12.81-9.65,79.06,1.47,112.87,38.25,116.39,170.61,190,274.33,215.27,146,35.57,267.92-16.54,313.81-39.43l-1.62-.71Z"/><path class="cls-15" d="M1118.52,1129.78c-18.3-1.94-35.28,27.69-51,55-37.69,65.76-38.15,116.53-60.64,119.09-9.61,1.09-19.15-7.09-23.76-14.17-17.26-26.49,14.44-68.48,35.44-114.26,41.19-89.77,32.81-175.78,26.93-236.15-1.44-14.74-14.56-141.62-52.14-146.22-21.64-2.65-45.12,36-55.71,62.13-35,86.41,20,161.88-19.07,196-7.89,6.88-20.81,13.15-29.27,8.83-10.09-5.13-13.32-25-5.74-77.63,9.71-67.41,28.06-125.16,43.21-170.65,24.45-73.4,35.79-100.43,23.25-112.25-6.6-6.21-18-6.51-29.93-3.88a136.24,136.24,0,0,1-3.57,31.93c-9.23,39-29.23,44.11-40,87.69-9.58,38.89,3.74,45.49-3.72,94.8-7.56,50-22.12,48.94-27,87.73-6.83,54.38,21.08,62.2,26.58,133.69,5.08,66-17.38,76.46-2.9,119.18,15,44.27,40.9,38.37,70.31,88,40,67.5,2.69,96.41,42.45,161.54,29.58,48.47,63.45,54.07,70.86,100.83,4.35,27.38-5.76,34.92-.81,65.86,7.18,44.89,35.84,75.17,47.81,87.82,32.38,34.22,71.85,50.18,103.57,57.64q-5.79-2.68-11.33-5.55c-15.52-6.25-34.46-16.52-49.07-33-17.29-15.29-30.72-32.52-39.35-51.33-17.82-38.85-17.69-69.73-17.69-69.73.26-62.65,44.14-86.53,31.51-122.74s-64-34.38-67.36-65c-2.45-22.43,24.68-27.11,37-63.1,13.85-40.34-12.82-56.06-6.14-104,6.57-47.22,35.24-51.93,47.86-99,4.12-15.35,6.68-35.79,2.58-61.94C1127.71,1132.89,1123.26,1130.29,1118.52,1129.78Z"/><path class="cls-19" d="M1210.05,1813.75l2.47-.18a183.69,183.69,0,0,1-20.09-6.75q5.55,2.87,11.33,5.55C1205.9,1812.87,1208,1813.32,1210.05,1813.75Z"/><path class="cls-20" d="M1214.21,1814l-1.33.3,1,.21.27,0,.62-.31Z"/><path class="cls-21" d="M1214.06,1814.56l.13-.07-.27,0Z"/><path class="cls-22" d="M1209.91,1815.12l1.62.71,2.53-1.27-.14,0C1212.58,1814.73,1211.23,1814.94,1209.91,1815.12Z"/><path class="cls-23" d="M1212.88,1814.32l1.33-.3-1.69-.45-2.47.18Z"/></g><path class="cls-24" d="M1481,2193.51c1.35,11.69,7,21.11,14.51,24,18.69,7.36,42.88,10.14,71.16,10.17,28.7,0,53.22-2.88,72.06-10.35,7.25-2.87,12.82-11.82,14.36-23.08l50.13-365.36H1438.88Z"/><ellipse class="cls-25" cx="1571.05" cy="1828.94" rx="132.17" ry="20.33"/><path class="cls-26" d="M1560.13,1827.53h-28.85c-198.14-141.06-234.31-241.93-226-310.37,7.32-60.49,47.75-82.06,107.91-232.26,35.87-89.54,53.81-134.31,52.41-182.93-3.06-106.27-70.37-120.13-106.88-259-14.56-55.35-38.67-147,4.11-236.38,45.89-95.82,147.12-162.22,172.51-143.86,16.84,12.18.2,61.78-16.3,111C1475.3,704,1418.91,733.92,1413.17,810.1c-3.54,47.06,15.67,66.35,58.57,156.21,86.89,182,133.85,280.32,115.11,376.14-25.64,131.06-152.18,144.88-160.32,259C1419.9,1694.25,1497.17,1775.33,1560.13,1827.53Z"/><path class="cls-27" d="M1702,423.68c27.51-3.64,87.44,113.05,86.33,238.43-1.08,121.8-58.76,139.59-76,265.15-22,159.46,65,175,51.38,330.92-12.44,142.63-88.4,166.18-131.54,361.75a891.5,891.5,0,0,0-20.56,209.66h-28.77c-58.76-121.95-73.58-223.27-76-293.93-6.32-180.53,65.78-224.24,41.1-400.8-16.39-117.36-55-146.65-39-244.6,9.86-60.39,34.78-112,76-197.32,39.41-81.53,58.21-99.1,82.22-170.6C1689.35,455.79,1688.36,425.48,1702,423.68Z"/><path class="cls-28" d="M1642.34,1825.48c-3.56-44-1.57-106.5,30.84-166.49,54.54-101,137.75-88.46,205.54-178.82,71.29-95,82.77-246.92,37-355.59-44-104.45-123-127.63-123.33-222-.28-76.31,52.33-131.27,45.22-135.65-7.32-4.52-66.87,51.3-90.7,133.58-9.32,32.17-13.15,68.31,0,166.51,19.85,148.24,42.2,167.55,41.37,222-1.75,114.55-114.54,128.62-172.66,256.93-26.36,58.2-47.58,148.38-16.44,283.65Z"/><path class="cls-29" d="M1724,1090l113.49,939.81c14.45,119.65-63.93,230.56-181.62,256.47C1338.15,2356.27,722.76,2442,314.16,2183,233.28,2131.7,194,2034.29,213,1940.42l183.67-909.36A131.3,131.3,0,0,1,531.34,925.89L1599.67,974.6A131.31,131.31,0,0,1,1724,1090Z"/><polygon class="cls-30" points="2581.52 686.52 1619.94 1376.25 1740.26 1877.03 2593.72 829.64 2581.52 686.52"/><path class="cls-31" d="M2375.13,834.65l89.07,145.93L2895,882.69a44.48,44.48,0,0,0,11.68-4.16c21.55-10.13,33.76-34.27,28.56-58.68-22.32-109.57-74-235.75-159.93-381.43-14.29-24.14-43.63-32.45-67-22.58a52.19,52.19,0,0,0-20.52,15.84Z"/><path class="cls-32" d="M1468,1022a62.07,62.07,0,0,0,32.79-54.47c.18-34.5-1.23-844.82-439.68-851.6-429.53-6.75-487.33,901.6-492.5,1005.19a62.1,62.1,0,0,0,124,6.21c11.62-231.47,103.77-891.92,366.54-887.19,311.94,4.79,317.44,719.6,317.43,726.83a62.09,62.09,0,0,0,91.38,55Z"/><path class="cls-33" d="M213,1940.42l183.67-909.36A131.3,131.3,0,0,1,531.34,925.89l736.15,33.56c61.53,103.11,96.32,212.07,65.84,312.21-83.23,273.46-589.57,278.11-602.19,475.71-9.13,142.87,246.07,289.55,449.48,334.38,256.44,56.51,487.69-36.11,647.06-133.5l9.85,81.6c14.44,119.63-63.92,230.55-181.63,256.45C1338.15,2356.27,722.76,2442,314.16,2183,233.28,2131.71,194,2034.3,213,1940.42Z"/><path class="cls-34" d="M453.32,988c-2.22,71,268.54,137.17,604.77,147.69s610.6-38.56,612.82-109.6-268.54-137.17-604.77-147.69S455.54,917,453.32,988Z"/><path class="cls-35" d="M568.56,1121.12c3.77-75.45,35.64-577.64,218.6-842.38a414.3,414.3,0,0,0,86.5,94.82C750.34,577.86,700.89,962,692.6,1127.33a62.1,62.1,0,0,1-124-6.21Z"/><path class="cls-36" d="M2736.57,526.45c51.15,95.81,118.92,284,170.06,352.08,21.55-10.13,33.76-34.27,28.56-58.68-22.32-109.57-74-235.75-159.93-381.43-14.29-24.14-43.63-32.45-67-22.58C2702.3,434.28,2705.15,467.51,2736.57,526.45Z"/><path class="cls-37" d="M1672,2528l-49.68,223.28c0,14.41-44.18,26.09-98.69,26.09s-98.69-11.68-98.69-26.09L1375.23,2528Z"/><path class="cls-38" d="M1476,2732.81c20.74-28,9.39-47.53,32.81-79,35.27-47.4,84.91-35.37,109.39-69.28,8.53-11.81,14.09-29.36,10.63-56.49H1672l-49.68,223.28c0,14.41-44.18,26.09-98.69,26.09-37.57,0-70.22-5.55-86.89-13.72C1456.09,2754.69,1468.13,2743.45,1476,2732.81Z"/><ellipse class="cls-39" cx="1523.59" cy="2528.03" rx="148.36" ry="26.09"/><path class="cls-40" d="M1385.37,2527c0,11.41,61.89,20.66,138.22,20.66s138.23-9.25,138.23-20.66-61.89-20.67-138.23-20.67S1385.37,2515.58,1385.37,2527Z"/><path class="cls-41" d="M1654.48,2533.63c-18.5,8.15-70.09,14-130.89,14s-112.38-5.87-130.89-14c25-8.22,74.2-13.82,130.89-13.82S1629.51,2525.41,1654.48,2533.63Z"/><path class="cls-42" d="M1530.16,2420.63s.08-1.12.2-3.06.43-4.8.82-8.19a201.86,201.86,0,0,1,4.56-24.64c.57-2.2,1.22-4.38,1.83-6.55s1.37-4.23,2.1-6.23,1.48-3.92,2.27-5.71l2.32-5c.82-1.49,1.58-2.85,2.24-4.06a31.87,31.87,0,0,1,1.93-3l1.74-2.59.08-.11a1.35,1.35,0,0,0-2.17-1.59l-2,2.54a35,35,0,0,0-2.27,3l-2.69,4-2.84,5c-1,1.79-1.85,3.74-2.84,5.73s-1.78,4.14-2.7,6.28-1.67,4.38-2.44,6.61a205.93,205.93,0,0,0-6.78,25c-.7,3.47-1.23,6.38-1.55,8.44s-.48,3.27-.48,3.27a4.38,4.38,0,1,0,8.66,1.29c0-.12,0-.23,0-.35Z"/><path class="cls-43" d="M1539.8,2526.59s.1-.88.28-2.51c.1-.82.21-1.83.35-3s.34-2.4.55-3.83c.43-3,1-6.76,1.54-11,.47-4.44,1.14-9.38,1.39-14.92.47-5.49.36-11.53.29-17.85-.22-3.17-.44-6.43-.67-9.76s-.92-6.68-1.37-10.11c-.26-1.71-.53-3.43-.8-5.16s-.83-3.43-1.25-5.16c-.9-3.44-1.54-7-2.7-10.42s-2.38-6.85-3.58-10.31l-.9-2.58-1.14-2.49-2.29-5-2.29-5-1.14-2.47c-.43-.8-.91-1.57-1.36-2.36l-5.46-9.3c-.93-1.52-1.74-3.11-2.76-4.54s-2.06-2.85-3.09-4.26q-3.06-4.21-6-8.32a84.64,84.64,0,0,0-6.34-7.61l-6.25-7.11-3-3.4-3.18-3-6-5.75c-3.9-3.64-7.29-7.18-10.77-9.77l-8.71-7-7.58-6.11a2.5,2.5,0,0,0-3.27,3.77l.14.14,7,6.51,8,7.46c3.23,2.75,6.29,6.44,9.84,10.23l5.47,6,2.87,3.14,2.67,3.48c1.79,2.35,3.64,4.77,5.53,7.23a79.64,79.64,0,0,1,5.55,7.68l5.19,8.28,2.63,4.2c.88,1.42,1.52,3,2.3,4.45,1.49,3,3,6,4.5,9,.37.76.77,1.5,1.12,2.27l.9,2.37,1.79,4.74,1.8,4.72.89,2.35.66,2.43q1.32,4.83,2.61,9.62c.86,3.18,1.19,6.45,1.8,9.61.27,1.58.55,3.15.82,4.72s.59,3.15.72,4.71c.19,3.12,1,6.15,1,9.16v8.8a102.15,102.15,0,0,1-1.71,16.08c-.56,5-1.68,9.54-2.37,13.58-.89,4.18-1.74,7.82-2.37,10.82-.34,1.59-.68,3-.95,4.24s-.42,2.17-.57,3c-.29,1.62-.46,2.48-.46,2.48a10.2,10.2,0,1,0,20.07,3.7c0-.22.07-.44.1-.66Z"/><path class="cls-44" d="M1302.86,2206c13.35,56.4,54.94,201.11,166.33,134.66,1.84-1.11,3.73-2.28,5.62-3.5,0,0,46.64-103-75.77-140.86-77.41-24-100.82-36.67-104.11-28.27C1293,2172.93,1297.85,2184.94,1302.86,2206Z"/><path class="cls-45" d="M1302.86,2206c13.35,56.4,54.94,201.11,166.33,134.66-23.23-11.28-55-32.21-98.34-85.11-33.89-41.36-58.52-69.36-75.92-87.52C1293,2172.93,1297.85,2184.94,1302.86,2206Z"/><path class="cls-46" d="M1650.23,2269.65c-8.39,35.45-34.54,126.43-104.58,84.65-1.15-.69-2.34-1.43-3.53-2.2,0,0-29.32-64.74,47.64-88.56,48.67-15.06,63.38-23.05,65.45-17.77C1656.44,2248.85,1653.38,2256.4,1650.23,2269.65Z"/><path class="cls-47" d="M1650.23,2269.65c-8.39,35.45-34.54,126.43-104.58,84.65,14.61-7.09,34.56-20.25,61.83-53.5,21.31-26,36.8-43.61,47.73-55C1656.44,2248.85,1653.38,2256.4,1650.23,2269.65Z"/><path class="cls-48" d="M234.86,2729.7c-4.84.28-11.39,1.55-15.76,6.33-10.59,11.58-2.75,37.69,12.14,51.44,15.76,14.55,41.33,17.05,44.87,10.9,1.74-3-1.8-8.22-3.92-11.33-8-11.78-17.67-9.32-22.27-18-4.69-8.82,3.12-15.61-1.48-26.31C245.47,2735.85,239.28,2731.88,234.86,2729.7Z"/><path class="cls-49" d="M554.55,2776.36s-1.93,15.4-.64,20.55,46.07,8.89,61.27,7.1-9.06-17.32-18.74-20.23S554.55,2776.36,554.55,2776.36Z"/><path class="cls-50" d="M577.09,2750.67l-4.72,30.89s-12,5.41-17.82.07l-.64-32.34Z"/><path class="cls-51" d="M670.84,2180.55a800.26,800.26,0,0,1,1.72,142.7c-6.13,78.95-21.92,128.92-41.72,213.1-12.1,51.45-28.4,127.17-43.15,221.87a41.7,41.7,0,0,1-26.47,5.19,40.2,40.2,0,0,1-15.89-6c-38.71-118.29-27.28-191.59-8.6-237.26,8-19.47,17.62-34.83,22.78-64.75,6.83-39.6-1.62-61.73-13.66-153.44-8.58-65.36-7.09-75.47-1.38-85.27C567.29,2177.46,637.11,2178.22,670.84,2180.55Z"/><path class="cls-52" d="M536.73,2520.11c8-19.47,17.62-34.83,22.78-64.75,6.83-39.6-1.62-61.73-13.66-153.44-8.58-65.36-7.09-75.47-1.38-85.27,12.4-21.3,38.69-30.75,65.51-34.61-.35,1.38-.71,2.76-1,4.09-14.07,64.28,39.65,103.5,15.42,174.16-11.95,34.84-31,42.82-35.45,83.23-4.16,37.85,10.93,45.74,7.7,80.14-4.81,51.43-41.35,63.88-50.86,103.27-6.18,25.59-1,63,44.15,117.18-.75,4.67-1.5,9.35-2.24,14.11a41.7,41.7,0,0,1-26.47,5.19,40.2,40.2,0,0,1-15.89-6C506.62,2639.08,518.05,2565.78,536.73,2520.11Z"/><path class="cls-53" d="M253.5,2706.88l-11.28,35.51c-1.51,4.76-7.51,6.77-11.23,3.45a16.59,16.59,0,0,1-2.76-3.23V2699Z"/><path class="cls-54" d="M545.83,2211.1c8.69,12.93-1.33,32.62-113.27,194.3-66.22,95.65-84.08,119.61-109.22,163.8a1060,1060,0,0,0-72.1,154.32,27.57,27.57,0,0,1-14.73-1,30.48,30.48,0,0,1-10.46-7.08c-5.54-5.87-29.28-54.75,1.41-164,13.76-49,27.08-96.43,66.09-143.09,25.42-30.4,38.92-33.16,59.55-66.51,28.95-46.78,18.9-68,40.25-95.92C432.11,2195.29,527.52,2183.86,545.83,2211.1Z"/><path class="cls-55" d="M613.9,1791.82c38.51-46,74.83-38.17,102.81-81.9,16.58-25.9,28.4-67,10.56-91.47-9.24-12.68-23.56-16.88-34.95-20.06-41.67-11.64-68.22,5.63-99.33,8.71-53.69,5.32-62.47-37.37-146.29-70.66-28.24-11.22-117.94-46.84-193.52-7.76-9.75,5-64.57,34.75-68,80.16-2.69,36,29,52.63,21.1,72.56-13.78,34.65-113.63-5.63-158.77,39C5.44,1762,24.44,1864.15,70.2,1927.74c67.66,94,189,97,214.34,97.59,127.12,3.08,256.55-75.19,294.51-165.55C587.31,1840.1,592,1817.94,613.9,1791.82Z"/><path class="cls-56" d="M1074.65,1990.73s37.38-3,48.34,1.39,27.08,22.47,25.85,31.49l-1.22,9s-23.2,9.93-29.57-1.08-13.35-20.41-24.86-22.26S1074.67,2001.77,1074.65,1990.73Z"/><path class="cls-57" d="M1182.92,2137l-38.64,99a26.22,26.22,0,0,1-31.57,15.73c-35.15-9.94-100.57-34.11-127.24-81.41a26.09,26.09,0,0,1,2.86-29.36l66.42-80.21a14.73,14.73,0,0,1,18.9-3.25l103.09,61.5A14.74,14.74,0,0,1,1182.92,2137Z"/><polygon class="cls-58" points="1289.15 2142.55 1157.43 2159.75 1142.77 2215.67 1282.76 2157.35 1289.15 2142.55"/><path class="cls-59" d="M1324.49,2129.07c.77,19-.82,34.2-4.4,46.22a6,6,0,0,1-7.33,4.1l-47.79-13.2V2145.7l51.22-21.95A6,6,0,0,1,1324.49,2129.07Z"/><path class="cls-60" d="M1161.2,2116.65a7,7,0,0,0,6.13-3.65c1.85-3.4,44.7-83.63,1.69-107.57-42.13-23.45-96,63.33-102,73.3a7,7,0,0,0,11.94,7.2c13.43-22.28,57.59-82.72,83.33-68.31,30.6,17-6.78,88-7.16,88.74a7,7,0,0,0,6.12,10.29Z"/><path class="cls-61" d="M988.33,2140.91l66.41-80.21a14.74,14.74,0,0,1,18.91-3.25l71,42.37c.62,13.47-1.72,26.09-10,34.38-22.74,22.63-73.07-3.77-84.8,15.11-8.49,13.64,9,41.69,26.72,56.92,22.36,19.2,50.15,22.3,71.08,21.13l-3.35,8.59a26.22,26.22,0,0,1-31.57,15.73c-35.15-9.94-100.57-34.11-127.24-81.41A26.09,26.09,0,0,1,988.33,2140.91Z"/><path class="cls-62" d="M1066.76,2057.67c-4,6.91,19.29,27.81,52,46.69s62.44,28.59,66.43,21.68-19.28-27.82-52-46.7S1070.75,2050.76,1066.76,2057.67Z"/><path class="cls-63" d="M1067,2078.73c4.38-7.26,34.17-55.24,66.32-71.72a46.53,46.53,0,0,0,3.52,14c-23,13.67-48.31,49-57.9,65a7,7,0,0,1-11.94-7.2Z"/><path class="cls-64" d="M1111.78,2001l27.43,18.66s-.18,8-11.67,0-19-8.62-19-8.62Z"/><path class="cls-65" d="M1087.68,1985.32q-3.24,14.61-6.49,29.22c-36.26,11.09-97.33,24.18-170.78,12.78-140.6-21.82-223.75-117.42-246.29-145.22-.31-63.85,19.63-120,52-126.9,6.24-1.33,4.05-51.18,76.93,43.26,51.24,66.4,58,83.47,76.67,104.55C901.92,1939.24,962.47,1979.36,1087.68,1985.32Z"/><path class="cls-66" d="M556.41,1730.83c37.84-38.18,115.41-16,130.7-11.62,22.22,6.36,69.77,20,88.66,59.19,9,18.65,10.59,41.22-22.92,134.53-50.26,139.94-79.57,160.72-69.52,216.11,6.34,35,24.26,61.1,10.17,78.1-11.54,13.92-34.24,9.31-61.58,8.14-81.95-3.54-83,29-174.26,33.69-75.28,3.87-80.29-18-144.11-5.49-42.54,8.33-74.41,24.71-82.43,13.62-8.41-11.63,16.95-42.95,19.51-46.07,33.74-41.08,65.44-31.17,102.47-66.62,14.43-13.81,7.25-13,46.72-77.85,21.51-35.31,39.06-60.85,55.52-84.8,59.89-87.14,60.79-74.66,72-99.91C560.68,1807,522.54,1765,556.41,1730.83Z"/><path class="cls-67" d="M250.63,2211c33.74-41.08,65.44-31.17,102.47-66.62,14.43-13.81,7.25-13,46.72-77.85,21.51-35.31,39.06-60.85,55.52-84.8,59.89-87.14,60.79-74.66,72-99.91,25.87-58.13,8.67-96.44,15.54-126.65,38,27,61.7,65.4,63.46,103.42,2.74,59.45-47.41,131.72-102.24,145.22-15.45,3.8-30.83,2.82-37.17,13.94-13.25,23.21,37.87,55.53,32.53,90.61-8.61,56.49-155.9,69.79-153.36,88.3,1.84,13.33,79.37,14.57,110.37,13.94,18.22-.37,35.31-.71,58.09-4.65,56.34-9.74,70.35-28.13,97.59-29,18.11-.61,42.15,6.6,71.6,37.11-12.57,5-30.83,2.13-51.86,1.23-81.95-3.54-83,29-174.26,33.69-75.28,3.87-80.29-18-144.11-5.49-42.54,8.33-74.41,24.71-82.43,13.62C222.71,2245.47,248.07,2214.15,250.63,2211Z"/><path class="cls-68" d="M559.64,1908.33s23.07-10.14,33.49-20,44.41-10,44.41-10,.19,12.17-13.75,18.6-38.5,11.42-38.5,11.42l-21.51,20.84Z"/><path class="cls-69" d="M641.86,1722.87c-21.93-34.09-128.32.46-173.16,19.28-50.63,21.26-118,49.55-131.31,112.79-6.71,31.91.77,70.64,24.14,95.46,41.94,44.55,136,45.22,215.6-18.35q-5-17.4-10-34.8c-87.28,27.47-111.06,25.46-115.18,17.37-5-9.7,15.58-33.52,38.5-46.13,25.63-14.09,43.5-8.24,64.48-13.07C613.34,1842,661.68,1753.7,641.86,1722.87Z"/><path class="cls-70" d="M673.27,1661.15s-13.11,38.11-29.43,44-42.14,12.74-45.38,15.38,86.74,31.85,137.19,18.4h0c-14.37-6.29-18.22-8.3-18.22-8.3a86.38,86.38,0,0,1-17.72-11.7,67.2,67.2,0,0,1-17.12-24.1l4.72-21.64Z"/><path class="cls-71" d="M668.17,1674.55s6.7,14.9,22.6,12.62c14.24-2.05,13.51-37.86,3.84-44-3.22-2-9.77-2.81-14.63-1-3.41,1.25-13.58,9.58-11.32,21.78-3.13-1.67-6.26-1.41-7.34.09-1.38,1.9.85,5.35,1.36,6.14A11.43,11.43,0,0,0,668.17,1674.55Z"/><g class="cls-72"><path class="cls-73" d="M1629.78,2505.63a2.06,2.06,0,0,0,2-2s.05-2.19,0-6.23a2.06,2.06,0,0,0-4.11.07c.06,3.92,0,6.06,0,6.08a2.05,2.05,0,0,0,2,2.09Z"/><path class="cls-73" d="M1627.28,2485.24c-.18-3.63-.43-7.74-.78-12.26a2.06,2.06,0,0,1,1.89-2.21,2,2,0,0,1,2.21,1.89c.35,4.57.6,8.71.78,12.38a2,2,0,0,1-2,2.15h-.1A2.06,2.06,0,0,1,1627.28,2485.24Zm-1.86-24.5q-.59-5.8-1.38-12.2a2.06,2.06,0,1,1,4.08-.51c.54,4.29,1,8.4,1.39,12.3a2.05,2.05,0,0,1-1.84,2.25h-.21A2.05,2.05,0,0,1,1625.42,2460.74Zm-3-24.37c-.58-3.92-1.22-8-1.93-12.12a2.05,2.05,0,0,1,1.67-2.38,2.09,2.09,0,0,1,2.38,1.68q1.08,6.27,2,12.22a2,2,0,0,1-1.73,2.33,1.53,1.53,0,0,1-.3,0A2.07,2.07,0,0,1,1622.38,2436.37Zm-4.16-24.19q-1.15-5.89-2.5-12a2.05,2.05,0,1,1,4-.89q1.37,6.16,2.53,12.11a2.06,2.06,0,0,1-1.62,2.42l-.4,0A2.07,2.07,0,0,1,1618.22,2412.18Zm-5.3-23.94q-1.45-5.86-3.1-11.86a2.06,2.06,0,1,1,4-1.09c1.1,4,2.14,8,3.12,12a2.06,2.06,0,0,1-1.5,2.49,2.14,2.14,0,0,1-.5.06A2.06,2.06,0,0,1,1612.92,2388.24Zm-6.5-23.65c-1.18-3.87-2.41-7.76-3.72-11.67a2.06,2.06,0,0,1,3.9-1.31q2,5.92,3.75,11.79a2.05,2.05,0,1,1-3.93,1.19Zm-7.77-23.23q-2.09-5.71-4.38-11.44a2.06,2.06,0,1,1,3.82-1.52q2.31,5.78,4.43,11.54a2.06,2.06,0,0,1-1.23,2.64,1.94,1.94,0,0,1-.71.13A2.07,2.07,0,0,1,1598.65,2341.36Zm-9.1-22.73q-2.44-5.58-5.09-11.14a2.06,2.06,0,1,1,3.72-1.76q2.67,5.61,5.14,11.25a2.07,2.07,0,0,1-1.06,2.71,2.2,2.2,0,0,1-.83.17A2.06,2.06,0,0,1,1589.55,2318.63ZM1579,2296.54c-1.87-3.59-3.81-7.18-5.83-10.74a2.06,2.06,0,0,1,3.58-2q3.08,5.42,5.9,10.88a2.06,2.06,0,0,1-3.65,1.89Zm-12-21.27q-3.18-5.19-6.6-10.28a2.05,2.05,0,1,1,3.41-2.29q3.46,5.16,6.7,10.41a2.06,2.06,0,0,1-.68,2.83,2,2,0,0,1-1.07.31A2.07,2.07,0,0,1,1567,2275.27ZM1553.36,2255c-2.42-3.3-4.91-6.57-7.41-9.7a2.06,2.06,0,1,1,3.22-2.56c2.53,3.17,5.06,6.48,7.51,9.84a2.05,2.05,0,1,1-3.32,2.42Zm-15.22-19.07c-2.66-3-5.43-6.09-8.22-9a2.06,2.06,0,1,1,3-2.84c2.83,3,5.64,6.06,8.34,9.15a2.06,2.06,0,0,1-1.55,3.41A2.08,2.08,0,0,1,1538.14,2235.91Zm-16.84-17.65c-2.91-2.79-5.94-5.55-9-8.22a2.06,2.06,0,1,1,2.7-3.1c3.11,2.71,6.19,5.52,9.15,8.35a2,2,0,0,1,.06,2.9,2,2,0,0,1-1.49.64A2.06,2.06,0,0,1,1521.3,2218.26Zm-18.38-16c-3.16-2.49-6.44-5-9.75-7.32a2.06,2.06,0,1,1,2.4-3.34c3.36,2.4,6.69,4.9,9.9,7.43a2.06,2.06,0,1,1-2.55,3.23Zm-19.83-14.16c-3.41-2.2-6.91-4.33-10.4-6.35a2.06,2.06,0,0,1,2.06-3.56c3.54,2,7.1,4.22,10.57,6.45a2.06,2.06,0,1,1-2.23,3.46ZM1462,2175.92c-3.63-1.87-7.31-3.66-11-5.32a2.06,2.06,0,0,1,1.7-3.75c3.71,1.69,7.46,3.51,11.14,5.41a2.06,2.06,0,0,1-.94,3.89A2.1,2.1,0,0,1,1462,2175.92Zm-22.16-10.13c-3.79-1.52-7.63-3-11.41-4.29a2.06,2.06,0,1,1,1.36-3.88c3.84,1.34,7.74,2.81,11.58,4.36a2.05,2.05,0,1,1-1.53,3.81Zm-23-8.08c-3.85-1.16-7.81-2.27-11.75-3.28a2.06,2.06,0,0,1,1-4c4,1,8,2.15,11.91,3.33a2.06,2.06,0,1,1-1.19,3.94Zm-23.62-6.08q-5.9-1.27-12-2.33a2.06,2.06,0,1,1,.71-4.05c4,.7,8.14,1.5,12.13,2.35a2.06,2.06,0,0,1-.43,4.07A2.15,2.15,0,0,1,1393.22,2151.63Zm-24-4.21q-6-.81-12.14-1.43a2.06,2.06,0,0,1,.41-4.1q6.24.63,12.29,1.46a2.05,2.05,0,0,1-.28,4.09A1.32,1.32,0,0,1,1369.17,2147.42Z"/><path class="cls-73" d="M1344.92,2145a2.06,2.06,0,0,0,.13-4.11q-3.08-.21-6.19-.37a2.1,2.1,0,0,0-2.16,2,2.06,2.06,0,0,0,2,2.15c2.06.1,4.1.23,6.13.36Z"/></g><g class="cls-72"><path class="cls-73" d="M1337.79,2161.5a2.06,2.06,0,0,0,.77-4c-3.76-1.53-5.85-2.25-5.85-2.25a2.06,2.06,0,0,0-1.33,3.89s2,.71,5.63,2.17A2.12,2.12,0,0,0,1337.79,2161.5Z"/><path class="cls-73" d="M1529.21,2482.24a2.05,2.05,0,0,1-1.9-2.2q.48-6.3.75-12.44a2.11,2.11,0,0,1,2.15-2,2.06,2.06,0,0,1,2,2.15q-.29,6.2-.76,12.55a2.06,2.06,0,0,1-2.05,1.91Zm1.25-25a2.06,2.06,0,0,1-2-2.09c0-1.73,0-3.46,0-5.17q0-3.66-.07-7.28a2.07,2.07,0,0,1,2-2.1,2,2,0,0,1,2.09,2q.07,3.66.08,7.36c0,1.74,0,3.48,0,5.23a2.06,2.06,0,0,1-2.06,2Zm-2.52-27q-.35-6.28-.89-12.4a2.06,2.06,0,0,1,4.1-.37q.55,6.2.89,12.55a2.06,2.06,0,0,1-1.94,2.17H1530A2.05,2.05,0,0,1,1527.94,2430.26Zm-2.22-24.76q-.79-6.26-1.8-12.31a2.06,2.06,0,0,1,4.06-.67c.68,4.12,1.29,8.31,1.82,12.46a2.07,2.07,0,0,1-1.79,2.3h-.26A2,2,0,0,1,1525.72,2405.5Zm-4.07-24.52c-.84-4.06-1.76-8.14-2.76-12.13a2.06,2.06,0,0,1,4-1c1,4,1.94,8.17,2.79,12.28a2.06,2.06,0,0,1-1.6,2.43,2,2,0,0,1-.42,0A2.06,2.06,0,0,1,1521.65,2381Zm-6-24.12c-1.16-4-2.42-8-3.74-11.85a2.06,2.06,0,0,1,3.9-1.32c1.34,3.94,2.61,8,3.79,12a2.06,2.06,0,0,1-1.4,2.55,1.9,1.9,0,0,1-.58.09A2,2,0,0,1,1515.65,2356.86Zm-8-23.53c-1.49-3.85-3.08-7.71-4.73-11.49a2.06,2.06,0,1,1,3.77-1.65c1.67,3.83,3.29,7.75,4.79,11.65a2.05,2.05,0,0,1-1.17,2.66,2,2,0,0,1-.74.14A2.06,2.06,0,0,1,1507.68,2333.33Zm-10-22.77c-1.82-3.71-3.74-7.43-5.7-11a2.05,2.05,0,1,1,3.61-2c2,3.66,3.94,7.43,5.78,11.19a2.05,2.05,0,0,1-.94,2.75,2,2,0,0,1-.9.21A2.06,2.06,0,0,1,1497.73,2310.56Zm-11.87-21.83c-2.14-3.55-4.38-7.09-6.64-10.5a2.06,2.06,0,0,1,3.43-2.28c2.3,3.47,4.56,7.06,6.73,10.66a2.06,2.06,0,0,1-1.76,3.12A2,2,0,0,1,1485.86,2288.73ZM1472.14,2268c-2.4-3.33-4.92-6.66-7.5-9.92a2.06,2.06,0,1,1,3.23-2.55c2.61,3.3,5.17,6.69,7.61,10.05a2.07,2.07,0,0,1-1.67,3.27A2.08,2.08,0,0,1,1472.14,2268Zm-15.4-19.52c-2.68-3.11-5.47-6.23-8.3-9.27a2.06,2.06,0,0,1,3-2.8c2.87,3.08,5.7,6.24,8.41,9.39a2.06,2.06,0,0,1-.22,2.9,2.08,2.08,0,0,1-1.34.5A2.05,2.05,0,0,1,1456.74,2248.49Zm-17-18.19c-2.91-2.89-6-5.78-9-8.58a2.06,2.06,0,1,1,2.78-3c3.1,2.84,6.17,5.77,9.13,8.7a2.06,2.06,0,1,1-2.9,2.92Zm-18.35-16.82q-4.85-4.11-9.64-7.87a2.05,2.05,0,1,1,2.54-3.23c3.3,2.6,6.59,5.28,9.76,8a2.05,2.05,0,1,1-2.66,3.13Zm-19.58-15.37q-5.19-3.78-10.21-7.14a2.06,2.06,0,0,1,2.3-3.42q5.07,3.42,10.33,7.23a2.06,2.06,0,0,1-1.21,3.72A2.1,2.1,0,0,1,1401.84,2198.11Zm-20.67-13.91c-3.7-2.3-7.28-4.42-10.71-6.37a2.06,2.06,0,0,1,2-3.57q5.2,3,10.84,6.45a2.06,2.06,0,0,1-1.08,3.81A2.09,2.09,0,0,1,1381.17,2184.2Zm-21.65-12.34c-3.77-2-7.53-3.82-11.16-5.52a2.06,2.06,0,1,1,1.75-3.72c3.68,1.72,7.49,3.6,11.31,5.6a2.05,2.05,0,1,1-1.9,3.64Z"/><path class="cls-73" d="M1527.54,2500.94a2.07,2.07,0,0,0,2-1.81c.24-2.07.47-4.12.69-6.17a2,2,0,0,0-1.83-2.25,2,2,0,0,0-2.26,1.83q-.32,3-.69,6.1a2.06,2.06,0,0,0,1.8,2.28Z"/></g><g class="cls-72"><path class="cls-73" d="M1337,2180.41a2.05,2.05,0,0,0,1.26-3.68c-3.21-2.49-5-3.74-5-3.74a2.06,2.06,0,0,0-2.31,3.41s1.8,1.22,4.84,3.58A2.07,2.07,0,0,0,1337,2180.41Z"/><path class="cls-73" d="M1424.54,2495a2.05,2.05,0,0,1-1.42-2.54q1.71-6,3.2-11.91a2.05,2.05,0,1,1,4,1q-1.5,6-3.22,12a2.06,2.06,0,0,1-2,1.49A1.77,1.77,0,0,1,1424.54,2495Zm6.17-24a2.06,2.06,0,0,1-1.57-2.45q1.33-6.11,2.44-12.09a2.06,2.06,0,0,1,4.05.75q-1.12,6-2.47,12.22a2.07,2.07,0,0,1-2,1.62A2.2,2.2,0,0,1,1430.71,2471Zm4.64-24.36a2,2,0,0,1-1.73-2.33q.93-6.2,1.61-12.23a2.05,2.05,0,1,1,4.08.47q-.69,6.1-1.63,12.37a2.05,2.05,0,0,1-2,1.75A1.53,1.53,0,0,1,1435.35,2446.64Zm2.94-24.62a2.06,2.06,0,0,1-1.9-2.21q.48-6.22.7-12.3a2.06,2.06,0,1,1,4.11.16c-.15,4.09-.39,8.25-.71,12.45a2.06,2.06,0,0,1-2,1.91Zm-1-26.82c0-4.09-.1-8.23-.27-12.31a2,2,0,0,1,2-2.14,2,2,0,0,1,2.15,2c.17,4.14.26,8.34.27,12.48a2.06,2.06,0,0,1-2.06,2.06h0A2.05,2.05,0,0,1,1437.32,2395.2Zm-1-24.6c-.34-4.07-.78-8.19-1.3-12.23a2.06,2.06,0,1,1,4.08-.52c.53,4.1,1,8.28,1.32,12.41a2.07,2.07,0,0,1-1.88,2.22h-.17A2.07,2.07,0,0,1,1436.27,2370.6Zm-3.12-24.4c-.7-4-1.49-8.11-2.36-12.08a2.06,2.06,0,0,1,4-.87c.88,4,1.68,8.15,2.39,12.25a2.07,2.07,0,0,1-1.67,2.38,2.19,2.19,0,0,1-.36,0A2.06,2.06,0,0,1,1433.15,2346.2Zm-5.26-24c-1-3.93-2.19-7.9-3.42-11.81a2.06,2.06,0,0,1,3.92-1.24c1.25,4,2.42,8,3.48,12a2,2,0,0,1-1.46,2.51,1.93,1.93,0,0,1-.53.07A2.07,2.07,0,0,1,1427.89,2322.16Zm-7.38-23.47c-1.4-3.82-2.91-7.68-4.49-11.45a2.06,2.06,0,0,1,3.8-1.59c1.6,3.83,3.13,7.75,4.55,11.64a2.05,2.05,0,0,1-1.23,2.63,1.93,1.93,0,0,1-.7.13A2,2,0,0,1,1420.51,2298.69ZM1411,2276c-1.75-3.69-3.6-7.4-5.5-11a2.05,2.05,0,0,1,3.63-1.92c1.94,3.67,3.81,7.43,5.59,11.18A2.06,2.06,0,0,1,1411,2276Zm-11.49-21.76c-2.07-3.52-4.24-7.05-6.47-10.48a2.06,2.06,0,0,1,3.46-2.23c2.25,3.48,4.46,7.06,6.55,10.63a2,2,0,0,1-.73,2.81,2,2,0,0,1-1,.29A2.06,2.06,0,0,1,1399.54,2254.23Zm-13.39-20.66c-2.38-3.34-4.86-6.66-7.36-9.87a2.06,2.06,0,0,1,3.24-2.53c2.54,3.25,5,6.62,7.48,10a2.05,2.05,0,0,1-.49,2.86,2,2,0,0,1-1.19.39A2.09,2.09,0,0,1,1386.15,2233.57ZM1371,2214.16c-2.67-3.13-5.43-6.21-8.2-9.18a2.06,2.06,0,0,1,3-2.81c2.82,3,5.62,6.15,8.33,9.32a2.06,2.06,0,1,1-3.13,2.67Zm-16.81-18c-3-2.92-6-5.73-9-8.37a2.05,2.05,0,1,1,2.72-3.08c3,2.67,6.13,5.54,9.18,8.51a2.05,2.05,0,1,1-2.87,2.94Z"/><path class="cls-73" d="M1419.62,2512.9a2,2,0,0,0,2-1.41c.66-2,1.29-3.94,1.91-5.9a2.05,2.05,0,1,0-3.92-1.23q-.91,2.91-1.89,5.84a2.06,2.06,0,0,0,1.31,2.6A2,2,0,0,0,1419.62,2512.9Z"/></g><path class="cls-74" d="M2042.66,442.2l-16.37,29.55a9.66,9.66,0,0,0,4.16,13.22l17.88,9.37a148.1,148.1,0,0,0-6.4,26.18l-20.11.43a9.77,9.77,0,0,0-9.74,10l1.17,33.81a10.19,10.19,0,0,0,10.45,9.63l20.07-.35a154.33,154.33,0,0,0,8.18,26.2l-17,10a9.6,9.6,0,0,0-3.23,13.52l18.6,29.33a10.52,10.52,0,0,0,14.06,3.46l17-9.94a164.26,164.26,0,0,0,20.87,19.23l-9.44,17a10,10,0,0,0,4.27,13.57l31.45,17a10.3,10.3,0,0,0,14-3.77l9.49-17.13a170.66,170.66,0,0,0,28.07,7l.82,19.7a10.67,10.67,0,0,0,10.82,10l36.07-.23a9.84,9.84,0,0,0,10-10.16l-.87-19.92a166.39,166.39,0,0,0,27.7-7.51l11.21,17.24a11,11,0,0,0,14.57,3.59l30.81-17.73a9.67,9.67,0,0,0,3.22-13.86L2313,663.31a153.12,153.12,0,0,0,19.59-20l18.9,9.9c5.22,2.73,11.64,1,14.34-3.87l16.87-30.48c2.7-4.88.64-11-4.59-13.74l-19.09-9.9a147.41,147.41,0,0,0,6.21-26.81l21.47-.38c5.88-.1,10.42-4.69,10.13-10.25l-1.76-34.71c-.29-5.54-5.27-9.93-11.13-9.81l-21.63.46a155.39,155.39,0,0,0-8.83-26.21l18.22-10.65a9.54,9.54,0,0,0,3.19-13.72l-19.71-29.3a11,11,0,0,0-14.55-3.25l-18.15,10.66a164.62,164.62,0,0,0-21.17-18.52l9.92-17.91a9.71,9.71,0,0,0-4.47-13.38l-32-16.06a10.62,10.62,0,0,0-14,4l-9.88,17.84a169.83,169.83,0,0,0-27.57-6.2l-.88-20.09a10.22,10.22,0,0,0-10.74-9.46l-35.47,1.14a9.9,9.9,0,0,0-9.83,10.08l.83,20a166.65,166.65,0,0,0-26.74,7.68l-11.11-16.93a10.48,10.48,0,0,0-14-3.13L2085.67,398a9.47,9.47,0,0,0-3.2,13.39l10.9,16.76a153.9,153.9,0,0,0-19,19.45l-18.07-9.36A10.23,10.23,0,0,0,2042.66,442.2ZM2295,593.29c-27.06,48.87-90.86,66.23-142.07,39-50.74-27-70-87.61-43.35-135.66s89.33-66,140.51-39.82C2301.79,483.22,2322.09,544.42,2295,593.29Z"/><path class="cls-75" d="M1844.56,2179.82l-48.76,88c-7.8,14.08-2.25,31.71,12.4,39.39l53.28,27.92a438.74,438.74,0,0,0-19.07,78l-59.94,1.27c-16.59.35-29.58,13.66-29,29.75L1757,2545c.56,16.13,14.49,29,31.12,28.69l59.8-1a460.3,460.3,0,0,0,24.38,78.09l-50.76,29.83a28.59,28.59,0,0,0-9.64,40.28l55.44,87.38a31.3,31.3,0,0,0,41.87,10.32l50.65-29.61a488.82,488.82,0,0,0,62.18,57.28L1993.85,2897c-7.9,14.26-2.2,32.36,12.73,40.43l93.71,50.62c15,8.13,33.67,3.1,41.6-11.23l28.27-51a507,507,0,0,0,83.65,20.84l2.43,58.69c.69,16.53,15.13,29.85,32.26,29.74l107.46-.69c17.23-.11,30.62-13.66,29.89-30.26l-2.6-59.37a497.63,497.63,0,0,0,82.55-22.36l33.4,51.35c9.32,14.34,28.76,19.13,43.41,10.7l91.79-52.84c14.7-8.46,19-26.95,9.6-41.29l-33.85-51.59a456.63,456.63,0,0,0,58.4-59.61l56.29,29.5c15.55,8.14,34.68,3,42.72-11.54l50.29-90.82c8-14.52,1.92-32.85-13.67-40.93l-56.88-29.49a438,438,0,0,0,18.49-79.9l64-1.12c17.51-.3,31-14,30.19-30.55l-5.27-103.43c-.84-16.51-15.69-29.58-33.15-29.21l-64.47,1.37a461,461,0,0,0-26.29-78.1l54.29-31.74a28.42,28.42,0,0,0,9.5-40.89l-58.73-87.31c-9.36-13.93-28.78-18.25-43.36-9.68L2678.4,2177a490.81,490.81,0,0,0-63.08-55.18l29.56-53.38c7.93-14.33,2-32.18-13.31-39.85l-95.24-47.87c-15.18-7.63-33.88-2.24-41.78,12l-29.42,53.13a508,508,0,0,0-82.16-18.47l-2.63-59.85c-.7-16.11-15-28.73-32-28.18l-105.69,3.39c-16.86.54-30,14-29.3,30l2.47,59.54a496.85,496.85,0,0,0-79.68,22.87l-33.09-50.44c-8.93-13.62-27.66-17.79-41.84-9.34l-88.49,52.77a28.24,28.24,0,0,0-9.55,39.9l32.48,49.94a456.29,456.29,0,0,0-56.58,58l-53.84-27.91C1870.57,2160.49,1852.35,2165.74,1844.56,2179.82Zm752,450.22c-80.63,145.61-270.74,197.34-423.33,116.22C2022,2665.89,1964.78,2485.21,2044.07,2342s266.15-196.59,418.67-118.64C2616.69,2302.06,2677.18,2484.42,2596.55,2630Z"/><path class="cls-74" d="M1754.94,260.79l-11.62,21a7.16,7.16,0,0,0,2.91,9.62l12.57,7.13a105.73,105.73,0,0,0-4.58,18.73l-14.17-.1a6.76,6.76,0,0,0-6.89,7l.75,24.35a7.45,7.45,0,0,0,7.34,7.13l14.12.12a114.47,114.47,0,0,0,5.67,19l-12,6.87a6.88,6.88,0,0,0-2.31,9.64l13,21.33a7.37,7.37,0,0,0,9.84,2.71l11.94-6.82A119.6,119.6,0,0,0,1796,422.53l-6.66,12a7.29,7.29,0,0,0,2.94,9.75l21.88,12.59a7,7,0,0,0,9.73-2.48l6.68-12.05a117.18,117.18,0,0,0,19.48,5.41l.47,14A7.63,7.63,0,0,0,1858,469l25,.35a6.78,6.78,0,0,0,7-7.05l-.49-14.14a112.17,112.17,0,0,0,19.18-4.9l7.63,12.38a7.53,7.53,0,0,0,10,2.76l21.3-12.08a6.91,6.91,0,0,0,2.3-9.76l-7.69-12.44a104.8,104.8,0,0,0,13.6-13.85l12.91,7.32a7.14,7.14,0,0,0,9.86-2.51l11.79-21.29a7.3,7.3,0,0,0-3-9.8l-13-7.36a106.38,106.38,0,0,0,4.46-18.91l14.73.13a6.83,6.83,0,0,0,7-7.09l-1-24.67a7.62,7.62,0,0,0-7.56-7.19l-14.86-.1a115.58,115.58,0,0,0-5.89-18.85l12.61-7.21a6.84,6.84,0,0,0,2.29-9.7l-13.35-21.34a7.54,7.54,0,0,0-10-2.64l-12.6,7.22a118.13,118.13,0,0,0-14.52-13.71l7-12.6a7.19,7.19,0,0,0-3-9.69L1917.61,218a7.13,7.13,0,0,0-9.76,2.56l-7,12.58a117.06,117.06,0,0,0-19.15-5.1l-.51-14.47a7.44,7.44,0,0,0-7.43-7.06l-24.77,0a6.81,6.81,0,0,0-6.93,7l.5,14.42a111.89,111.89,0,0,0-18.75,4.91l-7.72-12.47a7.36,7.36,0,0,0-9.84-2.6l-20.93,12.09a6.84,6.84,0,0,0-2.3,9.59l7.61,12.34a105.88,105.88,0,0,0-13.41,13.61l-12.69-7.16A7,7,0,0,0,1754.94,260.79Zm175.32,113.36c-19,34.26-63.22,45.54-98.69,25.29-35.31-20.17-48.56-64-29.75-98S1864.53,256,1900,275.87,1949.24,339.88,1930.26,374.15Z"/><path class="cls-76" d="M2158.89,1521.17l.41,0c6.55-.75,12.55,3.56,13.39,9.63l151.44,1094.56c.88,6.31-4,11.26-10.76,11.06h-.43c-6.8-.2-13-5.47-13.87-11.76l-150.5-1091.13C2147.74,1527.43,2152.35,1521.92,2158.89,1521.17Z"/><path class="cls-76" d="M1675.21,2532l132.48-1003.23a10.79,10.79,0,0,1,12.2-9.08l.37,0a10.71,10.71,0,0,1,9.46,11.88L1696.46,2537.72c-.73,5.58-6,8.84-11.79,7.27l-.36-.09C1678.55,2543.33,1674.48,2537.55,1675.21,2532Z"/><path class="cls-76" d="M2098.14,2447.32l-45.3-1010.92a10.77,10.77,0,0,0-11.37-10.1h-.37a10.71,10.71,0,0,0-10.45,11l45.82,1013.87c.26,5.63,5.24,9.33,11.13,8.27l.36-.07C2093.84,2458.34,2098.39,2452.93,2098.14,2447.32Z"/><polygon class="cls-73" points="1590.66 1196.82 1590.66 2145 1902.64 2173.43 2432.58 2221.77 2432.58 1162.8 2339.36 1166.55 1590.66 1196.82"/><path class="cls-77" d="M1579.19,1185.7v18.59a8.7,8.7,0,0,0,9.16,8.61l3.26-.11,730.19-28,110.09-4.21.68,0c6.19-.23,11.48-4.91,11.48-10.45v-20.85c0-5.54-5.09-9.79-11.28-9.54l-57.34,2.49-787,34.19A9.65,9.65,0,0,0,1579.19,1185.7Z"/><path class="cls-77" d="M1579.19,2132.34v18.59a10.22,10.22,0,0,0,9.16,9.8l277.28,26,566.84,53.18c6.19.58,11.58-3.45,11.58-9v-20.85c0-5.53-5.09-10.47-11.28-11l-.7,0-490.28-43.52-349.89-31-3.54-.26A8.23,8.23,0,0,0,1579.19,2132.34Z"/><polygon class="cls-77" points="1668.65 1905.02 2331.64 1943.03 2331.64 1912.79 1668.65 1877.3 1668.65 1905.02"/><polygon class="cls-77" points="1668.65 1978.93 2331.64 2023.68 2331.64 1990.91 1668.65 1948.9 1668.65 1978.93"/><polygon class="cls-77" points="1668.65 2052.84 2331.64 2104.32 2331.64 2069.04 1668.65 2020.51 1668.65 2052.84"/><path class="cls-78" d="M1865.89,2186.72l566.71,53.18c6.19.58,11.45-3.45,11.45-9v-20.85c0-5.53-4.78-10.47-11-11l-.5,0V1180.56l.33,0c6.19-.23,11.14-4.91,11.14-10.45v-20.85c0-5.54-5.09-9.79-11.28-9.54l-57.34,2.49a181.62,181.62,0,0,0-35.71,24.37,161.51,161.51,0,0,0-17.76,18.22c-22.06,26.62-37.87,63.39-39.6,114.16-5.37,158.53,19,190.94-20.9,232.81a195.09,195.09,0,0,1-20.06,17.87c-2.33,1.84-4.75,3.72-7.31,5.65-35.05,26.46-85.66,48.9-126,88.9-34.7,34.44-61.76,81.87-64.72,156.08-1.14,28.34,1.24,60.62,8,97.55,1.89,10.17,3.33,20,4.38,29.42a323.74,323.74,0,0,1,1.91,46.33,253.88,253.88,0,0,1-3,31.44,208.08,208.08,0,0,1-11.51,42.93,184.84,184.84,0,0,1-16.62,32.72c-21.57,33.7-52.15,57.36-84.87,74.86a382.36,382.36,0,0,1-38.79,17.94C1890.4,2178.44,1877.92,2182.81,1865.89,2186.72Z"/><path class="cls-77" d="M1775.84,1417.93c3.13-8.36,25.48,4.58,100.33,29.6,121.41,40.6,74.71,145.1,74.71,145.1-1.15.73-2.28,1.39-3.41,2.07l.38.33c3.46,2.76,6.84,6.49,10.73,10.34l6,6.1,3.18,3.22,3,3.6,6.27,7.51a93.39,93.39,0,0,1,6.35,8q3,4.34,6.08,8.78l3.1,4.5c1,1.51,1.84,3.18,2.78,4.78l5.48,9.75a202.84,202.84,0,0,1,5.63-19.94c.78-2.27,1.65-4.51,2.47-6.72s1.79-4.33,2.73-6.37,1.88-4,2.87-5.81l2.87-5,2.72-4.08a15.62,15.62,0,0,1,1.17-1.61c-.94-.61-1.89-1.23-2.84-1.9,0,0-29.59-67.55,48.55-90.32,50.23-14.64,65.54-22.69,67.71-17.13,1.28,3.25-1.92,11.1-5.2,24.89-8.65,36.52-35.34,129-105.48,86.14a13.71,13.71,0,0,0-1.14,1.85l-2.28,4.11-2.35,5.06c-.8,1.81-1.49,3.8-2.3,5.81s-1.39,4.19-2.12,6.35-1.27,4.43-1.85,6.68a208.92,208.92,0,0,0-4.61,25.21q-.36,3.2-.59,5.64l1.21,2.74,1.15,2.61.91,2.71q1.82,5.42,3.61,10.79c1.18,3.58,1.83,7.27,2.75,10.86q.63,2.71,1.26,5.38.4,2.72.8,5.37c.47,3.56,1.19,7.06,1.39,10.5s.46,6.82.68,10.11c.08,6.53.19,12.77-.29,18.41-.25,5.7-.93,10.77-1.4,15.32-.61,4.36-1.14,8.15-1.57,11.27-.21,1.47-.4,2.78-.56,3.92s-.25,2.25-.35,3.09l-.29,2.57,0,.18c0,.22-.06.45-.1.68a9.7,9.7,0,0,1-12,7.75,11.19,11.19,0,0,1-8.25-12.71l.46-2.53c.15-.83.33-1.84.54-3s.57-2.7.9-4.31c.64-3.05,1.41-6.76,2.3-11,.7-4.12,1.59-8.79,2.15-13.87a107.51,107.51,0,0,0,1.28-16.5v-9.06c0-3.1-.32-6.24-.52-9.47-.12-1.61-.18-3.23-.31-4.87s-.54-3.25-.81-4.89c-.62-3.28-1-6.67-1.81-10l-2.63-10-.66-2.53-.9-2.46-1.81-4.93-1.81-5-.9-2.47c-.35-.81-.75-1.59-1.12-2.38l-4.53-9.47c-.77-1.55-1.43-3.17-2.3-4.66l-2.65-4.42c-1.76-2.94-3.49-5.85-5.2-8.7a85.85,85.85,0,0,0-5.55-8.08l-5.54-7.62c-.9-1.24-1.78-2.46-2.66-3.66l-2.87-3.32-5.45-6.3c-3.53-4-6.57-7.87-9.78-10.79l-1.78-1.75c-106.5,58.33-145.77-85.84-158.38-142C1778.61,1434.87,1774,1422.81,1775.84,1417.93Z"/><path class="cls-77" d="M1877.58,1775.74a44,44,0,0,1,39.63-20.13,46.74,46.74,0,0,1,8.8,1.34,69.75,69.75,0,0,1,69-45.23c25,1.17,47.21,14.8,61,34.79a65.82,65.82,0,0,1,16.6-1.32c28.81,1.46,53.57,20.89,63.62,47.12a11.72,11.72,0,0,1-1.23,11,11.11,11.11,0,0,1-9.79,4.62l-238.27-13.86a12.1,12.1,0,0,1-9.33-18.32Z"/><path class="cls-77" d="M1906.89,1430.1a3.44,3.44,0,0,0,3.09-1.85l26.48-49.14,225.89,1a3.77,3.77,0,1,0,0-7.54l-228-.76a3.55,3.55,0,0,0-3.11,1.88l-27.45,51a3.75,3.75,0,0,0,1.38,5A3.44,3.44,0,0,0,1906.89,1430.1Z"/><path class="cls-77" d="M1942.38,1353.46l220,.21c2.09,0,3.78-2.16,3.78-4.25s-1.69-4.25-3.78-4.25h-220c-2,0-3.57,2.12-3.57,4.14S1940.41,1353.46,1942.38,1353.46Z"/><path class="cls-79" d="M2208,1445.24l9.46-17.8s8.71-1.8,12.65-8l4-6.22s2-6.54-5.19-13.63a7.14,7.14,0,0,1-2.13-6.09c1-6.77,3-20.62,3.37-24.16.26-2.34-.69-5.14-1.73-7.36a1.77,1.77,0,0,0-3.33.25l-7.59,27.91s-6.07-1.54-8.16,3.57c0,0-5.25,3.14-6,8.6s0,18.67,0,18.67l-8.33,18.78Z"/><path class="cls-80" d="M2220.45,1442.28c-5.19,12-34.13,82.17-.73,147.26,37.24,72.59,137.45,110.56,237.72,77.81.79,13,9,177.13-71.58,216.31-86.57,42.08-249.53-72.47-276.13-216.31-22.77-123.08,65-222.72,79.24-238.37Z"/><path class="cls-81" d="M2539.73,2748.86c3.46,3.18,3.67,10.6,3.82,15.45a12.32,12.32,0,0,1-.19,4c-2.1,5.45-12.91,5.38-29.9,6.07-26.86,1.1-34.93,2.72-36.77-1.38-1.73-3.84,3.37-9.65,3.95-10.29,3.09-3.44,6.69-4.53,13.63-6.36,12.84-3.38,21.49-5.13,24.11-5.66C2534.72,2747.38,2537.46,2746.78,2539.73,2748.86Z"/><path class="cls-82" d="M2520.89,2722.08l-1,30.57c.83,1.43,10.11,5.35,17.09,1.19l5.27-30.28Z"/><path class="cls-83" d="M2313.51,2744.63c4.61,4.59,6.08,13.4,2.52,18s-9.27,1.57-25.14,2.9c-17,1.42-21.23,5.67-33,3.1-4.74-1-13.17-3.74-13.19-7.08,0-2.35,4.12-3.79,17.91-9.24,19.57-7.74,19.46-8.1,23.66-9C2296.83,2740.92,2307.41,2738.58,2313.51,2744.63Z"/><path class="cls-84" d="M2301.11,2717.45l-7,28.86c.73,1.49,9.68,6.11,17,2.49l11.21-28.25Z"/><path class="cls-85" d="M2343.77,2091.28a2664.48,2664.48,0,0,1-6.32,320.66,2665.48,2665.48,0,0,1-44.1,314.22l33.15,7c26.27-27.24,59-69.68,72.73-127.91,8.55-36.15,4.09-54.25,8.38-98.37,6.82-70.26,26.23-107.91,45.31-165.29,17.15-51.56,36.64-126.92,43.93-226.66Z"/><path class="cls-86" d="M2359,2537.73c12.17-48.2,35.61-60.94,36.45-106.43.59-32.18-11-34.81-10.21-65.61,1.17-46.71,28.53-71.21,42.28-100.59,14.52-31,20.09-80.89-19.05-163.8l88.35,13.67c-7.29,99.73-26.78,175.1-43.93,226.66-19.08,57.38-38.49,95-45.31,165.29-4.29,44.12.17,62.22-8.38,98.37-13.76,58.23-46.46,100.66-72.73,127.91l-8.43-1.79c28.39-33.89,38.41-64.16,41-88.71C2363.18,2602.74,2346.76,2586.32,2359,2537.73Z"/><path class="cls-87" d="M2454.23,2085.31q19.72,181.58,36.12,370.08,12.24,141.42,21.86,279.35l33.61,2.33a388.88,388.88,0,0,0,30-91.72c9.34-48.29,5.07-76.44,7.65-126.1,2.89-55.7,10.74-68.22,22.05-138.9,23-143.44,34.45-215.16-2-257.44C2591.76,2109.18,2555.17,2075.11,2454.23,2085.31Z"/><path class="cls-88" d="M2124,1534.05a108.67,108.67,0,0,0,7.61,37.08c14.65,36.32,49.51,62.81,42.28,103.51-3.62,20.34-14.77,27.48-10.21,42.28,6.47,21,33,20,61.23,43.74,25.06,21.06,26.47,40.57,39.37,58.32,17.47,24,56.92,46,152.54,39-8.49,10.79-18.68,19.68-30.95,25.64-86.57,42.08-249.53-72.47-276.13-216.31C2100.56,1617.8,2109.33,1572.05,2124,1534.05Z"/><path class="cls-89" d="M2717.18,1772.18a62.43,62.43,0,0,0-44-83.59,725.35,725.35,0,0,0-360.78,8.08q-9,50.55-18.08,101.09a1204.9,1204.9,0,0,0,2,133.63c3.79,54.07,7.51,54.89,16.21,131.22,14.17,124.45,8.24,157,33.26,171.91,16.26,9.72,22.15-2,105.16-10.24,55.66-5.52,84.07-8.09,112.26,1.45,38.38,13,51.23,34.8,67.06,27.7,15.19-6.8,17.12-33,19-78.72,2.83-70.51,2.66-118.44,2.92-135.59,1.2-78.71,21.13-138.8,46.65-215.77C2704.84,1804.9,2711.09,1787.8,2717.18,1772.18Z"/><path class="cls-90" d="M2486.06,1592.3a231.73,231.73,0,0,0,6.59,46c3,12.18,4.94,15.27,7.28,17.73,3.52,3.71,8.71,6.7,37.43,12.21,15.63,3,17.61,2.79,18,4.3,2.06,7.38-38.64,35.08-82.42,31.26-26.8-2.33-51.8-16.21-50.74-24.26s27.86-5.21,35-20.14c5-10.39-2-24.38-9.9-35.86C2453.69,1609.91,2479.7,1605.92,2486.06,1592.3Z"/><path class="cls-91" d="M2437.11,1602.75c-6.72-8-7.88-22.53-1.14-32.12,5.8-8.25,15.53-9.9,21.36-10.89,16.89-2.87,38.7,3.08,47,18.31,4.91,9-3.61,28.8-4.93,32.34-1.48,4-4.48,5.51-7.17,8.62-3.72,4.32-9.54,11.17-19,22.63a69.74,69.74,0,0,0-4.48-11.33,61.65,61.65,0,0,0-8.79-13.11C2450.5,1606.87,2443.49,1610.34,2437.11,1602.75Z"/><path class="cls-92" d="M2487.07,1631.69s-10.19,18.92-32.51,18.66c-20-.23-25.28-44.73-13.07-54.88,4.08-3.39,12.51-5.15,19.52-3.59,4.14.93,5.61,2.55,12.41,3.93,6.27,1.28,8,.5,9.93,2,2.44,1.84,4.41,6.56,1.21,19.83,3.59-4,8.07-5.77,11.38-4.42a6.78,6.78,0,0,1,2.79,2.44C2501.79,1620.58,2497.48,1627.34,2487.07,1631.69Z"/><path class="cls-93" d="M2484.11,1595.06c-.92.77,2.2,4.19,2.69,9.25.95,9.82-8.38,22.17-18.49,23.71-6,.91-7.82-2.62-17.81-3.14a45.74,45.74,0,0,0-14.44,1.61c-2.55,11,1,21.57,8.45,26.18,8,5,17.8,1.16,21.88-.42,2.72-1.06,11.46-4.44,15.67-12.84,4.39-8.76-.64-13.63,4.61-19.67,2.65-3,6.26-4.51,9.55-10.31a28.23,28.23,0,0,0,1.82-3.89C2492.61,1600.37,2485.44,1594,2484.11,1595.06Z"/><path class="cls-94" d="M2443.5,1630.11s4.42,2,11.83,1.2c.36,0,.76,0,.82.23.21.69-4.39,4.11-8.85,3.11-3.17-.71-5.75-3.53-5.37-4.31C2442.09,1630,2442.8,1630,2443.5,1630.11Z"/><path class="cls-95" d="M2675.91,2226l-11.48,16.46s.92,28.6-6.15,35.76-21.74,14.64-24,15.17-4.18-10.22.94-15.47,12.06-20.48,8.8-26.73,1.48-18.58,5.77-17.94l12.41-24.49Z"/><path class="cls-96" d="M2640.32,2220.44a99.94,99.94,0,0,0,29.1,4.42c83.9,0,156.53-110.63,176.87-185.8,30.92-114.22-39.57-251.72-160.86-346.25-18.63,55.71-28.67,113.27-47.3,169a444,444,0,0,1,31.31,102.6C2689.43,2077.83,2659.91,2171.94,2640.32,2220.44Z"/><path class="cls-97" d="M2378,2193.66c40.83-17.42,40.6-53.48,78.73-68.52,54.42-21.47,114.54,28.41,123.92,14.58,9.77-14.4-62-58.53-52.48-102.06,7.59-34.59,57.71-28.46,84.56-75.81,25.46-44.92.77-86.44,23.32-102,8.09-5.6,22.36-7.81,49.4,4.09-18.86,58.9-32.38,110.84-33.36,175.23-.26,17.15-.09,65.08-2.92,135.59-1.83,45.7-3.76,71.92-19,78.72-15.83,7.1-28.68-14.71-67.06-27.7-28.19-9.54-56.6-7-112.26-1.45-83,8.22-88.9,20-105.16,10.24-10.6-6.34-15.63-15.86-19-34.15C2343.36,2202.17,2361,2200.9,2378,2193.66Z"/></g></g></svg>