<?xml version="1.0" encoding="utf-8"?>
<!-- Generator: Adobe Illustrator 23.0.1, SVG Export Plug-In . SVG Version: 6.00 Build 0)  -->
<svg version="1.1" id="Layer_1" xmlns="http://www.w3.org/2000/svg" xmlns:xlink="http://www.w3.org/1999/xlink" x="0px" y="0px"
	 viewBox="0 0 100 84" style="enable-background:new 0 0 100 84;" xml:space="preserve">
<style type="text/css">
	.st0{fill:#F6F6F6;}
</style>
<g>
	<path class="st0" d="M4.5,84c-0.2-0.4-0.3-0.6-0.3-0.7c-0.3-5-0.3-5,4.2-7.2c12.8-6.3,20.9-16.2,23.3-30.5c0.3-2.1,0.3-4.2,0-6.3
		c-0.3-2.1-1.5-2.6-3.3-1.4c-7.3,4.9-17.8,3.9-24-4c-6-7.6-5.9-18.5,0.4-25.9c10.2-11.9,27.8-10.3,37,3.5c5.2,7.9,6.2,16.7,5.1,25.8
		c-2.5,20.6-14.7,33.8-32.7,42.5C11.1,81.3,7.8,82.6,4.5,84z"/>
	<path class="st0" d="M57.2,84c-0.2-0.4-0.3-0.6-0.3-0.7c-0.3-5-0.3-5,4.2-7.2C73.9,69.9,82,59.9,84.4,45.6c0.3-2.1,0.3-4.2,0-6.3
		c-0.3-2.1-1.5-2.6-3.3-1.4c-7.3,4.9-17.8,3.9-24-4c-6-7.6-5.9-18.5,0.4-25.9c10.2-11.9,27.8-10.3,37,3.5c5.2,7.9,6.2,16.7,5.1,25.8
		C97.2,57.9,84.9,71.1,67,79.8C63.8,81.3,60.4,82.6,57.2,84z"/>
</g>
</svg>
