<svg id="Layer_1" data-name="Layer 1" xmlns="http://www.w3.org/2000/svg" viewBox="0 0 526.84 530.74"><defs><style>.cls-1{fill:#68bd4d;}.cls-2{fill:#4dab48;}</style></defs><path class="cls-1" d="M136,212.46H68a8.41,8.41,0,0,1-1.66-.16,8.83,8.83,0,0,1-1.59-.48,8.53,8.53,0,0,1-3.81-3.13,9,9,0,0,1-.79-1.47,8.93,8.93,0,0,1-.48-1.6,8.31,8.31,0,0,1-.16-1.65H0V187H59.49V85H0V68H59.49a8.41,8.41,0,0,1,.16-1.66,8.34,8.34,0,0,1,1.27-3.06A8.21,8.21,0,0,1,62,62a9.32,9.32,0,0,1,1.29-1.06,8.64,8.64,0,0,1,1.47-.79,8.83,8.83,0,0,1,1.59-.48A7.71,7.71,0,0,1,68,59.52h68a8.41,8.41,0,0,1,1.66.16,8.59,8.59,0,0,1,1.59.48,9.13,9.13,0,0,1,1.48.79A8.68,8.68,0,0,1,142,62,8.27,8.27,0,0,1,143,63.29a8.82,8.82,0,0,1,1.27,3.06,9.24,9.24,0,0,1,.16,1.66v3.91L200.54,47l-4.86-19.38a8.28,8.28,0,0,1-.25-2.38,8.47,8.47,0,0,1,.42-2.35,8.64,8.64,0,0,1,1.07-2.15,8.49,8.49,0,0,1,3.67-3,8.4,8.4,0,0,1,2.31-.62,8.32,8.32,0,0,1,2.39.05,8.7,8.7,0,0,1,2.29.71L226,26.58,239,4.24a7.7,7.7,0,0,1,.6-.89,9.28,9.28,0,0,1,.71-.82,7.76,7.76,0,0,1,.8-.72A10.77,10.77,0,0,1,242,1.2a8.67,8.67,0,0,1,1-.49,8.84,8.84,0,0,1,1-.37,9.39,9.39,0,0,1,1-.24,9.85,9.85,0,0,1,1.08-.1,7.6,7.6,0,0,1,1.07,0,7.69,7.69,0,0,1,1.07.17,7.2,7.2,0,0,1,1,.31,8,8,0,0,1,1,.43,8.23,8.23,0,0,1,1.77,1.23,9.2,9.2,0,0,1,.76.77,10.77,10.77,0,0,1,.65.86l12.29,18.42L284.23,10a8.86,8.86,0,0,1,2.31-1.08,8.56,8.56,0,0,1,2.52-.34,8.25,8.25,0,0,1,2.51.41,8.4,8.4,0,0,1,2.28,1.14,8.25,8.25,0,0,1,1.83,1.76,8.84,8.84,0,0,1,1.24,2.23,9.13,9.13,0,0,1,.52,2.49,8.64,8.64,0,0,1-.25,2.53L284.44,69.9l11.68-1.79a7.92,7.92,0,0,1,1.29-.1,24.81,24.81,0,0,1,3.65.27,24,24,0,0,1,3.58.78,24.74,24.74,0,0,1,3.42,1.29,23.81,23.81,0,0,1,3.21,1.77,25.06,25.06,0,0,1,2.92,2.2,25.33,25.33,0,0,1,2.57,2.61,25.05,25.05,0,0,1,3.91,6.17,26.7,26.7,0,0,1,1.25,3.44,25.69,25.69,0,0,1,.74,3.59,23.46,23.46,0,0,1,.22,3.65,24.73,24.73,0,0,1-.3,3.65,25.18,25.18,0,0,1-.82,3.56,24.84,24.84,0,0,1-3.13,6.61,27.23,27.23,0,0,1-2.23,2.9q.77.85,1.47,1.8c.46.62.89,1.26,1.3,1.92s.78,1.35,1.12,2,.65,1.41.93,2.13.52,1.46.73,2.21a21.8,21.8,0,0,1,.53,2.26c.14.76.24,1.53.32,2.31s.1,1.54.1,2.32,0,1.55-.1,2.33-.18,1.53-.32,2.3a21.8,21.8,0,0,1-.53,2.26c-.21.75-.45,1.49-.73,2.21s-.59,1.43-.93,2.13a22.41,22.41,0,0,1-1.12,2c-.41.66-.84,1.3-1.3,1.93s-1,1.21-1.47,1.79a28.58,28.58,0,0,1,2,2.51,26.27,26.27,0,0,1,1.66,2.74,23.81,23.81,0,0,1,1.3,2.92,24.83,24.83,0,0,1,.92,3.08,25.68,25.68,0,0,1,.51,3.16,25,25,0,0,1-.21,6.39,25.61,25.61,0,0,1-.71,3.12c1.61,1.7,3.16,3.47,4.65,5.28s2.91,3.68,4.26,5.6,2.63,3.88,3.83,5.89,2.35,4.06,3.41,6.16,2,4.22,2.94,6.38,1.73,4.37,2.47,6.59,1.4,4.48,2,6.75,1.07,4.56,1.49,6.87.74,4.63,1,7,.4,4.67.47,7,.06,4.7,0,7-.28,4.68-.55,7-.62,4.65-1.06,7-1,4.59-1.56,6.87-1.29,4.5-2.06,6.72-1.62,4.4-2.55,6.55-1.93,4.28-3,6.36-2.24,4.12-3.47,6.12-2.53,3.94-3.9,5.85-2.82,3.75-4.32,5.55-3.08,3.54-4.72,5.22-3.32,3.3-5.07,4.86-3.57,3.06-5.43,4.48-3.77,2.79-5.73,4.08-4,2.5-6,3.65-4.13,2.2-6.26,3.19-4.28,1.9-6.47,2.74-4.42,1.58-6.67,2.25-4.52,1.26-6.81,1.77-4.59.93-6.92,1.26-4.65.6-7,.76-4.68.25-7,.25H241.14c-1.91,0-3.83-.05-5.74-.17s-3.82-.27-5.73-.5-3.79-.5-5.68-.84-3.76-.73-5.63-1.18-3.71-.95-5.54-1.5-3.65-1.18-5.44-1.85-3.57-1.38-5.33-2.16-3.48-1.59-5.19-2.47-3.38-1.8-5-2.77-3.27-2-4.85-3.07-3.15-2.2-4.67-3.36-3-2.37-4.46-3.63-2.86-2.54-4.23-3.88-2.7-2.72-4-4.13-2.54-2.87-3.75-4.36-2.36-3-3.47-4.58-2.18-3.15-3.2-4.77-2-3.28-2.9-5-1.8-3.39-2.61-5.12-1.59-3.49-2.3-5.27-1.37-3.58-2-5.39-1.16-3.66-1.66-5.51-.93-3.71-1.32-5.59-.72-3.76-1-5.66-.49-3.8-.65-5.71-.27-3.82-.31-5.73,0-3.84,0-5.75.19-3.83.37-5.74.42-3.81.72-5.7.64-3.78,1-5.65.87-3.73,1.38-5.58,1.09-3.66,1.72-5.48l-5.3-2.65V204a9.13,9.13,0,0,1-.16,1.65,8.77,8.77,0,0,1-1.27,3.07A8.68,8.68,0,0,1,142,210a8.1,8.1,0,0,1-1.28,1.06,9.13,9.13,0,0,1-1.48.79,8.59,8.59,0,0,1-1.59.48A8.41,8.41,0,0,1,136,212.46Z"/><path class="cls-1" d="M484.35,399.4v102h42.49v17H484.35a8.41,8.41,0,0,1-.16,1.66,8.59,8.59,0,0,1-.48,1.59,7.43,7.43,0,0,1-.79,1.47,8.36,8.36,0,0,1-2.34,2.35,8.47,8.47,0,0,1-4.72,1.43h-68a8.41,8.41,0,0,1-1.66-.16,8.82,8.82,0,0,1-3.06-1.27,8.27,8.27,0,0,1-1.29-1.06,8.65,8.65,0,0,1-1.06-1.29,8.82,8.82,0,0,1-1.27-3.06,9.24,9.24,0,0,1-.16-1.66V501l-161.92-8.08a64.63,64.63,0,0,1-6.81-.4,66.61,66.61,0,0,1-6.74-1.09,68.07,68.07,0,0,1-6.58-1.8,66.6,66.6,0,0,1-6.37-2.48A63,63,0,0,1,204.9,484a65.21,65.21,0,0,1-5.72-3.73,66,66,0,0,1-5.3-4.31c-1.68-1.53-3.29-3.14-4.81-4.83l-53.42-59.36a32.5,32.5,0,0,1-3.5-4.67,32.1,32.1,0,0,1-2.57-5.23,31.51,31.51,0,0,1-1.58-5.62,30.56,30.56,0,0,1-.53-5.81V388.8a31.71,31.71,0,0,1,.35-4.77A31.73,31.73,0,0,1,133,370.79a31.51,31.51,0,0,1,3-3.73,30.77,30.77,0,0,1,3.51-3.24,30.24,30.24,0,0,1,4-2.68,31.75,31.75,0,0,1,8.88-3.45,32,32,0,0,1,18.79,1.5,34.05,34.05,0,0,1,4.29,2.1A33.23,33.23,0,0,1,179.4,364a33.68,33.68,0,0,1,3.48,3.28L225,402.81a25.45,25.45,0,0,1,9.21-8.72,25.31,25.31,0,0,1,12.27-3.18h54.68a39.76,39.76,0,0,1,6.25-7.11,37.77,37.77,0,0,1,3.74-2.94,39.71,39.71,0,0,1,4-2.46,38.05,38.05,0,0,1,4.32-1.95A39.75,39.75,0,0,1,324,375a38.57,38.57,0,0,1,4.66-.85,37.4,37.4,0,0,1,4.73-.27h11a78.1,78.1,0,0,1,15.1,1.42A79.26,79.26,0,0,1,374,379.62,79.47,79.47,0,0,1,399.38,396v-13.6a9.13,9.13,0,0,1,.16-1.65,8.42,8.42,0,0,1,3.62-5.41,8.34,8.34,0,0,1,3.06-1.27,8.41,8.41,0,0,1,1.66-.16h68a8.24,8.24,0,0,1,1.65.16,8.93,8.93,0,0,1,1.6.48,9,9,0,0,1,1.47.79,9.25,9.25,0,0,1,1.29,1,8.7,8.7,0,0,1,1.05,1.29,7.72,7.72,0,0,1,.79,1.47,8.93,8.93,0,0,1,.48,1.6,8.34,8.34,0,0,1,.16,1.66h42.49v17Z"/><path class="cls-2" d="M348.35,231.9q-.11-3.51-.47-7c-.24-2.34-.57-4.65-1-7s-.91-4.6-1.49-6.87-1.24-4.52-2-6.75-1.57-4.42-2.47-6.59-1.88-4.29-2.94-6.38-2.2-4.15-3.41-6.16-2.48-4-3.83-5.89-2.77-3.78-4.26-5.6-3-3.58-4.65-5.28a25.61,25.61,0,0,0,.71-3.12,25,25,0,0,0,.21-6.39,25.68,25.68,0,0,0-.51-3.16,24.83,24.83,0,0,0-.92-3.08,23.81,23.81,0,0,0-1.3-2.92A26.27,26.27,0,0,0,318.4,147a28.58,28.58,0,0,0-2-2.51c.51-.58,1-1.17,1.47-1.79s.89-1.27,1.3-1.93a22.41,22.41,0,0,0,1.12-2c.34-.7.65-1.4.93-2.13s.52-1.46.73-2.21a21.8,21.8,0,0,0,.53-2.26c.14-.77.24-1.53.32-2.3s.1-1.56.1-2.33,0-1.55-.1-2.32-.18-1.55-.32-2.31a21.8,21.8,0,0,0-.53-2.26c-.21-.75-.45-1.48-.73-2.21s-.59-1.43-.93-2.13-.71-1.37-1.12-2-.84-1.3-1.3-1.92-1-1.23-1.47-1.8a27.23,27.23,0,0,0,2.23-2.9,24.84,24.84,0,0,0,3.13-6.61,25.18,25.18,0,0,0,.82-3.56,24.73,24.73,0,0,0,.3-3.65,23.46,23.46,0,0,0-.22-3.65,25.69,25.69,0,0,0-.74-3.59,26.7,26.7,0,0,0-1.25-3.44,25.05,25.05,0,0,0-3.91-6.17,25.33,25.33,0,0,0-2.57-2.61,25.06,25.06,0,0,0-2.92-2.2,23.81,23.81,0,0,0-3.21-1.77,24.74,24.74,0,0,0-3.42-1.29,24,24,0,0,0-3.58-.78,24.81,24.81,0,0,0-3.65-.27,7.92,7.92,0,0,0-1.29.1L284.44,69.9l12.75-50.81a8.64,8.64,0,0,0,.25-2.53,9.13,9.13,0,0,0-.52-2.49,8.84,8.84,0,0,0-1.24-2.23,8.25,8.25,0,0,0-1.83-1.76,8.4,8.4,0,0,0-2.28-1.14,8.25,8.25,0,0,0-2.51-.41,8.56,8.56,0,0,0-2.52.34A8.86,8.86,0,0,0,284.23,10L265.78,22.23,253.49,3.81a10.77,10.77,0,0,0-.65-.86,9.2,9.2,0,0,0-.76-.77A8.23,8.23,0,0,0,250.31,1a8,8,0,0,0-1-.43,7.2,7.2,0,0,0-1-.31A7.69,7.69,0,0,0,247.22,0a7.6,7.6,0,0,0-1.07,0,9.85,9.85,0,0,0-1.08.1,9.39,9.39,0,0,0-1,.24,8.84,8.84,0,0,0-1,.37,8.67,8.67,0,0,0-1,.49,10.77,10.77,0,0,0-.89.61,7.76,7.76,0,0,0-.8.72,9.28,9.28,0,0,0-.71.82,7.7,7.7,0,0,0-.6.89L226,26.58l-18.45-8.71a8.7,8.7,0,0,0-2.29-.71,8.32,8.32,0,0,0-2.39-.05,8.4,8.4,0,0,0-2.31.62,8.49,8.49,0,0,0-3.67,3,8.64,8.64,0,0,0-1.07,2.15,8.47,8.47,0,0,0-.42,2.35,8.28,8.28,0,0,0,.25,2.38L200.54,47,144.46,71.92V68a9.24,9.24,0,0,0-.16-1.66A8.82,8.82,0,0,0,143,63.29,8.27,8.27,0,0,0,142,62a8.68,8.68,0,0,0-1.28-1.06,9.13,9.13,0,0,0-1.48-.79,8.59,8.59,0,0,0-1.59-.48,8.41,8.41,0,0,0-1.66-.16H68a7.71,7.71,0,0,0-1.66.15,8.83,8.83,0,0,0-1.59.48,8.64,8.64,0,0,0-1.47.79A9.32,9.32,0,0,0,62,62a8.21,8.21,0,0,0-1,1.29,8.34,8.34,0,0,0-1.27,3.06A8.41,8.41,0,0,0,59.49,68H0V85H59.49V187H0v17H59.49a8.31,8.31,0,0,0,.16,1.65,8.93,8.93,0,0,0,.48,1.6,9,9,0,0,0,.79,1.47,8.56,8.56,0,0,0,3.81,3.13,8.83,8.83,0,0,0,1.59.48,8.41,8.41,0,0,0,1.66.16h68a8.41,8.41,0,0,0,1.66-.16,8.59,8.59,0,0,0,1.59-.48,9.13,9.13,0,0,0,1.48-.79A8.1,8.1,0,0,0,142,210a8.68,8.68,0,0,0,1.06-1.28,8.77,8.77,0,0,0,1.27-3.07,9.13,9.13,0,0,0,.16-1.65v-3.25l5.3,2.65c-.63,1.82-1.2,3.64-1.72,5.48s-1,3.71-1.38,5.58-.76,3.76-1,5.65-.54,3.79-.72,5.7-.31,3.82-.37,5.74-.08,3.83,0,5.75.14,3.82.31,5.73.37,3.82.65,5.71.6,3.78,1,5.66.82,3.74,1.32,5.59,1.05,3.69,1.66,5.51,1.27,3.61,2,5.39,1.48,3.53,2.3,5.27,1.68,3.44,2.61,5.12,1.88,3.33,2.9,5,2.08,3.21,3.2,4.77,2.27,3.09,3.47,4.58,2.45,2.94,3.75,4.36,2.62,2.79,4,4.13,2.78,2.63,4.23,3.88,2.94,2.47,4.46,3.63,3.08,2.28,4.67,3.36,3.21,2.09,4.85,3.07,3.33,1.9,5,2.77,3.44,1.7,5.19,2.47,3.53,1.49,5.33,2.16,3.61,1.28,5.44,1.85,3.68,1.06,5.54,1.5,3.74.85,5.63,1.18,3.78.62,5.68.84,3.82.39,5.73.5,3.83.17,5.74.17h10.57q3.53,0,7-.25c2.34-.16,4.68-.42,7-.76s4.63-.76,6.92-1.26,4.56-1.1,6.81-1.77,4.47-1.42,6.67-2.25,4.35-1.75,6.47-2.74,4.22-2,6.26-3.19,4.06-2.36,6-3.65,3.87-2.65,5.73-4.08,3.67-2.92,5.43-4.48,3.44-3.18,5.07-4.86,3.21-3.42,4.72-5.22,2.95-3.65,4.32-5.55,2.67-3.85,3.9-5.85,2.39-4,3.47-6.12,2.09-4.2,3-6.36,1.78-4.33,2.55-6.55,1.45-4.46,2.06-6.72,1.12-4.56,1.56-6.87.79-4.62,1.06-7,.46-4.67.55-7S348.42,234.25,348.35,231.9ZM127.47,195.47h-51v-119h51Zm98.32-150.2a9.82,9.82,0,0,0,1.49.54,8,8,0,0,0,1.55.25,8.24,8.24,0,0,0,1.57,0,8.28,8.28,0,0,0,3-.93,9.54,9.54,0,0,0,1.31-.86,8.4,8.4,0,0,0,1.14-1.09,9,9,0,0,0,.92-1.28l10.12-17.33,9.46,14.19A8.65,8.65,0,0,0,257.41,40a7.69,7.69,0,0,0,1.29,1,8.59,8.59,0,0,0,3.06,1.28,9.24,9.24,0,0,0,1.66.16,8.31,8.31,0,0,0,1.65-.16,8.21,8.21,0,0,0,1.6-.49,8.64,8.64,0,0,0,1.47-.78l7.19-4.8-9.1,36.43L226,78.89l-9.49-38ZM144.46,181.72V90.53l60.27-26.77,4.44,17.75-23.52,3.62,2.55,16.79L298,85a8.29,8.29,0,0,1,1.65.22,8.37,8.37,0,0,1,3,1.36,8.79,8.79,0,0,1,1.26,1.1,8.55,8.55,0,0,1,1,1.32,8,8,0,0,1,.74,1.49,8.33,8.33,0,0,1,.43,1.61,9.32,9.32,0,0,1,.12,1.67,8.39,8.39,0,0,1-.22,1.65,8.15,8.15,0,0,1-.53,1.58,8.55,8.55,0,0,1-.83,1.44,9.46,9.46,0,0,1-1.1,1.26,8.55,8.55,0,0,1-1.32,1,8,8,0,0,1-1.49.74,8.45,8.45,0,0,1-1.62.44,10.14,10.14,0,0,1-1.66.11H271.92v17h25.49a8.83,8.83,0,0,1,3.26.65,8.19,8.19,0,0,1,1.46.78,8.88,8.88,0,0,1,1.29,1.06,8.27,8.27,0,0,1,1.06,1.29,8,8,0,0,1,.78,1.47,9.11,9.11,0,0,1,.49,1.59,8.69,8.69,0,0,1,0,3.32,8.86,8.86,0,0,1-.49,1.59,8.28,8.28,0,0,1-.78,1.47,9.32,9.32,0,0,1-1.06,1.29,8.89,8.89,0,0,1-2.75,1.84,8.83,8.83,0,0,1-3.26.65H271.92v17h25.49a8.32,8.32,0,0,1,3.26.65,8.89,8.89,0,0,1,2.75,1.84,9.32,9.32,0,0,1,1.06,1.29,8.28,8.28,0,0,1,.78,1.47,8.62,8.62,0,0,1,.49,1.59,8.69,8.69,0,0,1,0,3.32,9.11,9.11,0,0,1-.49,1.59,8.49,8.49,0,0,1-3.13,3.82,8.19,8.19,0,0,1-1.46.78,8.83,8.83,0,0,1-3.26.65H271.92v17h8.5a8.5,8.5,0,0,1,1.66.17,7.64,7.64,0,0,1,1.59.48,9,9,0,0,1,1.47.78,8.68,8.68,0,0,1,1.28,1.06,7.75,7.75,0,0,1,1.06,1.29,8.34,8.34,0,0,1,1.27,3.06,8.19,8.19,0,0,1,0,3.32,8.83,8.83,0,0,1-.48,1.59,8.59,8.59,0,0,1-1.85,2.76,8,8,0,0,1-1.28,1.05,7.72,7.72,0,0,1-1.47.79,8.3,8.3,0,0,1-1.59.48,8.5,8.5,0,0,1-1.66.17H189ZM331.3,238.65c-.06,1.31-.16,2.6-.29,3.9s-.29,2.59-.48,3.88-.42,2.58-.68,3.85-.54,2.56-.85,3.82-.67,2.52-1.05,3.77-.79,2.48-1.23,3.71-.91,2.44-1.41,3.65-1,2.39-1.59,3.57-1.14,2.34-1.76,3.49-1.26,2.28-1.92,3.4-1.37,2.22-2.1,3.31-1.47,2.15-2.25,3.19-1.58,2.07-2.41,3.09-1.67,2-2.55,3-1.77,1.9-2.7,2.83-1.86,1.82-2.83,2.69-1.95,1.73-3,2.56-2,1.62-3.08,2.4-2.11,1.53-3.2,2.26-2.18,1.41-3.3,2.09-2.25,1.31-3.4,1.92-2.32,1.21-3.49,1.77-2.37,1.08-3.58,1.58-2.41,1-3.65,1.41-2.46.85-3.71,1.23-2.5.73-3.76,1-2.54.6-3.82.86-2.56.48-3.85.67-2.58.35-3.88.48-2.6.23-3.9.29-2.61.1-3.91.11H241.14c-1.55,0-3.11-.05-4.66-.14s-3.1-.22-4.65-.4-3.08-.4-4.61-.67-3.06-.59-4.57-1-3-.76-4.5-1.21-3-.94-4.43-1.47-2.91-1.11-4.34-1.73-2.83-1.28-4.22-2-2.76-1.44-4.1-2.22-2.67-1.6-4-2.46-2.57-1.76-3.81-2.69-2.47-1.9-3.66-2.91-2.34-2-3.46-3.11-2.22-2.18-3.29-3.32-2.09-2.3-3.08-3.5-2-2.42-2.88-3.68-1.8-2.53-2.65-3.83-1.65-2.63-2.42-4-1.5-2.72-2.18-4.12-1.34-2.81-1.95-4.24-1.16-2.88-1.68-4.35-1-2.94-1.44-4.44-.82-3-1.16-4.52-.65-3-.9-4.57-.47-3.08-.64-4.63-.28-3.09-.36-4.64-.1-3.11-.08-4.67.08-3.11.19-4.66.26-3.1.45-4.64.44-3.08.74-4.61.61-3,1-4.56.8-3,1.27-4.48l18.05,9.06a8.31,8.31,0,0,0,3.79.85h34a23.12,23.12,0,0,0,.12,2.5c.08.83.2,1.66.36,2.48s.37,1.62.61,2.42.53,1.58.85,2.36.67,1.52,1.06,2.26.83,1.45,1.29,2.14a25.08,25.08,0,0,0,5,5.55c.64.53,1.31,1,2,1.49s1.41.89,2.15,1.28a24.49,24.49,0,0,0,2.26,1.07,22.13,22.13,0,0,0,2.36.85c.8.24,1.6.44,2.42.6a23.56,23.56,0,0,0,2.48.37c.83.08,1.66.12,2.5.12a8.83,8.83,0,0,1,3.25.65,8.78,8.78,0,0,1,2.76,1.84,9.25,9.25,0,0,1,1.05,1.29,8,8,0,0,1,.79,1.47,8.83,8.83,0,0,1,.48,1.59,8.69,8.69,0,0,1,0,3.32,8.83,8.83,0,0,1-.48,1.59,8,8,0,0,1-.79,1.47,8.7,8.7,0,0,1-1.05,1.29,9.32,9.32,0,0,1-1.29,1.06,8,8,0,0,1-1.47.78,9.86,9.86,0,0,1-1.6.49,8.24,8.24,0,0,1-1.65.16,8.41,8.41,0,0,1-1.66-.16,9.86,9.86,0,0,1-1.6-.49,8.17,8.17,0,0,1-2.75-1.84,8.77,8.77,0,0,1-1.06-1.29,8,8,0,0,1-.78-1.47,8.12,8.12,0,0,1-.49-1.59,9.24,9.24,0,0,1-.16-1.66h-17a24.32,24.32,0,0,0,.31,3.9,24.88,24.88,0,0,0,.91,3.79,25.88,25.88,0,0,0,1.47,3.62,27.76,27.76,0,0,0,2,3.35,26.5,26.5,0,0,0,2.5,3,25.63,25.63,0,0,0,2.93,2.58,25.19,25.19,0,0,0,3.29,2.11,25.83,25.83,0,0,0,3.57,1.58v18.56h17V278.88A25.14,25.14,0,0,0,259,277a25.65,25.65,0,0,0,3.67-2.52,26,26,0,0,0,3.18-3.12,26.5,26.5,0,0,0,2.58-3.63,26,26,0,0,0,1.91-4,24.64,24.64,0,0,0,1.17-4.3,25,25,0,0,0,.05-8.86,24.43,24.43,0,0,0-1.14-4.31,23.88,23.88,0,0,0-1.87-4,24.9,24.9,0,0,0-2.54-3.66,26,26,0,0,0-3.14-3.15,26.31,26.31,0,0,0-3.65-2.56,25.9,25.9,0,0,0-4-1.88,25.6,25.6,0,0,0-4.31-1.15,26.23,26.23,0,0,0-4.43-.38,9.24,9.24,0,0,1-1.66-.16,8.93,8.93,0,0,1-1.6-.48,9.47,9.47,0,0,1-1.47-.79,8.68,8.68,0,0,1-1.28-1.06,9.32,9.32,0,0,1-1.06-1.29,8.82,8.82,0,0,1-1.27-3.06,9.24,9.24,0,0,1-.16-1.66h42.49c.51,0,1,0,1.55-.05s1-.07,1.54-.14,1-.14,1.53-.23,1-.21,1.51-.33,1-.27,1.49-.42,1-.33,1.47-.51,1-.39,1.43-.6.93-.44,1.39-.68.91-.5,1.35-.77.87-.55,1.29-.84.84-.61,1.25-.93.8-.66,1.18-1,.76-.7,1.13-1.07.71-.74,1.05-1.13.67-.79,1-1.2.63-.82.92-1.25.56-.87.83-1.31.51-.9.75-1.35.46-.93.67-1.41.4-1,.58-1.43.34-1,.49-1.47.29-1,.41-1.5.22-1,.31-1.52.16-1,.22-1.53.09-1,.12-1.54,0-1,0-1.55,0-1-.06-1.55-.09-1-.16-1.54-.15-1-.25-1.53-.22-1-.34-1.51-.28-1-.44-1.49-.33-1-.52-1.46a25.14,25.14,0,0,0,7.72-3.62,79.92,79.92,0,0,1,19.56,52.25C331.4,236.05,331.37,237.35,331.3,238.65Z"/><path class="cls-2" d="M526.84,399.4v-17H484.35a8.34,8.34,0,0,0-.16-1.66,8.93,8.93,0,0,0-.48-1.6,7.72,7.72,0,0,0-.79-1.47,8.7,8.7,0,0,0-1.05-1.29,9.25,9.25,0,0,0-1.29-1,9,9,0,0,0-1.47-.79,8.93,8.93,0,0,0-1.6-.48,8.24,8.24,0,0,0-1.65-.16h-68a8.41,8.41,0,0,0-1.66.16,8.34,8.34,0,0,0-3.06,1.27,8.55,8.55,0,0,0-3.62,5.41,9.13,9.13,0,0,0-.16,1.65V396A79.47,79.47,0,0,0,374,379.62a79.26,79.26,0,0,0-14.54-4.28,78.1,78.1,0,0,0-15.1-1.42h-11a37.4,37.4,0,0,0-4.73.27A38.57,38.57,0,0,0,324,375a39.75,39.75,0,0,0-4.54,1.41,38.05,38.05,0,0,0-4.32,1.95,39.71,39.71,0,0,0-4,2.46,37.77,37.77,0,0,0-3.74,2.94,39.76,39.76,0,0,0-6.25,7.11H246.43a25.31,25.31,0,0,0-12.27,3.18,25.45,25.45,0,0,0-9.21,8.72l-42.07-35.52A33.68,33.68,0,0,0,179.4,364a33.23,33.23,0,0,0-3.94-2.72,34.05,34.05,0,0,0-4.29-2.1,32.23,32.23,0,0,0-9.28-2.17,31.9,31.9,0,0,0-14.08,2.06,32.15,32.15,0,0,0-4.31,2.06,30.24,30.24,0,0,0-4,2.68,30.77,30.77,0,0,0-3.51,3.24,31.51,31.51,0,0,0-3,3.73A31.92,31.92,0,0,0,127.82,384a31.71,31.71,0,0,0-.35,4.77v1.63a30.56,30.56,0,0,0,.53,5.81,31.51,31.51,0,0,0,1.58,5.62,32.1,32.1,0,0,0,2.57,5.23,32.5,32.5,0,0,0,3.5,4.67l53.42,59.36c1.52,1.69,3.13,3.3,4.81,4.83a66,66,0,0,0,5.3,4.31A65.21,65.21,0,0,0,204.9,484a63,63,0,0,0,6.06,3.12,66.6,66.6,0,0,0,6.37,2.48,68.07,68.07,0,0,0,6.58,1.8,66.61,66.61,0,0,0,6.74,1.09,64.63,64.63,0,0,0,6.81.4L399.38,501v17.41a9.24,9.24,0,0,0,.16,1.66,8.82,8.82,0,0,0,1.27,3.06,8.65,8.65,0,0,0,1.06,1.29,8.27,8.27,0,0,0,1.29,1.06,8.82,8.82,0,0,0,3.06,1.27,8.41,8.41,0,0,0,1.66.16h68a8.61,8.61,0,0,0,4.72-1.43,8.36,8.36,0,0,0,2.34-2.35,7.43,7.43,0,0,0,.79-1.47,8.59,8.59,0,0,0,.48-1.59,8.41,8.41,0,0,0,.16-1.66h42.49v-17H484.35v-102ZM399.38,484l-161.45-8.06a50,50,0,0,1-10.14-1.07,48.81,48.81,0,0,1-26.09-15.08l-53.42-59.35a14.89,14.89,0,0,1-3.82-10V388.8a15.39,15.39,0,0,1,.17-2.25,15.11,15.11,0,0,1,.51-2.19,14,14,0,0,1,.83-2.09,15.65,15.65,0,0,1,1.14-1.94,14.87,14.87,0,0,1,1.42-1.75,14.05,14.05,0,0,1,1.67-1.51,15,15,0,0,1,3.91-2.19,15,15,0,0,1,2.17-.63,13.77,13.77,0,0,1,2.22-.29,14.06,14.06,0,0,1,2.25,0,16.63,16.63,0,0,1,2.22.39,16.26,16.26,0,0,1,2.14.71,15.11,15.11,0,0,1,2,1,13.83,13.83,0,0,1,1.82,1.32,14.13,14.13,0,0,1,1.61,1.58,8.58,8.58,0,0,0,.92.89l50.23,42.39a26.13,26.13,0,0,0,1.32,4,25.37,25.37,0,0,0,7.65,10,25,25,0,0,0,3.54,2.35,24.48,24.48,0,0,0,3.88,1.74,25.37,25.37,0,0,0,8.35,1.42h59.48v-17H246.43a7.73,7.73,0,0,1-1.66-.17,8.18,8.18,0,0,1-1.6-.48,8.17,8.17,0,0,1-2.75-1.84,8.27,8.27,0,0,1-1.06-1.29,8,8,0,0,1-.78-1.47,8.12,8.12,0,0,1-.49-1.59,9.24,9.24,0,0,1-.16-1.66,9,9,0,0,1,.16-1.65,7.81,7.81,0,0,1,.49-1.6,8.64,8.64,0,0,1,.78-1.47,9.32,9.32,0,0,1,1.06-1.29,8,8,0,0,1,1.28-1.05,8.69,8.69,0,0,1,1.47-.79,8.18,8.18,0,0,1,1.6-.48,8.42,8.42,0,0,1,1.66-.17h59.48a8.34,8.34,0,0,0,2.33-.31,8,8,0,0,0,2.16-.94,8.51,8.51,0,0,0,1.82-1.5,8.84,8.84,0,0,0,1.34-1.94,21.44,21.44,0,0,1,1.55-2.66,23.12,23.12,0,0,1,1.9-2.41,22.24,22.24,0,0,1,2.22-2.12,21.86,21.86,0,0,1,2.49-1.8,24.33,24.33,0,0,1,2.72-1.43,23.22,23.22,0,0,1,2.89-1.05,22.33,22.33,0,0,1,3-.62,21,21,0,0,1,3.06-.21h11a62.28,62.28,0,0,1,44.25,18.26,187.27,187.27,0,0,1,10.74,17.91Zm68,25.92h-51v-119h51Z"/></svg>